<svg width="1341" height="1341" viewBox="0 0 1341 1341" fill="none" xmlns="http://www.w3.org/2000/svg">
<mask id="mask0_232_1080" style="mask-type:alpha" maskUnits="userSpaceOnUse" x="0" y="0" width="1341" height="1341">
<path d="M670.5 1341C299.878 1341 0 1040.68 0 670.5C0 299.879 300.323 0 670.5 0C1041.12 0 1341 300.323 1341 670.5C1341.44 1041.12 1041.12 1341 670.5 1341Z" fill="#DBCEE5"/>
</mask>
<g mask="url(#mask0_232_1080)">
<path d="M670.5 1341C299.878 1341 0 1040.68 0 670.5C0 299.879 300.323 0 670.5 0C1041.12 0 1341 300.323 1341 670.5C1341.44 1041.12 1041.12 1341 670.5 1341Z" fill="#DBCEE5"/>
<path d="M1075 1148.44C1071.97 1150.6 1068.51 1152.76 1065.48 1154.93C1062.02 1157.09 1058.99 1159.25 1055.53 1160.98C1052.5 1162.71 1049.91 1164.44 1046.88 1166.17C1046.45 1166.61 1046.01 1166.61 1045.58 1167.04C1035.63 1173.09 1025.25 1178.72 1014.87 1183.91C1011.84 1185.64 1008.38 1187.37 1005.35 1188.66C1005.35 1188.66 1004.92 1189.1 1004.48 1189.1C1001.02 1190.83 997.561 1192.56 994.1 1194.29C987.179 1197.75 979.824 1200.77 972.903 1203.8C969.442 1205.53 965.548 1206.83 962.087 1208.13C958.627 1209.42 954.733 1211.15 951.272 1212.45C947.811 1213.75 943.918 1215.48 940.457 1216.78C940.457 1216.78 940.457 1216.78 940.024 1216.78C936.564 1218.07 932.67 1219.37 929.209 1220.67C921.422 1223.26 913.203 1225.86 905.416 1228.45C902.82 1229.32 899.792 1230.18 897.196 1231.05C888.977 1233.64 880.757 1235.81 872.537 1237.54C869.509 1238.4 866.481 1238.83 863.02 1239.7C855.233 1241.43 847.013 1243.16 839.227 1244.89C837.496 1245.32 836.198 1245.32 834.468 1245.75C831.872 1246.19 828.844 1246.62 826.248 1247.05C822.355 1247.48 818.894 1248.35 815 1248.78C813.27 1249.21 811.54 1249.21 809.809 1249.65C807.646 1250.08 805.05 1250.51 802.455 1250.51C795.533 1251.38 788.179 1252.24 781.257 1253.11C779.094 1253.54 776.498 1253.54 774.335 1253.97H773.903C770.874 1254.4 767.846 1254.4 764.818 1254.84C761.79 1255.27 758.761 1255.27 755.733 1255.27C754.003 1255.27 751.84 1255.7 750.109 1255.7C746.648 1255.7 743.62 1256.13 740.592 1256.13C736.266 1256.13 732.372 1256.57 728.046 1256.57C723.72 1256.57 719.827 1256.57 715.5 1256.57C712.472 1256.57 709.444 1256.57 706.416 1256.57C524.287 1253.97 359.896 1176.55 243.092 1053.72C243.092 1053.72 243.092 1053.29 242.659 1053.29C256.07 1026.9 305.82 979.328 357.733 939.97C423.49 890.231 516.5 859.523 516.5 859.523C516.5 859.523 577.498 849.575 803.753 896.719C976.364 933.05 1049.91 1080.54 1075 1148.44Z" fill="#FFF0DA"/>
<path d="M851.772 1016.52C842.687 1061.07 783.853 1087.46 684.785 1047.66C563.222 998.359 516.501 859.523 516.501 859.523C510.011 760.045 494.87 674.841 494.87 674.841C635.468 662.731 801.59 827.084 801.59 827.084L820.624 908.396C822.355 915.317 825.816 921.372 831.007 925.697C840.092 941.267 857.829 987.978 851.772 1016.52Z" fill="#FFF0DA"/>
<path d="M831.007 926.129C748.379 921.804 687.381 909.694 622.057 792.484C677.431 841.357 742.755 859.955 811.54 868.605L820.625 908.396C822.355 915.749 825.816 921.804 831.007 926.129Z" fill="#F0C6B2"/>
<path d="M1001.89 404.954C1009.67 441.285 1013.57 470.696 992.37 567.578C971.172 664.461 1011.84 761.343 909.742 850.008C840.957 909.694 720.692 920.939 624.653 855.63C592.207 833.572 562.357 802.864 538.131 762.64C519.096 731.067 497.033 701.224 472.374 673.976C438.198 636.78 397.1 561.956 417.433 429.608C450.311 214.217 663.587 189.564 789.476 213.352C915.366 237.14 980.69 308.937 1001.89 404.954Z" fill="#FFF0DA"/>
<path d="M587.881 574.066C587.881 574.066 574.47 509.189 511.309 516.975C456.8 523.895 437.766 654.513 561.492 690.844" fill="#FFF0DA"/>
<path d="M557.598 631.59C557.598 631.59 542.024 621.642 543.755 604.342C546.35 584.014 543.755 571.471 534.237 567.578C510.444 557.631 505.685 585.311 506.55 588.771" stroke="#423232" stroke-width="10" stroke-miterlimit="10" stroke-linecap="round" stroke-linejoin="round"/>
<path d="M887.679 673.543C887.679 673.543 904.118 674.408 919.692 655.81C928.344 645.43 935.698 632.455 930.94 628.562C926.181 624.237 847.879 636.347 842.687 646.728C837.496 657.108 867.779 673.543 887.679 673.543Z" fill="#F0C6B2"/>
<path d="M900.657 528.22C900.657 528.22 901.522 569.308 927.911 615.154C939.592 635.482 921.855 668.786 883.353 674.408" stroke="#423232" stroke-width="10" stroke-miterlimit="10" stroke-linecap="round" stroke-linejoin="round"/>
<path opacity="0.42" d="M666.183 695.601C690.792 695.601 710.742 679.142 710.742 658.838C710.742 638.534 690.792 622.075 666.183 622.075C641.574 622.075 621.625 638.534 621.625 658.838C621.625 679.142 641.574 695.601 666.183 695.601Z" fill="#FFB0BE"/>
<path opacity="0.42" d="M985.448 622.94C984.15 647.16 984.583 670.948 982.853 694.736C963.818 690.411 949.974 676.138 949.974 659.271C949.974 641.105 965.116 626.4 985.448 622.94Z" fill="#FFB0BE"/>
<path d="M822.395 904.384C822.395 904.384 756.86 923.605 665.986 893.9C575.111 864.195 486.421 786 486.421 786C486.421 786 457.586 786.437 446.664 808.279C436.178 830.121 436.615 875.116 420.013 887.347C416.081 889.968 405.158 893.026 388.993 897.395C362.779 904.821 323.896 916.179 284.575 938.458C255.303 955.058 225.594 977.337 200.691 1007.92C189.331 1021.89 179.283 1037.62 170.545 1055.53C101.515 1195.76 131.224 1392.34 131.224 1392.34H1199C1199 1392.34 1167.98 1149.45 1101.13 1069.51C1034.29 989.568 906.716 924.916 869.143 907.879V882.542C869.579 882.542 846.424 897.832 822.395 904.384Z" fill="white"/>
<mask id="mask1_232_1080" style="mask-type:alpha" maskUnits="userSpaceOnUse" x="124" y="786" width="1075" height="607">
<path d="M822.395 904.384C822.395 904.384 756.86 923.605 665.986 893.9C575.111 864.195 486.421 786 486.421 786C486.421 786 457.586 786.437 446.664 808.279C436.178 830.121 436.615 875.116 420.013 887.347C416.081 889.968 405.158 893.026 388.993 897.395C362.779 904.821 323.896 916.179 284.575 938.458C255.303 955.058 225.594 977.337 200.691 1007.92C189.331 1021.89 179.283 1037.62 170.545 1055.53C101.515 1195.76 131.224 1392.34 131.224 1392.34H1199C1199 1392.34 1167.98 1149.45 1101.13 1069.51C1034.29 989.568 906.716 924.916 869.143 907.879V882.542C869.579 882.542 846.424 897.832 822.395 904.384Z" fill="#48D89E"/>
</mask>
<g mask="url(#mask1_232_1080)">
<path d="M303.361 1071.26C328.938 1071.26 349.672 1050.53 349.672 1024.95C349.672 999.379 328.938 978.647 303.361 978.647C277.784 978.647 257.05 999.379 257.05 1024.95C257.05 1050.53 277.784 1071.26 303.361 1071.26Z" fill="#F4C2CE"/>
<path d="M566.81 1049.85C592.387 1049.85 613.121 1029.12 613.121 1003.55C613.121 977.974 592.387 957.242 566.81 957.242C541.233 957.242 520.499 977.974 520.499 1003.55C520.499 1029.12 541.233 1049.85 566.81 1049.85Z" fill="#F4C2CE"/>
<path d="M766.035 951.563C791.612 951.563 812.346 930.832 812.346 905.258C812.346 879.684 791.612 858.953 766.035 858.953C740.458 858.953 719.724 879.684 719.724 905.258C719.724 930.832 740.458 951.563 766.035 951.563Z" fill="#F4C2CE"/>
<path d="M484.673 1276.57C510.25 1276.57 530.984 1255.84 530.984 1230.27C530.984 1204.69 510.25 1183.96 484.673 1183.96C459.096 1183.96 438.362 1204.69 438.362 1230.27C438.362 1255.84 459.096 1276.57 484.673 1276.57Z" fill="#F4C2CE"/>
<path d="M1023.8 1252.98C1049.38 1252.98 1070.11 1232.25 1070.11 1206.68C1070.11 1181.11 1049.38 1160.37 1023.8 1160.37C998.227 1160.37 977.493 1181.11 977.493 1206.68C977.493 1232.25 998.227 1252.98 1023.8 1252.98Z" fill="#F4C2CE"/>
<path d="M768.656 1215.42C794.233 1215.42 814.967 1194.68 814.967 1169.11C814.967 1143.54 794.233 1122.81 768.656 1122.81C743.079 1122.81 722.345 1143.54 722.345 1169.11C722.345 1194.68 743.079 1215.42 768.656 1215.42Z" fill="#F4C2CE"/>
<path d="M987.978 1027.57C1013.55 1027.57 1034.29 1006.84 1034.29 981.268C1034.29 955.695 1013.55 934.963 987.978 934.963C962.401 934.963 941.667 955.695 941.667 981.268C941.667 1006.84 962.401 1027.57 987.978 1027.57Z" fill="#F4C2CE"/>
</g>
<path d="M869.58 907.879C869.58 907.879 875.259 947.195 865.211 969.474C849.046 1006.17 736.763 1048.11 600.888 999.179C492.975 960.3 440.11 906.569 438.8 898.269" stroke="#A394AE" stroke-width="13" stroke-miterlimit="10" stroke-linecap="round" stroke-linejoin="round"/>
<path d="M520.499 830.558C518.315 833.179 516.131 836.674 514.383 841.042C508.266 855.895 506.519 886.911 506.519 886.911" stroke="#A394AE" stroke-width="13" stroke-miterlimit="10" stroke-linecap="round" stroke-linejoin="round"/>
<path d="M594.335 875.553C592.587 879.047 590.84 882.979 589.966 887.347C587.782 898.705 585.16 934.526 585.16 934.526" stroke="#A394AE" stroke-width="13" stroke-miterlimit="10" stroke-linecap="round" stroke-linejoin="round"/>
<path d="M668.608 906.132C667.734 909.626 666.86 913.995 666.423 919.237C665.55 925.353 665.986 962.484 665.986 962.484" stroke="#A394AE" stroke-width="13" stroke-miterlimit="10" stroke-linecap="round" stroke-linejoin="round"/>
<path d="M748.123 923.605C748.997 933.653 749.433 947.632 748.123 964.668" stroke="#A394AE" stroke-width="13" stroke-miterlimit="10" stroke-linecap="round" stroke-linejoin="round"/>
<path d="M814.968 920.111C816.279 928.411 817.59 939.769 818.026 954.184" stroke="#A394AE" stroke-width="13" stroke-miterlimit="10" stroke-linecap="round" stroke-linejoin="round"/>
<path d="M472.878 787.747C462.392 791.679 448.411 802.163 443.169 832.742" stroke="#A394AE" stroke-width="3" stroke-miterlimit="10" stroke-linecap="round" stroke-linejoin="round"/>
<path d="M921.133 933.653C898.851 921.421 880.502 912.684 869.579 907.879V882.542" stroke="#A394AE" stroke-width="3" stroke-miterlimit="10" stroke-linecap="round" stroke-linejoin="round"/>
<path d="M1066.91 733.89C1034.42 668.578 1068.62 655.866 1048.95 605.896C1019.88 532.256 1022.02 521.736 1025.44 505.08C1051.09 381.031 1067.77 246.901 918.108 167.563C749.634 78.1431 514.026 114.525 426.368 224.985C351.966 317.911 373.774 366.566 354.959 432.316C336.572 495.875 253.618 497.628 291.674 629.128C310.916 695.755 233.521 730.821 250.625 843.035C369.925 897.826 494.357 923.688 621.354 931.578C655.99 844.35 549.09 824.625 547.807 694.44C547.807 685.673 548.234 677.345 549.09 669.455C430.644 631.32 449.886 501.573 503.336 494.56C540.538 489.738 560.207 511.216 570.042 529.188C570.897 531.818 572.18 534.01 573.463 536.64C589.711 565.131 675.659 539.27 733.385 470.451C795.387 396.811 790.683 402.51 821.898 358.238C884.755 269.695 883.045 360.868 898.866 373.141C921.101 390.236 906.991 402.948 941.626 461.685C957.02 487.985 985.241 513.846 978.4 544.968C957.447 642.716 997.642 741.341 896.728 831.2C874.065 851.363 842.423 868.896 805.222 876.348C806.932 889.498 812.063 908.785 823.609 929.386C911.267 923.25 999.352 910.538 1087.44 895.196C1101.12 846.541 1094.28 788.681 1066.91 733.89Z" fill="#423232"/>
<path d="M573.891 536.201C572.608 534.01 571.325 531.38 570.47 528.75C571.753 531.38 573.035 534.01 573.891 536.201Z" fill="#FEE4BF"/>
<path d="M991.228 543.215C991.228 543.215 1104.11 505.518 1061.35 394.181C1037.84 332.815 1036.55 263.12 1012.18 218.41C978.4 156.605 924.523 138.195 844.989 155.29C708.157 184.658 930.081 150.906 943.765 252.161C957.02 353.416 991.228 543.215 991.228 543.215Z" fill="#423232"/>
<path d="M733.149 558.677L733.148 558.693L733.147 558.709L732.718 570.72C731.668 584.234 741.895 595.475 755.315 596.034C768.597 596.588 779.967 586.589 780.539 573.445L780.54 573.423L780.54 573.402L780.969 561.391C782.017 547.916 771.851 536.7 758.487 536.082C744.963 535.017 733.708 545.249 733.149 558.677Z" fill="#423232" stroke="#423232" stroke-width="11"/>
<path d="M916.949 567.345L916.948 567.363L916.947 567.38L916.515 578.63C915.969 590.855 925.405 601.473 937.75 602.034C949.983 602.59 960.611 593.15 961.172 580.799L961.173 580.782L961.173 580.764L961.606 569.514C962.152 557.289 952.715 546.672 940.371 546.111C928.138 545.555 917.51 554.995 916.949 567.345Z" fill="#423232" stroke="#423232" stroke-width="10"/>
<path d="M815.343 495.639C824.443 498.672 833.543 490.439 831.809 480.472C830.943 475.272 828.776 470.072 824.443 466.172C811.443 454.472 757.709 444.072 725.209 459.239C696.609 473.106 773.743 481.772 815.343 495.639Z" fill="#423232"/>
<path d="M944.909 502.572C937.542 505.172 929.742 497.372 931.042 488.272C931.475 483.506 933.209 478.739 936.676 475.272C947.076 464.872 982.609 456.639 1005.14 472.672C1024.64 486.106 978.709 490.006 944.909 502.572Z" fill="#423232"/>
<path d="M876.627 748.081C877.076 755.27 871.685 767.85 861.8 776.836C811.031 745.835 788.117 762.009 788.117 762.009C770.146 734.603 774.189 697.312 817.77 725.617C848.322 744.936 866.742 748.081 876.627 748.081Z" fill="#423232"/>
<path d="M861.801 776.836C851.018 786.271 834.843 792.111 812.828 783.126C802.495 779.082 794.408 770.995 788.118 762.009C788.118 762.009 811.031 745.835 861.801 776.836Z" fill="#FE9DAB"/>
<path d="M885.164 746.284C885.164 746.284 866.294 756.618 817.771 725.617C759.813 688.326 771.494 766.502 812.379 783.126C855.061 800.648 877.077 762.459 876.627 748.081" stroke="#423232" stroke-width="13.4786" stroke-miterlimit="10" stroke-linecap="round" stroke-linejoin="round"/>
<path d="M788.118 762.009C788.118 762.009 811.031 745.835 861.801 776.836" stroke="#423232" stroke-width="13.4786" stroke-miterlimit="10" stroke-linecap="round" stroke-linejoin="round"/>
<path d="M777.872 551.044C768.429 535.179 750.939 533.61 734.244 533.61C726.573 533.61 720.398 534.289 713.82 538.579C708.453 542.079 704.625 547.021 699.797 551.044" stroke="#423232" stroke-width="19" stroke-linecap="round"/>
<path d="M1001.08 556.434C991.632 540.569 974.142 539 957.447 539C949.776 539 943.6 539.68 937.023 543.969C931.656 547.469 927.827 552.411 923 556.434" stroke="#423232" stroke-width="19" stroke-linecap="round"/>
<path d="M1045.47 524C1034.44 519.265 1017.89 515.32 998.58 512.558C1001.34 481.389 994.639 457.716 994.639 457.716C993.851 473.893 989.516 500.722 987.94 510.98C960.357 507.824 929.227 505.851 902.432 505.062C900.856 481.389 895.733 453.771 895.733 453.771C895.733 465.213 893.763 490.858 892.187 504.667C885.488 504.667 878.789 504.273 872.878 504.273C868.938 504.273 865.392 504.273 861.451 504.273C857.905 474.682 849.63 439.567 849.63 439.567C850.418 454.954 847.659 487.702 846.477 504.273C748.754 505.062 661.669 514.925 661.669 514.925L653 358.291C690.435 278.987 993.457 243.478 1023.4 305.816C1077.78 417.867 1045.47 524 1045.47 524Z" fill="#423232"/>
<path d="M525.308 623.686L532.63 638.329C533.922 640.913 536.506 642.636 539.09 643.066L555.458 645.65C562.78 646.512 565.364 655.556 560.195 660.724L548.566 672.353C546.413 674.506 545.551 677.09 545.982 680.105L548.566 696.471C549.858 703.792 542.105 708.961 535.645 705.946L521 698.194C518.416 696.902 515.401 696.902 512.817 698.194L498.173 705.946C491.712 709.391 483.959 703.792 485.251 696.471L487.835 680.105C488.266 677.09 487.405 674.506 485.251 672.353L473.622 660.724C468.453 655.556 471.468 646.942 478.36 645.65L494.727 643.066C497.742 642.636 499.895 640.913 501.188 638.329L508.51 623.686C512.817 616.795 522.293 616.795 525.308 623.686Z" fill="#F4C2CE"/>
<path d="M988.326 671.922C986.172 674.075 985.311 677.09 985.741 679.674L988.326 696.04C989.618 703.362 981.865 708.96 975.404 705.515L966.79 700.777C969.805 679.674 970.666 658.14 971.097 636.606L971.959 638.329C973.251 640.913 975.835 642.635 978.419 643.066L994.786 645.22C1002.11 646.081 1005.12 655.125 999.524 660.293L988.326 671.922Z" fill="#F4C2CE"/>
</g>
</svg>
