<svg width="1920" height="332" viewBox="0 0 1920 332" fill="none" xmlns="http://www.w3.org/2000/svg">
<g filter="url(#filter0_d_395_2101)">
<path d="M89.8587 72.3696C158.919 86.6996 220.879 124.05 287.909 145.99C394.169 180.76 513.189 174.88 615.509 129.82C648.209 115.42 679.589 97.0696 714.389 88.9896C820.439 64.3596 925.999 139.51 1034.78 134.88C1160.85 129.52 1269.95 18.3496 1395.24 33.3996C1490.01 44.7796 1561.58 125.42 1652.2 155.4C1691.87 168.52 1734.33 171.55 1776.05 169.16C1818.67 166.72 1862.17 158.83 1903.49 169.56C1944.81 180.28 1983.68 217.54 1977.92 259.84C1973.87 289.63 1948.68 313.09 1920.62 323.88C1892.56 334.67 1861.75 335.15 1831.69 335.48C1687.32 337.09 1542.95 338.69 1398.58 340.3C1039.96 344.29 681.339 348.29 322.729 352.28C252.489 353.06 182.099 353.84 112.179 347.16C53.8687 341.59 -6.36134 329.81 -53.0013 294.39C-100.531 258.3 -136.681 182.18 -97.0613 129.17C-54.8613 72.7196 24.6687 58.8396 89.8587 72.3696Z" fill="#ADC9FF"/>
</g>
<g filter="url(#filter1_d_395_2101)">
<path d="M229.072 153.78C317.322 169.58 401.582 203.32 489.782 219.4C588.932 237.48 692.182 232.68 789.232 205.48C837.422 191.97 884.152 173.02 933.232 163.27C991.802 151.63 1053.02 153.49 1110.78 168.66C1148.35 178.53 1184.26 193.87 1221.55 204.76C1262.17 216.63 1304.14 223.13 1346.07 228.85C1514.96 251.88 1685.53 262.62 1855.98 260.97C1876.51 260.77 1898.49 260.8 1915.53 272.25C1932.57 283.7 1940.06 311.31 1924.5 324.72C1918.74 329.69 1911.1 331.76 1903.74 333.68C1735.14 377.83 1565.27 422.19 1391.34 433.27C1339.42 436.58 1287.37 436.9 1235.35 437.66C821.952 443.75 408.542 478.07 -4.48774 459.39C-19.6177 441.63 -22.1177 416.68 -23.9477 393.42C-28.4977 335.57 -63.2777 223.59 -8.44773 182.77C54.7123 135.75 156.352 141.19 229.072 153.78Z" fill="#FFE3ED"/>
</g>
<g filter="url(#filter2_d_395_2101)">
<path d="M298.035 330.033C399.845 306.633 497.775 260.603 602.215 258.543C720.185 256.213 831.365 310.173 947.465 331.253C1019.4 344.313 1092.97 344.663 1166.09 344.973C1220.13 345.203 1274.68 345.383 1327.52 334.033C1374.51 323.943 1419.06 304.953 1464.95 290.653C1554.69 262.683 1648.94 252.783 1742.53 244.053C1808.18 237.933 1876.84 232.723 1937.82 257.823C1942.89 322.953 1947.96 388.073 1953.03 453.203C1954.5 472.143 1954.38 494.693 1938.86 505.633C1930.17 511.763 1918.86 512.343 1908.24 512.703C1294.92 533.683 681.235 543.593 67.5547 542.423C42.8347 542.373 14.0447 540.263 0.184723 519.793C-7.37528 508.623 -8.47528 494.453 -9.33528 480.993C-12.3853 433.393 -28.2053 369.403 -19.3253 322.753C-12.4653 286.663 21.8547 292.773 48.6247 304.823C131.205 342.023 208.525 350.623 298.055 330.043L298.035 330.033Z" fill="white"/>
</g>
<defs>
<filter id="filter0_d_395_2101" x="-137" y="0" width="2138.49" height="366.784" filterUnits="userSpaceOnUse" color-interpolation-filters="sRGB">
<feFlood flood-opacity="0" result="BackgroundImageFix"/>
<feColorMatrix in="SourceAlpha" type="matrix" values="0 0 0 0 0 0 0 0 0 0 0 0 0 0 0 0 0 0 127 0" result="hardAlpha"/>
<feOffset dy="-9"/>
<feGaussianBlur stdDeviation="11.5"/>
<feComposite in2="hardAlpha" operator="out"/>
<feColorMatrix type="matrix" values="0 0 0 0 0 0 0 0 0 0 0 0 0 0 0 0 0 0 0.25 0"/>
<feBlend mode="normal" in2="BackgroundImageFix" result="effect1_dropShadow_395_2101"/>
<feBlend mode="normal" in="SourceGraphic" in2="effect1_dropShadow_395_2101" result="shape"/>
</filter>
<filter id="filter1_d_395_2101" x="-62" y="113" width="2018" height="365.899" filterUnits="userSpaceOnUse" color-interpolation-filters="sRGB">
<feFlood flood-opacity="0" result="BackgroundImageFix"/>
<feColorMatrix in="SourceAlpha" type="matrix" values="0 0 0 0 0 0 0 0 0 0 0 0 0 0 0 0 0 0 127 0" result="hardAlpha"/>
<feOffset dy="-9"/>
<feGaussianBlur stdDeviation="11.5"/>
<feComposite in2="hardAlpha" operator="out"/>
<feColorMatrix type="matrix" values="0 0 0 0 0 0 0 0 0 0 0 0 0 0 0 0 0 0 0.25 0"/>
<feBlend mode="normal" in2="BackgroundImageFix" result="effect1_dropShadow_395_2101"/>
<feBlend mode="normal" in="SourceGraphic" in2="effect1_dropShadow_395_2101" result="shape"/>
</filter>
<filter id="filter2_d_395_2101" x="-45" y="210" width="2021.63" height="349.516" filterUnits="userSpaceOnUse" color-interpolation-filters="sRGB">
<feFlood flood-opacity="0" result="BackgroundImageFix"/>
<feColorMatrix in="SourceAlpha" type="matrix" values="0 0 0 0 0 0 0 0 0 0 0 0 0 0 0 0 0 0 127 0" result="hardAlpha"/>
<feOffset dy="-6"/>
<feGaussianBlur stdDeviation="11.5"/>
<feComposite in2="hardAlpha" operator="out"/>
<feColorMatrix type="matrix" values="0 0 0 0 0 0 0 0 0 0 0 0 0 0 0 0 0 0 0.25 0"/>
<feBlend mode="normal" in2="BackgroundImageFix" result="effect1_dropShadow_395_2101"/>
<feBlend mode="normal" in="SourceGraphic" in2="effect1_dropShadow_395_2101" result="shape"/>
</filter>
</defs>
</svg>
