<svg width="430" height="243" viewBox="0 0 430 243" fill="none" xmlns="http://www.w3.org/2000/svg">
<path d="M-100.126 1.94839C-85.2209 -1.66534 -70.1085 0.854979 -70.1085 0.854979C-59.193 2.77392 -50.8426 6.95076 -42.274 11.2424C-35.4627 14.6539 -31.4349 16.6712 -27.5381 20.5364C-25.4369 22.6249 -23.1337 24.5055 -20.9888 26.5502C-20.9888 26.5502 -20.9779 26.5611 -20.9724 26.5666C-14.7178 32.5202 -12.9277 29.5243 -5.11768 28.8464C2.35397 28.1958 10.1694 30.4974 16.0747 35.1335C24.0867 41.4206 28.5457 51.9666 27.4868 62.1026C26.9029 67.668 24.305 69.4776 24.1849 76.7707C24.1085 81.128 24.0157 86.8903 27.5905 89.9682C31.2691 93.1391 34.9858 90.1486 43.9638 92.1551C47.5331 92.9532 52.8599 94.1451 57.0623 98.1688C63.0386 103.893 60.3643 109.251 67.4321 116.21C69.1349 117.889 72.5078 121.12 76.2463 120.556C79.4282 120.075 81.2347 116.932 82.0588 116.095C89.8197 108.179 97.526 100.257 105.636 92.7018C118.304 80.9093 138.317 82.6806 146.569 83.4077C184.19 86.7317 206.195 121.716 211.516 135.892C212.843 139.429 216.199 149.838 217.52 162.134C218.038 166.939 218.295 169.345 218.066 172.521C217.662 178.13 216.428 188.375 216.428 188.375C216.161 190.584 215.959 192.202 216.974 193.296C218.48 194.914 221.237 193.843 225.161 193.843C229.145 193.843 231.956 194.952 236.076 196.576C244.94 200.07 245.474 204.323 249.721 204.23C254.474 204.126 255.795 198.747 261.728 193.296C271.535 184.275 284.606 183.641 288.471 183.455C288.471 183.455 305.068 182.651 319.034 192.749C324.164 196.461 326.675 199.31 326.675 199.31C329.944 203.022 329.988 204.645 332.056 205.367C335.516 206.57 337.934 202.934 344.14 200.95C348.26 199.632 351.437 199.889 357.784 200.403C375.844 201.868 391.666 211.971 401.457 227.29C409.845 240.411 419.178 271.77 403.629 283.503C397.02 288.488 388.746 285.717 375.794 283.503C354.094 279.796 331.767 283.246 309.756 282.956C225.046 281.846 -0.489517 360.79 -91.3882 288.423C-182.805 215.651 -117.591 6.18537 -100.126 1.94839Z" fill="#ADC9FF"/>
<g filter="url(#filter0_d_419_2391)">
<path d="M-124.557 65.1744C-107.899 61.1415 -91.0098 63.9541 -91.0098 63.9541C-78.8107 66.0957 -69.4784 70.757 -59.9022 75.5464C-52.2899 79.3535 -47.7885 81.6049 -43.4334 85.9184C-41.0851 88.2491 -38.5111 90.3479 -36.1139 92.6297C-32.7714 95.8084 -31.5759 97.1019 -29.4044 97.5106C-26.6901 98.0231 -25.0311 96.6565 -22.085 95.6803C-17.2724 94.0879 -13.0638 94.8627 -8.66599 95.6803C2.179 97.6876 12.1396 106.638 16.3787 117.327C19.1235 124.246 18.8978 130.433 18.782 132.898C18.5685 137.467 18.3184 142.775 15.1222 148.15C12.8288 152.006 10.1084 154.063 10.8526 156.692C11.4381 158.767 13.4266 158.504 15.1222 160.963C18.0988 165.27 14.7075 170.005 16.9521 171.945C19.0869 173.794 22.7406 169.999 29.1512 170.115C34.5737 170.212 38.5872 173.043 41.3503 174.996C47.7975 179.547 46.9252 182.769 54.1593 190.249C58.5449 194.782 63.3513 199.754 69.0483 199.364C73.7754 199.04 77.0265 195.166 78.7588 193.153C78.7588 193.153 86.9078 183.647 105.402 166.454C119.559 153.294 141.926 155.271 151.148 156.082C193.192 159.792 217.786 198.833 223.733 214.653C225.215 218.601 228.966 230.217 230.442 243.939C231.022 249.302 231.308 251.986 231.052 255.531C230.601 261.791 229.222 273.225 229.222 273.225C228.923 275.69 228.698 277.496 229.832 278.716C231.516 280.522 234.596 279.326 238.982 279.326C243.434 279.326 246.575 280.564 251.181 282.376C261.086 286.275 261.684 291.022 266.429 290.918C271.742 290.802 273.218 284.799 279.848 278.716C290.809 268.649 305.418 267.941 309.736 267.734C309.736 267.734 328.285 266.837 343.894 278.106C349.627 282.248 352.433 285.427 352.433 285.427C356.087 289.57 356.135 291.382 358.447 292.187C362.314 293.529 365.016 289.472 371.952 287.257C376.557 285.787 380.107 286.074 387.2 286.647C389.323 286.818 398.863 287.691 407.939 291.528C428.879 300.387 438.717 321.394 439.937 324.09C447.763 341.411 451.392 369.623 438.437 379.385C431.05 384.95 421.803 381.856 407.329 379.385C383.077 375.249 358.124 379.098 333.524 378.775C238.853 377.537 -13.2041 465.638 -114.792 384.876C-216.953 303.67 -144.076 69.9028 -124.557 65.1744Z" fill="#FFE3ED"/>
</g>
<defs>
<filter id="filter0_d_419_2391" x="-168" y="40" width="661" height="402" filterUnits="userSpaceOnUse" color-interpolation-filters="sRGB">
<feFlood flood-opacity="0" result="BackgroundImageFix"/>
<feColorMatrix in="SourceAlpha" type="matrix" values="0 0 0 0 0 0 0 0 0 0 0 0 0 0 0 0 0 0 127 0" result="hardAlpha"/>
<feOffset dx="23"/>
<feGaussianBlur stdDeviation="11.5"/>
<feColorMatrix type="matrix" values="0 0 0 0 0.027451 0 0 0 0 0.231373 0 0 0 0 0.392157 0 0 0 0.44 0"/>
<feBlend mode="normal" in2="BackgroundImageFix" result="effect1_dropShadow_419_2391"/>
<feBlend mode="normal" in="SourceGraphic" in2="effect1_dropShadow_419_2391" result="shape"/>
</filter>
</defs>
</svg>
