<svg width="1920" height="205" viewBox="0 0 1920 205" fill="none" xmlns="http://www.w3.org/2000/svg">
<g filter="url(#filter0_d_395_2101)">
<path d="M110.859 72.3696C179.919 86.6996 241.879 124.05 308.909 145.99C415.169 180.76 534.189 174.88 636.509 129.82C669.209 115.42 700.589 97.0696 735.389 88.9896C841.439 64.3596 946.999 139.51 1055.78 134.88C1181.85 129.52 1290.95 18.3496 1416.24 33.3996C1511.01 44.7796 1582.58 125.42 1673.2 155.4C1712.87 168.52 1755.33 171.55 1797.05 169.16C1839.67 166.72 1883.17 158.83 1924.49 169.56C1965.81 180.28 2004.68 217.54 1998.92 259.84C1994.87 289.63 1969.68 313.09 1941.62 323.88C1913.56 334.67 1882.75 335.15 1852.69 335.48C1708.32 337.09 1563.95 338.69 1419.58 340.3C1060.96 344.29 702.339 348.29 343.729 352.28C273.489 353.06 203.099 353.84 133.179 347.16C74.8687 341.59 14.6387 329.81 -32.0013 294.39C-79.5313 258.3 -115.681 182.18 -76.0613 129.17C-33.8613 72.7196 45.6687 58.8396 110.859 72.3696Z" fill="#ADC9FF"/>
</g>
<g filter="url(#filter1_d_395_2101)">
<path d="M250.072 153.78C338.322 169.58 422.582 203.32 510.782 219.4C609.932 237.48 713.182 232.68 810.232 205.48C858.422 191.97 905.152 173.02 954.232 163.27C1012.8 151.63 1074.02 153.49 1131.78 168.66C1169.35 178.53 1205.26 193.87 1242.55 204.76C1283.17 216.63 1325.14 223.13 1367.07 228.85C1535.96 251.88 1706.53 262.62 1876.98 260.97C1897.51 260.77 1919.49 260.8 1936.53 272.25C1953.57 283.7 1961.06 311.31 1945.5 324.72C1939.74 329.69 1932.1 331.76 1924.74 333.68C1756.14 377.83 1586.27 422.19 1412.34 433.27C1360.42 436.58 1308.37 436.9 1256.35 437.66C842.952 443.75 429.542 478.07 16.5123 459.39C1.38226 441.63 -1.11773 416.68 -2.94773 393.42C-7.49773 335.57 -42.2777 223.59 12.5523 182.77C75.7123 135.75 177.352 141.19 250.072 153.78Z" fill="#FFE3ED"/>
</g>
<path d="M319.035 330.033C420.845 306.633 518.775 260.603 623.215 258.543C741.185 256.213 852.365 310.173 968.465 331.253C1040.4 344.313 1113.97 344.663 1187.09 344.973C1241.13 345.203 1295.68 345.383 1348.52 334.033C1395.51 323.943 1440.06 304.953 1485.95 290.653C1575.69 262.683 1669.94 252.783 1763.53 244.053C1829.18 237.933 1897.84 232.723 1958.82 257.823C1963.89 322.953 1968.96 388.073 1974.03 453.203C1975.5 472.143 1975.38 494.693 1959.86 505.633C1951.17 511.763 1939.86 512.343 1929.24 512.703C1315.92 533.683 702.235 543.593 88.5547 542.423C63.8347 542.373 35.0447 540.263 21.1847 519.793C13.6247 508.623 12.5247 494.453 11.6647 480.993C8.61472 433.393 -7.20528 369.403 1.67472 322.753C8.53472 286.663 42.8547 292.773 69.6247 304.823C152.205 342.023 229.525 350.623 319.055 330.043L319.035 330.033Z" fill="white"/>
<defs>
<filter id="filter0_d_395_2101" x="-116" y="0" width="2138.49" height="366.784" filterUnits="userSpaceOnUse" color-interpolation-filters="sRGB">
<feFlood flood-opacity="0" result="BackgroundImageFix"/>
<feColorMatrix in="SourceAlpha" type="matrix" values="0 0 0 0 0 0 0 0 0 0 0 0 0 0 0 0 0 0 127 0" result="hardAlpha"/>
<feOffset dy="-9"/>
<feGaussianBlur stdDeviation="11.5"/>
<feComposite in2="hardAlpha" operator="out"/>
<feColorMatrix type="matrix" values="0 0 0 0 0 0 0 0 0 0 0 0 0 0 0 0 0 0 0.25 0"/>
<feBlend mode="normal" in2="BackgroundImageFix" result="effect1_dropShadow_395_2101"/>
<feBlend mode="normal" in="SourceGraphic" in2="effect1_dropShadow_395_2101" result="shape"/>
</filter>
<filter id="filter1_d_395_2101" x="-41" y="113" width="2018" height="365.899" filterUnits="userSpaceOnUse" color-interpolation-filters="sRGB">
<feFlood flood-opacity="0" result="BackgroundImageFix"/>
<feColorMatrix in="SourceAlpha" type="matrix" values="0 0 0 0 0 0 0 0 0 0 0 0 0 0 0 0 0 0 127 0" result="hardAlpha"/>
<feOffset dy="-9"/>
<feGaussianBlur stdDeviation="11.5"/>
<feComposite in2="hardAlpha" operator="out"/>
<feColorMatrix type="matrix" values="0 0 0 0 0 0 0 0 0 0 0 0 0 0 0 0 0 0 0.25 0"/>
<feBlend mode="normal" in2="BackgroundImageFix" result="effect1_dropShadow_395_2101"/>
<feBlend mode="normal" in="SourceGraphic" in2="effect1_dropShadow_395_2101" result="shape"/>
</filter>
</defs>
</svg>
