<svg width="1920" height="488" viewBox="0 0 1920 488" fill="none" xmlns="http://www.w3.org/2000/svg">
<path d="M-224.773 3.56387C-197.463 -3.04613 -169.773 1.56387 -169.773 1.56387C-149.773 5.07387 -134.473 12.7139 -118.773 20.5639C-106.293 26.8039 -98.9128 30.4939 -91.7728 37.5639C-87.9228 41.3839 -83.7028 44.8239 -79.7728 48.5639C-79.7728 48.5639 -79.7528 48.5839 -79.7428 48.5939C-68.2828 59.4839 -65.0028 54.0039 -50.6928 52.7639C-37.0028 51.5739 -22.6828 55.7839 -11.8628 64.2639C2.8172 75.7639 10.9872 95.0539 9.04718 113.594C7.97717 123.774 3.21719 127.084 2.99719 140.424C2.85718 148.394 2.68719 158.934 9.23718 164.564C15.9772 170.364 22.7872 164.894 39.2372 168.564C45.7772 170.024 55.5372 172.204 63.2372 179.564C74.1872 190.034 69.2872 199.834 82.2372 212.564C85.3572 215.634 91.5372 221.544 98.3872 220.514C104.217 219.634 107.527 213.884 109.037 212.354C123.257 197.874 137.377 183.384 152.237 169.564C175.447 147.994 212.117 151.234 227.237 152.564C296.167 158.644 336.487 222.634 346.237 248.564C348.667 255.034 354.817 274.074 357.237 296.564C358.187 305.354 358.657 309.754 358.237 315.564C357.497 325.824 355.237 344.564 355.237 344.564C354.747 348.604 354.377 351.564 356.237 353.564C358.997 356.524 364.047 354.564 371.237 354.564C378.537 354.564 383.687 356.594 391.237 359.564C407.477 365.954 408.457 373.734 416.237 373.564C424.947 373.374 427.367 363.534 438.237 353.564C456.207 337.064 480.157 335.904 487.237 335.564C487.237 335.564 517.647 334.094 543.237 352.564C552.637 359.354 557.237 364.564 557.237 364.564C563.227 371.354 563.307 374.324 567.097 375.644C573.437 377.844 577.867 371.194 589.237 367.564C596.787 365.154 602.607 365.624 614.237 366.564C647.327 369.244 676.317 387.724 694.257 415.744C709.627 439.744 726.727 497.104 698.237 518.564C686.127 527.684 670.967 522.614 647.237 518.564C607.477 511.784 566.567 518.094 526.237 517.564C371.027 515.534 -42.2128 659.934 -208.763 527.564C-376.263 394.454 -256.773 11.3139 -224.773 3.56387Z" fill="#ADC9FF"/>
<g filter="url(#filter0_d_411_2371)">
<path d="M-306.39 69.9884C-275.865 62.591 -244.914 67.7502 -244.914 67.7502C-222.559 71.6783 -205.457 80.2284 -187.909 89.0135C-173.959 95.9968 -165.71 100.126 -157.729 108.039C-153.426 112.314 -148.709 116.163 -144.316 120.349C-138.191 126.179 -136 128.552 -132.021 129.302C-127.047 130.242 -124.007 127.735 -118.608 125.944C-109.789 123.024 -102.076 124.445 -94.0172 125.944C-74.1435 129.626 -55.8906 146.044 -48.1222 165.651C-43.0923 178.342 -43.5059 189.69 -43.7183 194.211C-44.1095 202.593 -44.5678 212.329 -50.4248 222.189C-54.6276 229.262 -59.6127 233.033 -58.2491 237.857C-57.176 241.662 -53.5322 241.18 -50.4248 245.69C-44.9702 253.591 -51.1849 262.276 -47.0715 265.835C-43.1594 269.226 -36.4641 262.265 -24.7165 262.477C-14.7796 262.656 -7.4248 267.849 -2.36139 271.43C9.45328 279.779 7.85489 285.688 21.1114 299.408C29.1481 307.723 37.956 316.844 48.3958 316.128C57.0584 315.535 63.016 308.428 66.1904 304.735C66.1904 304.735 81.1236 287.299 115.014 255.763C140.957 231.623 181.945 235.249 198.845 236.737C275.892 243.542 320.96 315.154 331.858 344.173C334.574 351.414 341.448 372.722 344.153 397.891C345.215 407.728 345.741 412.652 345.271 419.154C344.444 430.636 341.918 451.609 341.918 451.609C341.37 456.13 340.957 459.443 343.036 461.681C346.121 464.993 351.765 462.8 359.802 462.8C367.962 462.8 373.718 465.072 382.157 468.396C400.309 475.547 401.405 484.254 410.101 484.063C419.836 483.851 422.541 472.839 434.691 461.681C454.777 443.215 481.548 441.917 489.461 441.537C489.461 441.537 523.452 439.892 552.056 460.562C562.562 468.161 567.704 473.991 567.704 473.991C574.399 481.59 574.489 484.914 578.725 486.391C585.812 488.853 590.763 481.411 603.472 477.349C611.911 474.651 618.417 475.177 631.416 476.229C635.306 476.543 652.787 478.143 669.42 485.182C707.792 501.432 725.822 539.963 728.057 544.91C742.398 576.682 749.048 628.43 725.307 646.336C711.771 656.542 694.826 650.868 668.302 646.336C623.86 638.748 578.133 645.81 533.054 645.217C359.567 642.945 -102.333 804.546 -288.495 656.408C-475.708 507.453 -342.159 78.6616 -306.39 69.9884Z" fill="#FFE3ED"/>
</g>
<g filter="url(#filter1_d_411_2371)">
<path d="M1454.85 334.344C1484.64 302.144 1533.4 288.994 1575.34 301.844C1587.09 261.804 1621.44 229.244 1662.05 219.654C1688.99 213.294 1720.28 217.834 1739.07 238.154C1737.88 204.654 1756.45 173.604 1778.08 147.994C1816.28 102.784 1871.76 66.0139 1930.68 71.5539C1942.44 72.6639 1954.27 75.5339 1964.22 81.9039C1991.55 99.3839 1996.96 136.544 1997.77 168.974C1999.75 248.324 1990.29 327.464 1980.85 406.274C1979.9 414.174 1978.92 422.214 1975.6 429.454C1969.07 443.704 1954.26 452.734 1939.01 456.364C1923.76 459.994 1907.85 459.044 1892.19 458.374C1836.43 455.994 1780.49 457.504 1724.94 462.894C1637.5 471.384 1550.09 489.494 1462.56 481.984C1424.6 478.724 1425.26 451.374 1424.08 419.404C1422.94 388.564 1433.8 357.084 1454.84 334.344H1454.85Z" fill="#ADC9FF"/>
</g>
<g filter="url(#filter2_d_411_2371)">
<path d="M1414.1 508.856C1408.1 502.306 1427.95 473.436 1443.1 455.856C1453.19 444.146 1470.99 426.026 1497.1 411.856C1510.65 404.496 1519.91 401.746 1523.1 400.856C1526.43 399.926 1541.64 395.826 1561.1 396.856C1571.28 397.396 1576.37 397.666 1583.1 399.856C1589.46 401.926 1591.61 403.826 1595.1 402.856C1600.9 401.246 1601.64 394.136 1607.1 384.856C1608.71 382.116 1615.24 371.536 1626.1 364.856C1628.38 363.456 1643.23 354.616 1660.1 358.856C1674.97 362.596 1684.1 372.856 1684.1 372.856C1687.84 377.056 1689.47 380.686 1693.1 380.856C1697.22 381.046 1699 376.536 1707.1 370.856C1711.73 367.606 1715.68 365.906 1718.1 364.856C1727.92 360.616 1736.55 360.046 1740.69 359.816C1743.24 359.676 1752.42 359.286 1764.1 361.856C1775.04 364.266 1778.95 367.236 1782.1 364.856C1785.09 362.586 1783.63 358.336 1785.1 348.856C1785.1 348.856 1785.99 343.146 1790.1 331.856C1797.21 312.346 1816.78 294.656 1822.1 289.856C1824.76 287.456 1840.54 273.416 1864.1 262.856C1875.49 257.756 1883.18 255.926 1891.1 255.856C1897.59 255.796 1903.49 255.736 1910.1 258.856C1915.85 261.566 1917.49 264.496 1921.1 263.856C1926.31 262.936 1926.22 256.266 1933.1 253.856C1937.53 252.306 1940.88 253.916 1942.1 251.856C1943.23 249.956 1941.28 247.026 1940.1 244.856C1938.18 241.336 1937.49 235.516 1936.1 223.856C1935.01 214.746 1933.69 203.586 1936.1 189.856C1938.15 178.216 1939.79 168.886 1947.1 162.856C1956.81 154.856 1971.11 157.136 1974.1 157.856C1990.33 161.766 1997.39 188.256 2001.36 201.606C2010.26 231.536 2014.07 263.116 2015.8 294.206C2019.29 357.016 2017.4 388.556 2008.09 421.946C2001.32 446.196 1986.05 500.956 1950.1 509.846C1945.79 510.916 1944.75 510.436 1926.1 509.846H1633.1C1545.43 509.766 1534.13 509.566 1515.1 509.846C1506.21 509.976 1488.31 510.316 1468.47 510.046C1460.21 509.926 1457.36 509.786 1450.1 509.846C1447.12 509.876 1437.11 509.986 1426.1 509.846C1415.32 509.716 1414.68 509.476 1414.1 508.846V508.856Z" fill="#FFE3ED"/>
</g>
<defs>
<filter id="filter0_d_411_2371" x="-386" y="43" width="1173" height="699" filterUnits="userSpaceOnUse" color-interpolation-filters="sRGB">
<feFlood flood-opacity="0" result="BackgroundImageFix"/>
<feColorMatrix in="SourceAlpha" type="matrix" values="0 0 0 0 0 0 0 0 0 0 0 0 0 0 0 0 0 0 127 0" result="hardAlpha"/>
<feOffset dx="23"/>
<feGaussianBlur stdDeviation="11.5"/>
<feColorMatrix type="matrix" values="0 0 0 0 0.027451 0 0 0 0 0.231373 0 0 0 0 0.392157 0 0 0 0.44 0"/>
<feBlend mode="normal" in2="BackgroundImageFix" result="effect1_dropShadow_411_2371"/>
<feBlend mode="normal" in="SourceGraphic" in2="effect1_dropShadow_411_2371" result="shape"/>
</filter>
<filter id="filter1_d_411_2371" x="1424" y="48" width="620.036" height="458.768" filterUnits="userSpaceOnUse" color-interpolation-filters="sRGB">
<feFlood flood-opacity="0" result="BackgroundImageFix"/>
<feColorMatrix in="SourceAlpha" type="matrix" values="0 0 0 0 0 0 0 0 0 0 0 0 0 0 0 0 0 0 127 0" result="hardAlpha"/>
<feOffset dx="23"/>
<feGaussianBlur stdDeviation="11.5"/>
<feColorMatrix type="matrix" values="0 0 0 0 0.027451 0 0 0 0 0.231373 0 0 0 0 0.392157 0 0 0 0.44 0"/>
<feBlend mode="normal" in2="BackgroundImageFix" result="effect1_dropShadow_411_2371"/>
<feBlend mode="normal" in="SourceGraphic" in2="effect1_dropShadow_411_2371" result="shape"/>
</filter>
<filter id="filter2_d_411_2371" x="1413" y="134" width="650.432" height="399.481" filterUnits="userSpaceOnUse" color-interpolation-filters="sRGB">
<feFlood flood-opacity="0" result="BackgroundImageFix"/>
<feColorMatrix in="SourceAlpha" type="matrix" values="0 0 0 0 0 0 0 0 0 0 0 0 0 0 0 0 0 0 127 0" result="hardAlpha"/>
<feOffset dx="23"/>
<feGaussianBlur stdDeviation="11.5"/>
<feColorMatrix type="matrix" values="0 0 0 0 0.027451 0 0 0 0 0.231373 0 0 0 0 0.392157 0 0 0 0.44 0"/>
<feBlend mode="normal" in2="BackgroundImageFix" result="effect1_dropShadow_411_2371"/>
<feBlend mode="normal" in="SourceGraphic" in2="effect1_dropShadow_411_2371" result="shape"/>
</filter>
</defs>
</svg>
