<svg width="1920" height="639" viewBox="0 0 1920 639" fill="none" xmlns="http://www.w3.org/2000/svg">
<g filter="url(#filter0_d_618_2103)">
<path d="M-122.39 39.9884C-91.8645 32.591 -60.9139 37.7502 -60.9139 37.7502C-38.5589 41.6783 -21.4572 50.2284 -3.90851 59.0135C10.041 65.9968 18.2901 70.1263 26.2708 78.0385C30.5742 82.3136 35.2911 86.1633 39.6839 90.3489C45.8092 96.1795 48 98.552 51.9792 99.3018C56.9532 100.242 59.9935 97.7351 65.3922 95.9445C74.2113 93.0236 81.9238 94.4448 89.9828 95.9445C109.856 99.6264 128.109 116.044 135.878 135.651C140.908 148.342 140.494 159.69 140.282 164.211C139.891 172.593 139.432 182.329 133.575 192.189C129.372 199.262 124.387 203.033 125.751 207.857C126.824 211.662 130.468 211.18 133.575 215.69C139.03 223.591 132.815 232.276 136.928 235.835C140.841 239.226 147.536 232.265 159.284 232.477C169.22 232.656 176.575 237.849 181.639 241.43C193.453 249.779 191.855 255.688 205.111 269.408C213.148 277.723 221.956 286.844 232.396 286.128C241.058 285.535 247.016 278.428 250.19 274.735C250.19 274.735 265.124 257.299 299.014 225.763C324.957 201.623 365.945 205.249 382.845 206.737C459.892 213.542 504.96 285.154 515.858 314.173C518.574 321.414 525.448 342.722 528.153 367.891C529.215 377.728 529.741 382.652 529.271 389.154C528.444 400.636 525.918 421.609 525.918 421.609C525.37 426.13 524.957 429.443 527.036 431.681C530.121 434.993 535.765 432.8 543.802 432.8C551.962 432.8 557.718 435.072 566.157 438.396C584.309 445.547 585.405 454.254 594.101 454.063C603.836 453.851 606.541 442.839 618.691 431.681C638.777 413.215 665.548 411.917 673.461 411.537C673.461 411.537 707.452 409.892 736.056 430.562C746.562 438.161 751.704 443.991 751.704 443.991C758.399 451.59 758.489 454.914 762.725 456.391C769.812 458.853 774.763 451.411 787.472 447.349C795.911 444.651 802.417 445.177 815.416 446.229C819.306 446.543 836.787 448.143 853.42 455.182C891.792 471.432 909.822 509.963 912.057 514.91C926.398 546.682 933.048 598.43 909.307 616.336C895.771 626.542 878.826 620.868 852.302 616.336C807.86 608.748 762.133 615.81 717.054 615.217C543.567 612.945 81.6667 774.546 -104.495 626.408C-291.708 477.453 -158.159 48.6616 -122.39 39.9884Z" fill="#ADC9FF"/>
</g>
<g filter="url(#filter1_d_618_2103)">
<path d="M-252.39 227.988C-221.865 220.591 -190.914 225.75 -190.914 225.75C-168.559 229.678 -151.457 238.228 -133.909 247.013C-119.959 253.997 -111.71 258.126 -103.729 266.039C-99.4258 270.314 -94.7089 274.163 -90.3161 278.349C-84.1908 284.179 -82 286.552 -78.0208 287.302C-73.0468 288.242 -70.0065 285.735 -64.6078 283.944C-55.7887 281.024 -48.0762 282.445 -40.0172 283.944C-20.1435 287.626 -1.89062 304.044 5.87778 323.651C10.9077 336.342 10.4941 347.69 10.2817 352.211C9.8905 360.593 9.43222 370.329 3.5752 380.189C-0.627563 387.262 -5.61273 391.033 -4.24908 395.857C-3.17603 399.662 0.467834 399.18 3.5752 403.69C9.02985 411.591 2.81512 420.276 6.92847 423.835C10.8406 427.226 17.5359 420.265 29.2835 420.477C39.2204 420.656 46.5752 425.849 51.6386 429.43C63.4533 437.779 61.8549 443.688 75.1114 457.408C83.1481 465.723 91.956 474.844 102.396 474.128C111.058 473.535 117.016 466.428 120.19 462.735C120.19 462.735 135.124 445.299 169.014 413.763C194.957 389.623 235.945 393.249 252.845 394.737C329.892 401.542 374.96 473.154 385.858 502.173C388.574 509.414 395.448 530.722 398.153 555.891C399.215 565.728 399.741 570.652 399.271 577.154C398.444 588.636 395.918 609.609 395.918 609.609C395.37 614.13 394.957 617.443 397.036 619.681C400.121 622.993 405.765 620.8 413.802 620.8C421.962 620.8 427.718 623.072 436.157 626.396C454.309 633.547 455.405 642.254 464.101 642.063C473.836 641.851 476.541 630.839 488.691 619.681C508.777 601.215 535.548 599.917 543.461 599.537C543.461 599.537 577.452 597.892 606.056 618.562C616.562 626.161 621.704 631.991 621.704 631.991C628.399 639.59 628.489 642.914 632.725 644.391C639.812 646.853 644.763 639.411 657.472 635.349C665.911 632.651 672.417 633.177 685.416 634.229C689.306 634.543 706.787 636.143 723.42 643.182C761.792 659.432 779.822 697.963 782.057 702.91C796.398 734.682 803.048 786.43 779.307 804.336C765.771 814.542 748.826 808.868 722.302 804.336C677.86 796.748 632.133 803.81 587.054 803.217C413.567 800.945 -48.3333 962.546 -234.495 814.408C-421.708 665.453 -288.159 236.662 -252.39 227.988Z" fill="#FFE3ED"/>
</g>
<g filter="url(#filter2_d_618_2103)">
<path d="M1377.25 437.28C1407.04 405.08 1455.8 391.93 1497.74 404.78C1509.49 364.74 1543.84 332.18 1584.45 322.59C1611.39 316.23 1642.68 320.77 1661.47 341.09C1660.28 307.59 1678.85 276.54 1700.48 250.93C1738.68 205.72 1794.16 168.95 1853.08 174.49C1864.84 175.6 1876.67 178.47 1886.62 184.84C1913.95 202.32 1919.36 239.48 1920.17 271.91C1922.15 351.26 1912.69 430.4 1903.25 509.21C1902.3 517.11 1901.32 525.15 1898 532.39C1891.47 546.64 1876.66 555.67 1861.41 559.3C1846.16 562.93 1830.25 561.98 1814.59 561.31C1758.83 558.93 1702.89 560.44 1647.34 565.83C1559.9 574.32 1472.49 592.43 1384.96 584.92C1347 581.66 1347.66 554.31 1346.48 522.34C1345.34 491.5 1356.2 460.02 1377.24 437.28H1377.25Z" fill="#ADC9FF"/>
</g>
<g filter="url(#filter3_d_618_2103)">
<path d="M1370 635C1364 628.45 1383.85 599.58 1399 582C1409.09 570.29 1426.89 552.17 1453 538C1466.55 530.64 1475.81 527.89 1479 527C1482.33 526.07 1497.54 521.97 1517 523C1527.18 523.54 1532.27 523.81 1539 526C1545.36 528.07 1547.51 529.97 1551 529C1556.8 527.39 1557.54 520.28 1563 511C1564.61 508.26 1571.14 497.68 1582 491C1584.28 489.6 1599.13 480.76 1616 485C1630.87 488.74 1640 499 1640 499C1643.74 503.2 1645.37 506.83 1649 507C1653.12 507.19 1654.9 502.68 1663 497C1667.63 493.75 1671.58 492.05 1674 491C1683.82 486.76 1692.45 486.19 1696.59 485.96C1699.14 485.82 1708.32 485.43 1720 488C1730.94 490.41 1734.85 493.38 1738 491C1740.99 488.73 1739.53 484.48 1741 475C1741 475 1741.89 469.29 1746 458C1753.11 438.49 1772.68 420.8 1778 416C1780.66 413.6 1796.44 399.56 1820 389C1831.39 383.9 1839.08 382.07 1847 382C1853.49 381.94 1859.39 381.88 1866 385C1871.75 387.71 1873.39 390.64 1877 390C1882.21 389.08 1882.12 382.41 1889 380C1893.43 378.45 1896.78 380.06 1898 378C1899.13 376.1 1897.18 373.17 1896 371C1894.08 367.48 1893.39 361.66 1892 350C1890.91 340.89 1889.59 329.73 1892 316C1894.05 304.36 1895.69 295.03 1903 289C1912.71 281 1927.01 283.28 1930 284C1946.23 287.91 1953.29 314.4 1957.26 327.75C1966.16 357.68 1969.97 389.26 1971.7 420.35C1975.19 483.16 1973.3 514.7 1963.99 548.09C1957.22 572.34 1941.95 627.1 1906 635.99C1901.69 637.06 1900.65 636.58 1882 635.99H1589C1501.33 635.91 1490.03 635.71 1471 635.99C1462.11 636.12 1444.21 636.46 1424.37 636.19C1416.11 636.07 1413.26 635.93 1406 635.99C1403.02 636.02 1393.01 636.13 1382 635.99C1371.22 635.86 1370.58 635.62 1370 634.99V635Z" fill="#FFE3ED"/>
</g>
<g filter="url(#filter4_d_618_2103)">
<path d="M1514 636C1517.8 607.73 1500.95 592.51 1475.28 580.09C1449.61 567.66 1416.26 573.59 1396.44 594.1C1370.45 549.45 1314.19 524.76 1263.73 535.84C1239.7 465.08 1167.8 413.48 1093.07 413.39C1018.34 413.3 946.3 464.71 922.1 535.41C884.06 520.93 845.01 506.62 804.32 505.63C763.63 504.64 720.34 519.31 696.92 552.61C661.91 511.03 608.2 482.85 554.08 487.91C499.96 492.97 449.07 536.48 444.57 590.65C415.67 576.93 383.42 566.54 351.97 572.4C320.52 578.26 291.16 604.91 291.72 636.9C610.63 637.11 928.17 640.05 1247.09 640.26L1514 636Z" fill="#F0F8FF"/>
</g>
<g filter="url(#filter5_d_618_2103)">
<path d="M1367.1 238.78C1370.52 237.58 1374.45 237.74 1377.17 240.05C1377.65 240.45 1378.23 240.95 1378.81 240.74C1379.06 240.65 1379.24 240.44 1379.42 240.25C1386.24 232.58 1397.43 227.99 1407.53 227.14C1417.31 226.32 1426.62 229.55 1432.87 237.2C1438.73 244.37 1439.85 252.81 1440.1 261.76C1443.69 262.12 1447.11 264 1449.33 266.85C1451.55 269.7 1452.54 273.47 1452 277.04C1451.95 277.4 1451.88 277.78 1452.02 278.12C1452.14 278.4 1452.39 278.61 1452.62 278.81C1456.71 282.15 1461 286.12 1461 291.95C1461 299 1458.67 305.65 1452.21 309.5C1449.02 311.4 1445.62 311.93 1441.96 311.69C1437.53 311.39 1437.7 315.03 1435.07 317.77C1432.56 320.39 1429.52 322.46 1426.38 324.27C1420.16 327.85 1413.28 330.54 1406.12 330.95C1397.12 331.47 1388.62 327.96 1382.85 321C1376.99 323.92 1368.87 319.74 1367.84 313.28C1362.64 317.6 1354.36 316.67 1349.2 312.31C1344.04 307.94 1341.7 300.94 1341.55 294.18C1341.4 287.6 1343.89 280.18 1350.5 277.62C1348.99 275.19 1348.1 272.22 1348.78 269.44C1349.72 265.63 1353.84 263.35 1357.56 264.68C1355.57 263.66 1354.8 261.25 1354.26 259.08C1353.77 257.09 1353.31 255 1353.83 253.02C1355.1 248.18 1360.53 242.41 1364.71 239.92C1365.46 239.47 1366.27 239.09 1367.11 238.8L1367.1 238.78Z" fill="white"/>
</g>
<g filter="url(#filter6_d_618_2103)">
<path d="M138.37 50.69C146.306 50.69 152.74 44.2563 152.74 36.32C152.74 28.3837 146.306 21.95 138.37 21.95C130.434 21.95 124 28.3837 124 36.32C124 44.2563 130.434 50.69 138.37 50.69Z" fill="white"/>
</g>
<g filter="url(#filter7_d_618_2103)">
<path d="M1597.37 419.69C1605.31 419.69 1611.74 413.256 1611.74 405.32C1611.74 397.384 1605.31 390.95 1597.37 390.95C1589.43 390.95 1583 397.384 1583 405.32C1583 413.256 1589.43 419.69 1597.37 419.69Z" fill="white"/>
</g>
<g filter="url(#filter8_d_618_2103)">
<path d="M534.37 380C519.31 380 506.76 390.74 503.96 404.98C503.76 404.98 503.57 404.95 503.37 404.95C495.44 404.95 489 411.38 489 419.32C489 427.26 495.43 433.69 503.37 433.69C506.21 433.69 508.84 432.86 511.07 431.44C516.75 437.91 525.08 442.01 534.37 442.01C551.49 442.01 565.37 428.13 565.37 411.01C565.37 393.89 551.49 380.01 534.37 380.01V380Z" fill="white"/>
</g>
<defs>
<filter id="filter0_d_618_2103" x="-202" y="13" width="1173" height="699" filterUnits="userSpaceOnUse" color-interpolation-filters="sRGB">
<feFlood flood-opacity="0" result="BackgroundImageFix"/>
<feColorMatrix in="SourceAlpha" type="matrix" values="0 0 0 0 0 0 0 0 0 0 0 0 0 0 0 0 0 0 127 0" result="hardAlpha"/>
<feOffset dx="23"/>
<feGaussianBlur stdDeviation="11.5"/>
<feColorMatrix type="matrix" values="0 0 0 0 0.027451 0 0 0 0 0.231373 0 0 0 0 0.392157 0 0 0 0.44 0"/>
<feBlend mode="normal" in2="BackgroundImageFix" result="effect1_dropShadow_618_2103"/>
<feBlend mode="normal" in="SourceGraphic" in2="effect1_dropShadow_618_2103" result="shape"/>
</filter>
<filter id="filter1_d_618_2103" x="-332" y="201" width="1173" height="699" filterUnits="userSpaceOnUse" color-interpolation-filters="sRGB">
<feFlood flood-opacity="0" result="BackgroundImageFix"/>
<feColorMatrix in="SourceAlpha" type="matrix" values="0 0 0 0 0 0 0 0 0 0 0 0 0 0 0 0 0 0 127 0" result="hardAlpha"/>
<feOffset dx="23"/>
<feGaussianBlur stdDeviation="11.5"/>
<feColorMatrix type="matrix" values="0 0 0 0 0.027451 0 0 0 0 0.231373 0 0 0 0 0.392157 0 0 0 0.44 0"/>
<feBlend mode="normal" in2="BackgroundImageFix" result="effect1_dropShadow_618_2103"/>
<feBlend mode="normal" in="SourceGraphic" in2="effect1_dropShadow_618_2103" result="shape"/>
</filter>
<filter id="filter2_d_618_2103" x="1346.4" y="150.936" width="620.036" height="458.767" filterUnits="userSpaceOnUse" color-interpolation-filters="sRGB">
<feFlood flood-opacity="0" result="BackgroundImageFix"/>
<feColorMatrix in="SourceAlpha" type="matrix" values="0 0 0 0 0 0 0 0 0 0 0 0 0 0 0 0 0 0 127 0" result="hardAlpha"/>
<feOffset dx="23"/>
<feGaussianBlur stdDeviation="11.5"/>
<feColorMatrix type="matrix" values="0 0 0 0 0.027451 0 0 0 0 0.231373 0 0 0 0 0.392157 0 0 0 0.44 0"/>
<feBlend mode="normal" in2="BackgroundImageFix" result="effect1_dropShadow_618_2103"/>
<feBlend mode="normal" in="SourceGraphic" in2="effect1_dropShadow_618_2103" result="shape"/>
</filter>
<filter id="filter3_d_618_2103" x="1368.9" y="260.144" width="650.432" height="399.481" filterUnits="userSpaceOnUse" color-interpolation-filters="sRGB">
<feFlood flood-opacity="0" result="BackgroundImageFix"/>
<feColorMatrix in="SourceAlpha" type="matrix" values="0 0 0 0 0 0 0 0 0 0 0 0 0 0 0 0 0 0 127 0" result="hardAlpha"/>
<feOffset dx="23"/>
<feGaussianBlur stdDeviation="11.5"/>
<feColorMatrix type="matrix" values="0 0 0 0 0.027451 0 0 0 0 0.231373 0 0 0 0 0.392157 0 0 0 0.44 0"/>
<feBlend mode="normal" in2="BackgroundImageFix" result="effect1_dropShadow_618_2103"/>
<feBlend mode="normal" in="SourceGraphic" in2="effect1_dropShadow_618_2103" result="shape"/>
</filter>
<filter id="filter4_d_618_2103" x="291.712" y="390.39" width="1268.82" height="272.87" filterUnits="userSpaceOnUse" color-interpolation-filters="sRGB">
<feFlood flood-opacity="0" result="BackgroundImageFix"/>
<feColorMatrix in="SourceAlpha" type="matrix" values="0 0 0 0 0 0 0 0 0 0 0 0 0 0 0 0 0 0 127 0" result="hardAlpha"/>
<feOffset dx="23"/>
<feGaussianBlur stdDeviation="11.5"/>
<feColorMatrix type="matrix" values="0 0 0 0 0.027451 0 0 0 0 0.231373 0 0 0 0 0.392157 0 0 0 0.44 0"/>
<feBlend mode="normal" in2="BackgroundImageFix" result="effect1_dropShadow_618_2103"/>
<feBlend mode="normal" in="SourceGraphic" in2="effect1_dropShadow_618_2103" result="shape"/>
</filter>
<filter id="filter5_d_618_2103" x="1334.54" y="206.016" width="161.456" height="145.985" filterUnits="userSpaceOnUse" color-interpolation-filters="sRGB">
<feFlood flood-opacity="0" result="BackgroundImageFix"/>
<feColorMatrix in="SourceAlpha" type="matrix" values="0 0 0 0 0 0 0 0 0 0 0 0 0 0 0 0 0 0 127 0" result="hardAlpha"/>
<feOffset dx="14"/>
<feGaussianBlur stdDeviation="10.5"/>
<feColorMatrix type="matrix" values="0 0 0 0 0.0627451 0 0 0 0 0.211765 0 0 0 0 0.427451 0 0 0 1 0"/>
<feBlend mode="normal" in2="BackgroundImageFix" result="effect1_dropShadow_618_2103"/>
<feBlend mode="normal" in="SourceGraphic" in2="effect1_dropShadow_618_2103" result="shape"/>
</filter>
<filter id="filter6_d_618_2103" x="117" y="0.950012" width="70.7402" height="70.74" filterUnits="userSpaceOnUse" color-interpolation-filters="sRGB">
<feFlood flood-opacity="0" result="BackgroundImageFix"/>
<feColorMatrix in="SourceAlpha" type="matrix" values="0 0 0 0 0 0 0 0 0 0 0 0 0 0 0 0 0 0 127 0" result="hardAlpha"/>
<feOffset dx="14"/>
<feGaussianBlur stdDeviation="10.5"/>
<feColorMatrix type="matrix" values="0 0 0 0 0.0627451 0 0 0 0 0.211765 0 0 0 0 0.427451 0 0 0 1 0"/>
<feBlend mode="normal" in2="BackgroundImageFix" result="effect1_dropShadow_618_2103"/>
<feBlend mode="normal" in="SourceGraphic" in2="effect1_dropShadow_618_2103" result="shape"/>
</filter>
<filter id="filter7_d_618_2103" x="1576" y="369.95" width="70.7402" height="70.74" filterUnits="userSpaceOnUse" color-interpolation-filters="sRGB">
<feFlood flood-opacity="0" result="BackgroundImageFix"/>
<feColorMatrix in="SourceAlpha" type="matrix" values="0 0 0 0 0 0 0 0 0 0 0 0 0 0 0 0 0 0 127 0" result="hardAlpha"/>
<feOffset dx="14"/>
<feGaussianBlur stdDeviation="10.5"/>
<feColorMatrix type="matrix" values="0 0 0 0 0.0627451 0 0 0 0 0.211765 0 0 0 0 0.427451 0 0 0 1 0"/>
<feBlend mode="normal" in2="BackgroundImageFix" result="effect1_dropShadow_618_2103"/>
<feBlend mode="normal" in="SourceGraphic" in2="effect1_dropShadow_618_2103" result="shape"/>
</filter>
<filter id="filter8_d_618_2103" x="482" y="359" width="118.37" height="104.01" filterUnits="userSpaceOnUse" color-interpolation-filters="sRGB">
<feFlood flood-opacity="0" result="BackgroundImageFix"/>
<feColorMatrix in="SourceAlpha" type="matrix" values="0 0 0 0 0 0 0 0 0 0 0 0 0 0 0 0 0 0 127 0" result="hardAlpha"/>
<feOffset dx="14"/>
<feGaussianBlur stdDeviation="10.5"/>
<feColorMatrix type="matrix" values="0 0 0 0 0.0627451 0 0 0 0 0.211765 0 0 0 0 0.427451 0 0 0 1 0"/>
<feBlend mode="normal" in2="BackgroundImageFix" result="effect1_dropShadow_618_2103"/>
<feBlend mode="normal" in="SourceGraphic" in2="effect1_dropShadow_618_2103" result="shape"/>
</filter>
</defs>
</svg>
