<svg width="108" height="161" viewBox="0 0 108 161" fill="none" xmlns="http://www.w3.org/2000/svg">
<path d="M106.96 31.2538V28.3053C105.535 28.2134 104.409 27.2278 104.409 26.0084H101.6C101.6 27.2863 100.364 28.322 98.8397 28.322C97.3153 28.322 96.0798 27.2863 96.0798 26.0084H93.2601C93.2601 27.2863 92.0246 28.322 90.5001 28.322C88.9757 28.322 87.7402 27.2863 87.7402 26.0084H84.9205C84.9205 27.2863 83.685 28.322 82.1605 28.322C82.0908 28.322 82.031 28.3053 81.9613 28.3053C80.5365 28.2134 79.4106 27.2278 79.4106 26.0084H76.5908C76.5908 27.2863 75.3553 28.322 73.8309 28.322C72.3065 28.322 71.071 27.2863 71.071 26.0084H68.2512C68.2512 27.2863 67.0157 28.322 65.4913 28.322C63.9669 28.322 62.7314 27.2863 62.7314 26.0084H59.9017C59.9017 27.2863 58.6662 28.322 57.1417 28.322C55.6173 28.322 54.3818 27.2863 54.3818 26.0084H51.5521C51.5521 27.2863 50.3166 28.322 48.7922 28.322C47.2677 28.322 46.0322 27.2863 46.0322 26.0084H43.2125C43.2125 27.2863 41.977 28.322 40.4526 28.322C38.9281 28.322 37.6926 27.2863 37.6926 26.0084H34.8729C34.8729 27.2863 33.6374 28.322 32.113 28.322C30.5885 28.322 29.353 27.2863 29.353 26.0084H26.5233C26.5233 26.1002 26.5134 26.1921 26.5034 26.284C26.5034 26.309 26.5034 26.3257 26.5034 26.3508C26.4835 26.4427 26.4635 26.5429 26.4337 26.6264C26.4337 26.6431 26.4237 26.6682 26.4137 26.6849C26.1945 27.2863 25.6864 27.7791 25.0288 28.0547C24.6502 28.2218 24.2317 28.3137 23.7833 28.3137C22.2589 28.3137 21.0234 27.2779 21.0234 26H18.2037C18.2037 27.2779 16.9682 28.3137 15.4437 28.3137C13.9193 28.3137 12.6838 27.2779 12.6838 26H9.86405C9.86405 27.2779 8.62855 28.3137 7.10411 28.3137C5.57966 28.3137 4.34417 27.2779 4.34417 26H1.51448C1.51448 26.9021 0.896732 27.6705 0 28.0547V31.3206C1.19564 31.5712 2.08241 32.4732 2.08241 33.5591C2.08241 34.6449 1.19564 35.5386 0 35.7975V38.3117C1.19564 38.5622 2.08241 39.4643 2.08241 40.5501C2.08241 41.636 1.19564 42.5297 0 42.7886V45.3027C1.19564 45.5533 2.08241 46.4554 2.08241 47.5412C2.08241 48.6271 1.19564 49.5208 0 49.7797V52.2938C1.19564 52.5444 2.08241 53.4465 2.08241 54.5323C2.08241 55.6182 1.19564 56.5119 0 56.7708V59.2849C1.19564 59.5438 2.08241 60.4376 2.08241 61.5234C2.08241 62.6092 1.19564 63.503 0 63.7619V66.276C1.19564 66.5266 2.08241 67.4287 2.08241 68.5145C2.08241 69.6003 1.19564 70.494 0 70.753V73.2671C1.19564 73.5177 2.08241 74.4197 2.08241 75.5056C2.08241 76.5914 1.19564 77.4851 0 77.7441V80.2582C1.19564 80.5088 2.08241 81.4108 2.08241 82.4967C2.08241 83.5825 1.19564 84.4762 0 84.7351V87.2493C1.19564 87.4998 2.08241 88.4019 2.08241 89.4878C2.08241 90.5736 1.19564 91.4673 0 91.7262V94.2487C1.19564 94.4993 2.08241 95.4014 2.08241 96.4872C2.08241 97.573 1.19564 98.4667 0 98.7257V101.248C1.19564 101.499 2.08241 102.401 2.08241 103.487C2.08241 104.572 1.19564 105.466 0 105.725V108.248C1.19564 108.498 2.08241 109.4 2.08241 110.486C2.08241 111.572 1.19564 112.474 0 112.725V115.239C1.19564 115.498 2.08241 116.391 2.08241 117.477C2.08241 118.563 1.19564 119.457 0 119.716V122.23C1.19564 122.48 2.08241 123.382 2.08241 124.468C2.08241 125.554 1.19564 126.448 0 126.707V129.221C1.19564 129.48 2.08241 130.373 2.08241 131.459C2.08241 132.545 1.19564 133.447 0 133.698V136.212C1.19564 136.471 2.08241 137.365 2.08241 138.45C2.08241 139.536 1.19564 140.43 0 140.689V143.203C1.19564 143.454 2.08241 144.356 2.08241 145.442C2.08241 146.527 1.19564 147.421 0 147.68V150.194C1.19564 150.445 2.08241 151.347 2.08241 152.433C2.08241 153.518 1.19564 154.42 0 154.671V157.352C0.896732 157.736 1.51448 158.505 1.51448 159.407C1.51448 159.616 1.47463 159.808 1.41484 160H4.43384C4.37406 159.808 4.3342 159.616 4.3342 159.407C4.3342 158.129 5.5697 157.093 7.09414 157.093C8.61859 157.093 9.85408 158.129 9.85408 159.407C9.85408 159.616 9.81423 159.808 9.75445 160H12.7734C12.7137 159.808 12.6738 159.616 12.6738 159.407C12.6738 158.129 13.9093 157.093 15.4337 157.093C16.9582 157.093 18.1937 158.129 18.1937 159.407C18.1937 159.616 18.1538 159.808 18.094 160H21.113C21.0533 159.808 21.0134 159.616 21.0134 159.407C21.0134 158.129 22.2489 157.093 23.7734 157.093C24.2217 157.093 24.6402 157.194 25.0188 157.352C25.6764 157.636 26.1846 158.129 26.4038 158.73C26.4038 158.747 26.4237 158.772 26.4237 158.789C26.4536 158.881 26.4835 158.973 26.4934 159.065C26.4934 159.09 26.4934 159.106 26.4934 159.131C26.5034 159.223 26.5134 159.315 26.5134 159.407C26.5134 159.616 26.4735 159.808 26.4137 160H29.4427C29.3829 159.808 29.3431 159.616 29.3431 159.407C29.3431 158.129 30.5785 157.093 32.103 157.093C33.6274 157.093 34.8629 158.129 34.8629 159.407C34.8629 159.616 34.8231 159.808 34.7633 160H37.7923C37.7325 159.808 37.6926 159.616 37.6926 159.407C37.6926 158.129 38.9281 157.093 40.4526 157.093C41.977 157.093 43.2125 158.129 43.2125 159.407C43.2125 159.616 43.1726 159.808 43.1129 160H46.1418C46.082 159.808 46.0422 159.616 46.0422 159.407C46.0422 158.129 47.2777 157.093 48.8021 157.093C50.3266 157.093 51.5621 158.129 51.5621 159.407C51.5621 159.616 51.5222 159.808 51.4624 160H54.4914C54.4316 159.808 54.3918 159.616 54.3918 159.407C54.3918 158.129 55.6273 157.093 57.1517 157.093C58.6761 157.093 59.9116 158.129 59.9116 159.407C59.9116 159.616 59.8718 159.808 59.812 160H62.841C62.7812 159.808 62.7413 159.616 62.7413 159.407C62.7413 158.129 63.9768 157.093 65.5013 157.093C67.0257 157.093 68.2612 158.129 68.2612 159.407C68.2612 159.616 68.2214 159.808 68.1616 160H71.1905C71.1307 159.808 71.0909 159.616 71.0909 159.407C71.0909 158.129 72.3264 157.093 73.8508 157.093C75.3753 157.093 76.6108 158.129 76.6108 159.407C76.6108 159.616 76.5709 159.808 76.5111 160H79.5401C79.4803 159.808 79.4405 159.616 79.4405 159.407C79.4405 158.188 80.5664 157.202 81.9912 157.11C82.0609 157.11 82.1207 157.093 82.1904 157.093C83.7149 157.093 84.9504 158.129 84.9504 159.407C84.9504 159.616 84.9105 159.808 84.8507 160H87.8697C87.81 159.808 87.7701 159.616 87.7701 159.407C87.7701 158.129 89.0056 157.093 90.53 157.093C92.0545 157.093 93.29 158.129 93.29 159.407C93.29 159.616 93.2501 159.808 93.1903 160H96.2093C96.1496 159.808 96.1097 159.616 96.1097 159.407C96.1097 158.129 97.3452 157.093 98.8696 157.093C100.394 157.093 101.63 158.129 101.63 159.407C101.63 159.616 101.59 159.808 101.53 160H104.549C104.489 159.808 104.449 159.616 104.449 159.407C104.449 158.188 105.575 157.202 107 157.11V154.755C105.476 154.755 104.24 153.719 104.24 152.441C104.24 151.163 105.476 150.127 107 150.127V147.764C105.476 147.764 104.24 146.728 104.24 145.45C104.24 144.172 105.476 143.136 107 143.136V140.772C105.476 140.772 104.24 139.737 104.24 138.459C104.24 137.181 105.476 136.145 107 136.145V133.781C105.476 133.781 104.24 132.746 104.24 131.468C104.24 130.19 105.476 129.154 107 129.154V126.79C105.476 126.79 104.24 125.755 104.24 124.477C104.24 123.199 105.476 122.163 107 122.163V119.799C105.476 119.799 104.24 118.763 104.24 117.486C104.24 116.208 105.476 115.172 107 115.172V112.808C105.476 112.808 104.24 111.772 104.24 110.494C104.24 109.216 105.476 108.181 107 108.181V105.825C105.476 105.825 104.24 104.79 104.24 103.512C104.24 102.234 105.476 101.198 107 101.198V98.8426C105.476 98.8426 104.24 97.8069 104.24 96.529C104.24 95.251 105.476 94.2153 107 94.2153V91.8599C105.476 91.8599 104.24 90.8242 104.24 89.5462C104.24 88.2683 105.476 87.2326 107 87.2326V84.8771C105.476 84.8771 104.24 83.8414 104.24 82.5635C104.24 81.2855 105.476 80.2498 107 80.2498V77.8861C105.476 77.8861 104.24 76.8503 104.24 75.5724C104.24 74.2945 105.476 73.2587 107 73.2587V70.895C105.476 70.895 104.24 69.8593 104.24 68.5813C104.24 67.3034 105.476 66.2677 107 66.2677V63.9039C105.476 63.9039 104.24 62.8682 104.24 61.5902C104.24 60.3123 105.476 59.2766 107 59.2766V56.9128C105.476 56.9128 104.24 55.8771 104.24 54.5991C104.24 53.3212 105.476 52.2855 107 52.2855V49.9217C105.476 49.9217 104.24 48.886 104.24 47.6081C104.24 46.3301 105.476 45.2944 107 45.2944V42.9306C105.476 42.9306 104.24 41.8949 104.24 40.617C104.24 39.339 105.476 38.3033 107 38.3033V35.9395C105.476 35.9395 104.24 34.9038 104.24 33.6259C104.24 32.3479 105.476 31.3122 107 31.3122L106.96 31.2538Z" fill="#5E7EAD"/>
<path d="M95.33 124.54H12V149.04H95.33V124.54Z" fill="#D15552"/>
<path d="M9 32V152H98V32H9ZM96.5985 33.1805V126.304H10.4114V33.1805H96.5985ZM10.4114 150.82V127.476H96.5985V150.82H10.4114Z" fill="white"/>
<path d="M95 35H12V120H95V35Z" fill="#7FBFEC"/>
<path d="M35.3 134.404C35.484 134.404 35.62 134.412 35.708 134.428C35.804 134.436 35.908 134.472 36.02 134.536C36.14 134.6 36.224 134.708 36.272 134.86C36.32 135.012 36.344 135.216 36.344 135.472C36.344 135.728 36.32 135.932 36.272 136.084C36.224 136.236 36.14 136.344 36.02 136.408C35.9 136.464 35.792 136.5 35.696 136.516C35.608 136.524 35.468 136.528 35.276 136.528H31.604V137.74H33.968C34.16 137.74 34.3 137.748 34.388 137.764C34.484 137.772 34.592 137.808 34.712 137.872C34.92 137.992 35.024 138.308 35.024 138.82C35.024 139.38 34.872 139.712 34.568 139.816C34.44 139.856 34.236 139.876 33.956 139.876H31.604V142.144C31.604 142.336 31.596 142.476 31.58 142.564C31.572 142.652 31.536 142.756 31.472 142.876C31.36 143.092 31.048 143.2 30.536 143.2C29.976 143.2 29.648 143.048 29.552 142.744C29.504 142.616 29.48 142.412 29.48 142.132V135.46C29.48 135.052 29.556 134.776 29.708 134.632C29.86 134.48 30.148 134.404 30.572 134.404H35.3ZM43.8526 141.712C43.9726 142 44.0326 142.208 44.0326 142.336C44.0326 142.64 43.7846 142.896 43.2886 143.104C43.0326 143.216 42.8246 143.272 42.6646 143.272C42.5126 143.272 42.3846 143.236 42.2806 143.164C42.1846 143.084 42.1126 143.004 42.0646 142.924C41.9846 142.772 41.6726 142.048 41.1286 140.752L40.7566 140.776H39.2446V142.132C39.2446 142.316 39.2366 142.456 39.2206 142.552C39.2126 142.64 39.1766 142.744 39.1126 142.864C39.0006 143.08 38.6886 143.188 38.1766 143.188C37.6166 143.188 37.2886 143.04 37.1926 142.744C37.1446 142.608 37.1206 142.4 37.1206 142.12V135.46C37.1206 135.276 37.1246 135.14 37.1326 135.052C37.1486 134.956 37.1886 134.848 37.2526 134.728C37.3646 134.512 37.6766 134.404 38.1886 134.404H40.7806C41.4846 134.404 42.1686 134.66 42.8326 135.172C43.1526 135.42 43.4166 135.756 43.6246 136.18C43.8326 136.604 43.9366 137.076 43.9366 137.596C43.9366 138.5 43.6366 139.244 43.0366 139.828C43.2126 140.252 43.4846 140.88 43.8526 141.712ZM39.2446 138.652H40.7806C41.0126 138.652 41.2446 138.564 41.4766 138.388C41.7086 138.212 41.8246 137.948 41.8246 137.596C41.8246 137.244 41.7086 136.98 41.4766 136.804C41.2446 136.62 41.0046 136.528 40.7566 136.528H39.2446V138.652ZM49.7669 135.028L53.0069 141.724C53.1429 141.996 53.2109 142.2 53.2109 142.336C53.2109 142.624 52.9789 142.884 52.5149 143.116C52.2429 143.252 52.0269 143.32 51.8669 143.32C51.7149 143.32 51.5869 143.284 51.4829 143.212C51.3869 143.14 51.3149 143.064 51.2669 142.984C51.2269 142.904 51.1669 142.784 51.0869 142.624L50.4629 141.328H47.1389L46.5149 142.624C46.4349 142.784 46.3709 142.9 46.3229 142.972C46.2829 143.044 46.2109 143.12 46.1069 143.2C46.0109 143.272 45.8829 143.308 45.7229 143.308C45.5709 143.308 45.3589 143.24 45.0869 143.104C44.6229 142.88 44.3909 142.624 44.3909 142.336C44.3909 142.2 44.4589 141.996 44.5949 141.724L47.8349 135.016C47.9229 134.832 48.0549 134.684 48.2309 134.572C48.4149 134.46 48.6069 134.404 48.8069 134.404C49.2389 134.404 49.5589 134.612 49.7669 135.028ZM48.7949 137.908L48.0029 139.552H49.5989L48.7949 137.908ZM59.5427 134.776C59.6227 134.632 59.7387 134.536 59.8907 134.488C60.0427 134.44 60.2307 134.416 60.4547 134.416C60.6867 134.416 60.8707 134.436 61.0067 134.476C61.1507 134.516 61.2547 134.564 61.3187 134.62C61.3907 134.676 61.4427 134.76 61.4747 134.872C61.5227 135 61.5467 135.204 61.5467 135.484V142.144C61.5467 142.336 61.5387 142.476 61.5227 142.564C61.5147 142.652 61.4787 142.756 61.4147 142.876C61.3027 143.092 60.9907 143.2 60.4787 143.2C60.1667 143.2 59.9507 143.176 59.8307 143.128C59.7107 143.08 59.6107 143.004 59.5307 142.9C57.7307 140.5 56.5467 138.932 55.9787 138.196V142.144C55.9787 142.336 55.9707 142.476 55.9547 142.564C55.9467 142.652 55.9107 142.756 55.8467 142.876C55.7347 143.092 55.4227 143.2 54.9107 143.2C54.4147 143.2 54.1107 143.092 53.9987 142.876C53.9347 142.756 53.8947 142.648 53.8787 142.552C53.8707 142.456 53.8667 142.316 53.8667 142.132V135.436C53.8667 135.132 53.9027 134.912 53.9747 134.776C54.0547 134.632 54.1707 134.536 54.3227 134.488C54.4747 134.44 54.6707 134.416 54.9107 134.416C55.1507 134.416 55.3387 134.44 55.4747 134.488C55.6187 134.528 55.7187 134.576 55.7747 134.632C55.8067 134.656 55.8987 134.76 56.0507 134.944C57.7387 137.24 58.8667 138.756 59.4347 139.492V135.436C59.4347 135.132 59.4707 134.912 59.5427 134.776ZM67.9994 140.896L68.2154 140.74C68.4874 140.58 68.6794 140.5 68.7914 140.5C69.0394 140.5 69.3074 140.724 69.5954 141.172C69.7714 141.452 69.8594 141.676 69.8594 141.844C69.8594 142.012 69.8034 142.152 69.6914 142.264C69.5874 142.376 69.4634 142.476 69.3194 142.564C69.1754 142.652 69.0354 142.736 68.8994 142.816C68.7714 142.896 68.5034 143 68.0954 143.128C67.6874 143.256 67.2914 143.32 66.9074 143.32C66.5314 143.32 66.1474 143.272 65.7554 143.176C65.3714 143.072 64.9714 142.904 64.5554 142.672C64.1474 142.432 63.7794 142.144 63.4514 141.808C63.1234 141.464 62.8514 141.028 62.6354 140.5C62.4274 139.964 62.3234 139.384 62.3234 138.76C62.3234 138.136 62.4274 137.572 62.6354 137.068C62.8434 136.556 63.1074 136.136 63.4274 135.808C63.7554 135.472 64.1274 135.192 64.5434 134.968C65.3274 134.536 66.1154 134.32 66.9074 134.32C67.2834 134.32 67.6634 134.38 68.0474 134.5C68.4394 134.612 68.7354 134.728 68.9354 134.848L69.2234 135.016C69.3674 135.104 69.4794 135.176 69.5594 135.232C69.7674 135.4 69.8714 135.592 69.8714 135.808C69.8714 136.016 69.7874 136.236 69.6194 136.468C69.3074 136.9 69.0274 137.116 68.7794 137.116C68.6354 137.116 68.4314 137.028 68.1674 136.852C67.8314 136.58 67.3834 136.444 66.8234 136.444C66.3034 136.444 65.7914 136.624 65.2874 136.984C65.0474 137.16 64.8474 137.408 64.6874 137.728C64.5274 138.048 64.4474 138.412 64.4474 138.82C64.4474 139.22 64.5274 139.58 64.6874 139.9C64.8474 140.22 65.0514 140.472 65.2994 140.656C65.7874 141.008 66.2954 141.184 66.8234 141.184C67.0714 141.184 67.3034 141.152 67.5194 141.088C67.7434 141.024 67.9034 140.96 67.9994 140.896ZM72.772 141.076H76.468C76.652 141.076 76.788 141.084 76.876 141.1C76.972 141.108 77.08 141.144 77.2 141.208C77.416 141.32 77.524 141.632 77.524 142.144C77.524 142.704 77.376 143.032 77.08 143.128C76.944 143.176 76.736 143.2 76.456 143.2H71.704C71.144 143.2 70.816 143.048 70.72 142.744C70.672 142.616 70.648 142.412 70.648 142.132V135.46C70.648 135.052 70.724 134.776 70.876 134.632C71.028 134.48 71.316 134.404 71.74 134.404H76.468C76.652 134.404 76.788 134.412 76.876 134.428C76.972 134.436 77.08 134.472 77.2 134.536C77.416 134.648 77.524 134.96 77.524 135.472C77.524 136.032 77.376 136.36 77.08 136.456C76.944 136.504 76.736 136.528 76.456 136.528H72.772V137.74H75.148C75.332 137.74 75.468 137.748 75.556 137.764C75.652 137.772 75.76 137.808 75.88 137.872C76.096 137.984 76.204 138.296 76.204 138.808C76.204 139.368 76.052 139.696 75.748 139.792C75.612 139.84 75.404 139.864 75.124 139.864H72.772V141.076Z" fill="#FFFDE7"/>
<path d="M95 57V120H12V57C23.5839 64.3588 37.9468 68.7095 53.495 68.7095C69.0432 68.7095 83.4061 64.3588 95 57Z" fill="#5D97D1"/>
<path d="M64.0791 105H44.9209L38 120H44.5643C45.5486 114.256 48.4782 110.55 54.5 110.089C60.5218 110.55 63.4436 114.256 64.4356 120H71L64.0791 105Z" fill="#FFFDE7"/>
<path d="M54.5 103H44V105H54.5H65V103H54.5Z" fill="#D15552"/>
<path d="M63 103H58.2467L58.1588 102.517L56.4173 93.0122H52.5827L50.8412 102.517L50.7533 103H46L46.1358 102.517L49.8346 89.6233L50.25 89H58.75L59.1654 89.6233L62.8642 102.517L63 103Z" fill="#FFFDE7"/>
<path d="M54.5 88H49L49.3467 92L50.308 89.0314H54.5H58.692L59.6533 92L60 88H54.5Z" fill="#D15552"/>
<path d="M55.8226 48H53.1774C53.0308 63.4892 52.2982 78.7808 50 88H59C56.7018 78.7887 55.9692 63.4892 55.8226 48Z" fill="#FFFDE7"/>
<path d="M56.3579 45.5788L55.1849 44.6473L54.5 38L53.8151 44.6473L52.6421 45.5788L52 50.6525L52.9932 52L53.0274 48.9974H54.5H55.9726L56.0068 52L57 50.6525L56.3579 45.5788Z" fill="#D15552"/>
<path d="M33.24 48.29C33.24 48.29 33.24 48.21 33.24 48.18C33.24 46.42 31.81 45 30.06 45C29.61 45 29.19 45.09 28.81 45.26C28.42 45.09 28 45 27.56 45C25.8 45 24.38 46.43 24.38 48.18C24.38 48.22 24.38 48.26 24.38 48.29C23.58 48.57 23 49.33 23 50.22C23 51.35 23.92 52.27 25.05 52.27H32.58C33.71 52.27 34.63 51.35 34.63 50.22C34.63 49.32 34.05 48.56 33.25 48.29H33.24Z" fill="white"/>
<path d="M84.24 64.29C84.24 64.29 84.24 64.21 84.24 64.18C84.24 62.42 82.81 61 81.06 61C80.61 61 80.19 61.09 79.81 61.26C79.42 61.09 79 61 78.56 61C76.8 61 75.38 62.43 75.38 64.18C75.38 64.22 75.38 64.26 75.38 64.29C74.58 64.57 74 65.33 74 66.22C74 67.35 74.92 68.27 76.05 68.27H83.58C84.71 68.27 85.63 67.35 85.63 66.22C85.63 65.32 85.05 64.56 84.25 64.29H84.24Z" fill="white"/>
</svg>
