<svg width="108" height="161" viewBox="0 0 108 161" fill="none" xmlns="http://www.w3.org/2000/svg">
<path d="M106.96 31.2538V28.3053C105.535 28.2134 104.409 27.2278 104.409 26.0084H101.6C101.6 27.2863 100.364 28.322 98.8397 28.322C97.3153 28.322 96.0798 27.2863 96.0798 26.0084H93.2701C93.2701 27.2863 92.0345 28.322 90.5101 28.322C88.9857 28.322 87.7502 27.2863 87.7502 26.0084H84.9304C84.9304 27.2863 83.6949 28.322 82.1705 28.322C82.1008 28.322 82.041 28.3053 81.9712 28.3053C80.5464 28.2134 79.4205 27.2278 79.4205 26.0084H76.6008C76.6008 27.2863 75.3653 28.322 73.8409 28.322C72.3164 28.322 71.0809 27.2863 71.0809 26.0084H68.2612C68.2612 27.2863 67.0257 28.322 65.5013 28.322C63.9768 28.322 62.7413 27.2863 62.7413 26.0084H59.9116C59.9116 27.2863 58.6761 28.322 57.1517 28.322C55.6273 28.322 54.3918 27.2863 54.3918 26.0084H51.5621C51.5621 27.2863 50.3266 28.322 48.8021 28.322C47.2777 28.322 46.0422 27.2863 46.0422 26.0084H43.2225C43.2225 27.2863 41.987 28.322 40.4625 28.322C38.9381 28.322 37.7026 27.2863 37.7026 26.0084H34.8829C34.8829 27.2863 33.6474 28.322 32.1229 28.322C30.5985 28.322 29.363 27.2863 29.363 26.0084H26.5333C26.5333 26.1002 26.5233 26.1921 26.5134 26.284C26.5134 26.309 26.5134 26.3257 26.5134 26.3508C26.4934 26.4427 26.4735 26.5429 26.4436 26.6264C26.4436 26.6431 26.4337 26.6682 26.4237 26.6849C26.2045 27.2863 25.6963 27.7791 25.0387 28.0547C24.6601 28.2218 24.2416 28.3137 23.7933 28.3137C22.2688 28.3137 21.0333 27.2779 21.0333 26H18.2136C18.2136 27.2779 16.9781 28.3137 15.4537 28.3137C13.9292 28.3137 12.6937 27.2779 12.6937 26H9.87401C9.87401 27.2779 8.63851 28.3137 7.11407 28.3137C5.58963 28.3137 4.35413 27.2779 4.35413 26H1.51448C1.51448 26.9021 0.896732 27.6705 0 28.0547V31.3206C1.19564 31.5712 2.08241 32.4732 2.08241 33.5591C2.08241 34.6449 1.19564 35.5386 0 35.7975V38.3117C1.19564 38.5622 2.08241 39.4643 2.08241 40.5501C2.08241 41.636 1.19564 42.5297 0 42.7886V45.3027C1.19564 45.5533 2.08241 46.4554 2.08241 47.5412C2.08241 48.6271 1.19564 49.5208 0 49.7797V52.2938C1.19564 52.5444 2.08241 53.4465 2.08241 54.5323C2.08241 55.6182 1.19564 56.5119 0 56.7708V59.2849C1.19564 59.5438 2.08241 60.4376 2.08241 61.5234C2.08241 62.6092 1.19564 63.503 0 63.7619V66.276C1.19564 66.5266 2.08241 67.4287 2.08241 68.5145C2.08241 69.6003 1.19564 70.494 0 70.753V73.2671C1.19564 73.5177 2.08241 74.4197 2.08241 75.5056C2.08241 76.5914 1.19564 77.4851 0 77.7441V80.2582C1.19564 80.5088 2.08241 81.4108 2.08241 82.4967C2.08241 83.5825 1.19564 84.4762 0 84.7351V87.2493C1.19564 87.4998 2.08241 88.4019 2.08241 89.4878C2.08241 90.5736 1.19564 91.4673 0 91.7262V94.2487C1.19564 94.4993 2.08241 95.4014 2.08241 96.4872C2.08241 97.573 1.19564 98.4667 0 98.7257V101.248C1.19564 101.499 2.08241 102.401 2.08241 103.487C2.08241 104.572 1.19564 105.466 0 105.725V108.248C1.19564 108.498 2.08241 109.4 2.08241 110.486C2.08241 111.572 1.19564 112.474 0 112.725V115.239C1.19564 115.498 2.08241 116.391 2.08241 117.477C2.08241 118.563 1.19564 119.457 0 119.716V122.23C1.19564 122.48 2.08241 123.382 2.08241 124.468C2.08241 125.554 1.19564 126.448 0 126.707V129.221C1.19564 129.48 2.08241 130.373 2.08241 131.459C2.08241 132.545 1.19564 133.447 0 133.698V136.212C1.19564 136.471 2.08241 137.365 2.08241 138.45C2.08241 139.536 1.19564 140.43 0 140.689V143.203C1.19564 143.454 2.08241 144.356 2.08241 145.442C2.08241 146.527 1.19564 147.421 0 147.68V150.194C1.19564 150.445 2.08241 151.347 2.08241 152.433C2.08241 153.518 1.19564 154.42 0 154.671V157.352C0.896732 157.736 1.51448 158.505 1.51448 159.407C1.51448 159.616 1.47463 159.808 1.41484 160H4.43384C4.37406 159.808 4.3342 159.616 4.3342 159.407C4.3342 158.129 5.5697 157.093 7.09414 157.093C8.61859 157.093 9.85408 158.129 9.85408 159.407C9.85408 159.616 9.81423 159.808 9.75445 160H12.7734C12.7137 159.808 12.6738 159.616 12.6738 159.407C12.6738 158.129 13.9093 157.093 15.4337 157.093C16.9582 157.093 18.1937 158.129 18.1937 159.407C18.1937 159.616 18.1538 159.808 18.094 160H21.113C21.0533 159.808 21.0134 159.616 21.0134 159.407C21.0134 158.129 22.2489 157.093 23.7734 157.093C24.2217 157.093 24.6402 157.194 25.0188 157.352C25.6764 157.636 26.1846 158.129 26.4038 158.73C26.4038 158.747 26.4237 158.772 26.4237 158.789C26.4536 158.881 26.4835 158.973 26.4934 159.065C26.4934 159.09 26.4934 159.106 26.4934 159.131C26.5034 159.223 26.5134 159.315 26.5134 159.407C26.5134 159.616 26.4735 159.808 26.4137 160H29.4427C29.3829 159.808 29.3431 159.616 29.3431 159.407C29.3431 158.129 30.5785 157.093 32.103 157.093C33.6274 157.093 34.8629 158.129 34.8629 159.407C34.8629 159.616 34.8231 159.808 34.7633 160H37.7923C37.7325 159.808 37.6926 159.616 37.6926 159.407C37.6926 158.129 38.9281 157.093 40.4526 157.093C41.977 157.093 43.2125 158.129 43.2125 159.407C43.2125 159.616 43.1726 159.808 43.1129 160H46.1418C46.082 159.808 46.0422 159.616 46.0422 159.407C46.0422 158.129 47.2777 157.093 48.8021 157.093C50.3266 157.093 51.5621 158.129 51.5621 159.407C51.5621 159.616 51.5222 159.808 51.4624 160H54.4914C54.4316 159.808 54.3918 159.616 54.3918 159.407C54.3918 158.129 55.6273 157.093 57.1517 157.093C58.6761 157.093 59.9116 158.129 59.9116 159.407C59.9116 159.616 59.8718 159.808 59.812 160H62.841C62.7812 159.808 62.7413 159.616 62.7413 159.407C62.7413 158.129 63.9768 157.093 65.5013 157.093C67.0257 157.093 68.2612 158.129 68.2612 159.407C68.2612 159.616 68.2214 159.808 68.1616 160H71.1905C71.1307 159.808 71.0909 159.616 71.0909 159.407C71.0909 158.129 72.3264 157.093 73.8508 157.093C75.3753 157.093 76.6108 158.129 76.6108 159.407C76.6108 159.616 76.5709 159.808 76.5111 160H79.5401C79.4803 159.808 79.4405 159.616 79.4405 159.407C79.4405 158.188 80.5664 157.202 81.9912 157.11C82.0609 157.11 82.1207 157.093 82.1904 157.093C83.7149 157.093 84.9504 158.129 84.9504 159.407C84.9504 159.616 84.9105 159.808 84.8507 160H87.8697C87.81 159.808 87.7701 159.616 87.7701 159.407C87.7701 158.129 89.0056 157.093 90.53 157.093C92.0545 157.093 93.29 158.129 93.29 159.407C93.29 159.616 93.2501 159.808 93.1903 160H96.2093C96.1496 159.808 96.1097 159.616 96.1097 159.407C96.1097 158.129 97.3452 157.093 98.8696 157.093C100.394 157.093 101.63 158.129 101.63 159.407C101.63 159.616 101.59 159.808 101.53 160H104.549C104.489 159.808 104.449 159.616 104.449 159.407C104.449 158.188 105.575 157.202 107 157.11V154.755C105.476 154.755 104.24 153.719 104.24 152.441C104.24 151.163 105.476 150.127 107 150.127V147.764C105.476 147.764 104.24 146.728 104.24 145.45C104.24 144.172 105.476 143.136 107 143.136V140.772C105.476 140.772 104.24 139.737 104.24 138.459C104.24 137.181 105.476 136.145 107 136.145V133.781C105.476 133.781 104.24 132.746 104.24 131.468C104.24 130.19 105.476 129.154 107 129.154V126.79C105.476 126.79 104.24 125.755 104.24 124.477C104.24 123.199 105.476 122.163 107 122.163V119.799C105.476 119.799 104.24 118.763 104.24 117.486C104.24 116.208 105.476 115.172 107 115.172V112.808C105.476 112.808 104.24 111.772 104.24 110.494C104.24 109.216 105.476 108.181 107 108.181V105.825C105.476 105.825 104.24 104.79 104.24 103.512C104.24 102.234 105.476 101.198 107 101.198V98.8426C105.476 98.8426 104.24 97.8069 104.24 96.529C104.24 95.251 105.476 94.2153 107 94.2153V91.8599C105.476 91.8599 104.24 90.8242 104.24 89.5462C104.24 88.2683 105.476 87.2326 107 87.2326V84.8771C105.476 84.8771 104.24 83.8414 104.24 82.5635C104.24 81.2855 105.476 80.2498 107 80.2498V77.8861C105.476 77.8861 104.24 76.8503 104.24 75.5724C104.24 74.2945 105.476 73.2587 107 73.2587V70.895C105.476 70.895 104.24 69.8593 104.24 68.5813C104.24 67.3034 105.476 66.2677 107 66.2677V63.9039C105.476 63.9039 104.24 62.8682 104.24 61.5902C104.24 60.3123 105.476 59.2766 107 59.2766V56.9128C105.476 56.9128 104.24 55.8771 104.24 54.5991C104.24 53.3212 105.476 52.2855 107 52.2855V49.9217C105.476 49.9217 104.24 48.886 104.24 47.6081C104.24 46.3301 105.476 45.2944 107 45.2944V42.9306C105.476 42.9306 104.24 41.8949 104.24 40.617C104.24 39.339 105.476 38.3033 107 38.3033V35.9395C105.476 35.9395 104.24 34.9038 104.24 33.6259C104.24 32.3479 105.476 31.3122 107 31.3122L106.96 31.2538Z" fill="#F4BBCF"/>
<path d="M95 34H12V119H95V34Z" fill="#4DB6AC"/>
<path d="M95 130H12V148H95V130Z" fill="#D15552"/>
<path d="M9 32V152H98V32H9ZM96.5985 33.1805V126.304H10.4114V33.1805H96.5985ZM10.4114 150.82V127.476H96.5985V150.82H10.4114Z" fill="white"/>
<path d="M95 57V120H12V57C19.9185 62.0305 29.1319 65.6589 39.1421 67.4349C40.0385 67.6048 40.9449 67.7493 41.8513 67.8767C42.3195 67.9532 42.7976 68.0127 43.2757 68.0722C45.0486 68.2931 46.8315 68.463 48.6443 68.565C50.2479 68.6585 51.8615 68.7095 53.495 68.7095C55.1285 68.7095 56.7421 68.6585 58.3457 68.565C59.3418 68.5055 60.3279 68.4291 61.3139 68.3356C61.8618 68.2846 62.4096 68.2336 62.9474 68.1656C63.316 68.1231 63.6845 68.0807 64.053 68.0212C64.1526 68.0212 64.2523 68.0042 64.3519 67.9872C64.3618 67.9872 64.3817 67.9872 64.3917 67.9787C65.5571 67.8257 66.7125 67.6558 67.8579 67.4433C67.9575 67.4264 68.0472 67.4094 68.1468 67.3924C68.2962 67.3669 68.4356 67.3414 68.5751 67.3159C69.4117 67.1544 70.2484 66.9845 71.0751 66.7975C72.5293 66.4746 73.9736 66.1177 75.388 65.7184C77.0912 65.234 78.7745 64.6902 80.418 64.1039C85.6273 62.2429 90.5178 59.8466 95 57Z" fill="#26A69A"/>
<path d="M50.1584 84.2271C59.8472 81.9403 65.8478 72.2322 63.561 62.5433C61.2742 52.8545 51.5661 46.8539 41.8772 49.1407C32.1884 51.4275 26.1878 61.1356 28.4746 70.8245C30.7613 80.5133 40.4695 86.5139 50.1584 84.2271Z" fill="#D15552"/>
<path d="M86 103.821V120H24V103.806C27.3109 100.456 30.6739 96.8127 33.6947 93.1107C38.6425 87.0408 42.6379 80.8243 43.8507 75.5388C43.9251 75.2236 44.0665 74.923 44.2748 74.6518C44.8328 73.8967 45.8447 73.3616 47.0203 73.3322C47.4369 73.3176 47.861 73.3616 48.3 73.4935C49.297 73.7794 50.3982 73.7354 51.3357 73.3542C52.2136 72.9877 53.4561 72.7898 54.9963 73.3469C56.5811 72.7678 57.8682 73.0097 58.7536 73.3909C59.6093 73.7721 60.6658 73.8161 61.5809 73.5228C62.0646 73.3689 62.5259 73.3176 62.9723 73.3322C64.1553 73.3616 65.1672 73.8967 65.7252 74.6591C65.9261 74.9303 66.0674 75.2236 66.1418 75.5388C67.6373 82.0779 73.411 90.0537 79.9585 97.4065C79.9585 97.4065 79.9585 97.3992 79.9659 97.4065C81.9376 99.6204 83.9762 101.776 86 103.821Z" fill="#076489"/>
<path d="M80 97.1164C79.6524 97.1526 79.2899 97.1237 78.9423 97.0657C77.278 96.7832 75.7025 96.0299 74.4599 94.9071C74.3785 94.8347 74.2972 94.755 74.2084 94.6825C73.3726 93.922 72.0042 94.5811 72.1225 95.6967C72.2187 96.5731 72.411 97.4351 72.6995 98.2754C72.9436 98.9998 73.2468 99.8473 72.803 100.47C72.3962 101.05 71.5012 101.115 70.8651 100.803C70.2216 100.492 69.7778 99.898 69.371 99.3185C68.3354 97.8408 67.396 96.3124 66.5454 94.726C66.0868 93.864 64.7184 94.1972 64.7554 95.1679C64.7554 95.1751 64.7554 95.1896 64.7554 95.1968C64.8812 97.9856 64.9995 100.767 65.1327 103.556C65.1918 104.787 63.6459 105.49 62.7805 104.599C62.7805 104.599 62.7657 104.585 62.7583 104.577C62.1444 103.933 61.8337 103.063 61.5453 102.23C60.6577 99.6807 59.7701 97.1309 58.8751 94.5811C58.6236 93.8495 57.5806 93.8278 57.2848 94.5377C56.9223 95.3997 56.8854 96.4862 56.9593 97.4496C57.0037 98.0726 57.0481 98.739 57.0111 99.3764C56.9297 100.651 55.2581 101.042 54.6072 99.9269C53.6678 98.3333 53.0687 96.5442 52.8689 94.7188C52.7876 94.0089 52.329 93.0238 51.6781 93.3425C51.4784 93.4439 51.36 93.6539 51.2713 93.8568C50.0138 96.5587 50.4798 99.7531 49.4813 102.556C49.3555 102.919 49.1558 103.31 48.7786 103.404C48.0833 103.57 47.6987 102.643 47.6173 101.941C47.314 99.1084 47.0034 96.2689 46.7001 93.4366C46.5892 92.3936 45.2504 91.9662 44.5551 92.763C42.8686 94.7043 42.0698 97.609 40.265 99.5793C39.6807 100.224 38.4306 100.673 38.0756 99.8835C37.9646 99.63 38.009 99.333 38.0608 99.065C38.4972 96.6021 38.9336 94.1538 39.37 91.6909C39.5253 90.8072 38.5342 90.1842 37.7649 90.6768C37.2619 91.0028 36.7959 91.4374 36.3595 91.8285C35.716 92.3936 34.7988 92.8861 34 92.8716C38.9188 86.8739 42.8908 80.7313 44.0965 75.5086C44.1704 75.1971 44.311 74.9002 44.5181 74.6321C45.0728 73.886 46.0788 73.3573 47.2475 73.3283C47.6617 73.3138 48.0833 73.3573 48.5197 73.4876C49.5109 73.7701 50.6056 73.7267 51.5375 73.35C52.4104 72.9878 53.6456 72.7923 55.1767 73.3428C56.7522 72.7705 58.0318 73.0096 58.912 73.3862C59.7627 73.7629 60.813 73.8064 61.7228 73.5166C62.2036 73.3645 62.6622 73.3138 63.106 73.3283C64.282 73.3573 65.288 73.886 65.8427 74.6394C66.0424 74.9074 66.183 75.1971 66.257 75.5086C67.7437 81.97 73.4835 89.851 79.9926 97.1164H80Z" fill="#FFF8E1"/>
<path d="M37.968 134.404C38.28 134.404 38.508 134.432 38.652 134.488C38.804 134.536 38.912 134.62 38.976 134.74C39.064 134.924 39.108 135.172 39.108 135.484V140.128C39.108 140.968 38.804 141.712 38.196 142.36C37.588 143 36.812 143.32 35.868 143.32C35.34 143.32 34.872 143.204 34.464 142.972C34.096 142.772 33.84 142.592 33.696 142.432L33.6 142.336C33.32 142.04 33.18 141.788 33.18 141.58C33.18 141.364 33.32 141.112 33.6 140.824C33.88 140.536 34.128 140.392 34.344 140.392C34.56 140.392 34.8 140.524 35.064 140.788C35.328 141.052 35.612 141.184 35.916 141.184C36.228 141.184 36.484 141.08 36.684 140.872C36.884 140.664 36.984 140.388 36.984 140.044V135.556C36.984 135.076 37.064 134.768 37.224 134.632C37.408 134.48 37.656 134.404 37.968 134.404ZM45.1419 135.028L48.3819 141.724C48.5179 141.996 48.5859 142.2 48.5859 142.336C48.5859 142.624 48.3539 142.884 47.8899 143.116C47.6179 143.252 47.4019 143.32 47.2419 143.32C47.0899 143.32 46.9619 143.284 46.8579 143.212C46.7619 143.14 46.6899 143.064 46.6419 142.984C46.6019 142.904 46.5419 142.784 46.4619 142.624L45.8379 141.328H42.5139L41.8899 142.624C41.8099 142.784 41.7459 142.9 41.6979 142.972C41.6579 143.044 41.5859 143.12 41.4819 143.2C41.3859 143.272 41.2579 143.308 41.0979 143.308C40.9459 143.308 40.7339 143.24 40.4619 143.104C39.9979 142.88 39.7659 142.624 39.7659 142.336C39.7659 142.2 39.8339 141.996 39.9699 141.724L43.2099 135.016C43.2979 134.832 43.4299 134.684 43.6059 134.572C43.7899 134.46 43.9819 134.404 44.1819 134.404C44.6139 134.404 44.9339 134.612 45.1419 135.028ZM44.1699 137.908L43.3779 139.552H44.9739L44.1699 137.908ZM55.7337 136.18C55.9417 136.604 56.0457 137.076 56.0457 137.596C56.0457 138.116 55.9417 138.588 55.7337 139.012C55.5257 139.428 55.2577 139.76 54.9297 140.008C54.2657 140.52 53.5777 140.776 52.8657 140.776H51.3657V142.132C51.3657 142.316 51.3577 142.456 51.3417 142.552C51.3337 142.64 51.2977 142.744 51.2337 142.864C51.1217 143.08 50.8097 143.188 50.2977 143.188C49.7377 143.188 49.4097 143.04 49.3137 142.744C49.2657 142.608 49.2417 142.4 49.2417 142.12V135.46C49.2417 135.276 49.2457 135.14 49.2537 135.052C49.2697 134.956 49.3097 134.848 49.3737 134.728C49.4857 134.512 49.7977 134.404 50.3097 134.404H52.8777C53.5817 134.404 54.2657 134.66 54.9297 135.172C55.2577 135.42 55.5257 135.756 55.7337 136.18ZM52.8777 138.652C53.1177 138.652 53.3537 138.564 53.5857 138.388C53.8177 138.212 53.9337 137.948 53.9337 137.596C53.9337 137.244 53.8177 136.98 53.5857 136.804C53.3537 136.62 53.1137 136.528 52.8657 136.528H51.3657V138.652H52.8777ZM60.9037 135.028L64.1437 141.724C64.2797 141.996 64.3477 142.2 64.3477 142.336C64.3477 142.624 64.1157 142.884 63.6517 143.116C63.3797 143.252 63.1637 143.32 63.0037 143.32C62.8517 143.32 62.7237 143.284 62.6197 143.212C62.5237 143.14 62.4517 143.064 62.4037 142.984C62.3637 142.904 62.3037 142.784 62.2237 142.624L61.5997 141.328H58.2757L57.6517 142.624C57.5717 142.784 57.5077 142.9 57.4597 142.972C57.4197 143.044 57.3477 143.12 57.2437 143.2C57.1477 143.272 57.0197 143.308 56.8597 143.308C56.7077 143.308 56.4957 143.24 56.2237 143.104C55.7597 142.88 55.5277 142.624 55.5277 142.336C55.5277 142.2 55.5957 141.996 55.7317 141.724L58.9717 135.016C59.0597 134.832 59.1917 134.684 59.3677 134.572C59.5517 134.46 59.7437 134.404 59.9437 134.404C60.3757 134.404 60.6957 134.612 60.9037 135.028ZM59.9317 137.908L59.1397 139.552H60.7357L59.9317 137.908ZM70.6794 134.776C70.7594 134.632 70.8754 134.536 71.0274 134.488C71.1794 134.44 71.3674 134.416 71.5914 134.416C71.8234 134.416 72.0074 134.436 72.1434 134.476C72.2874 134.516 72.3914 134.564 72.4554 134.62C72.5274 134.676 72.5794 134.76 72.6114 134.872C72.6594 135 72.6834 135.204 72.6834 135.484V142.144C72.6834 142.336 72.6754 142.476 72.6594 142.564C72.6514 142.652 72.6154 142.756 72.5514 142.876C72.4394 143.092 72.1274 143.2 71.6154 143.2C71.3034 143.2 71.0874 143.176 70.9674 143.128C70.8474 143.08 70.7474 143.004 70.6674 142.9C68.8674 140.5 67.6834 138.932 67.1154 138.196V142.144C67.1154 142.336 67.1074 142.476 67.0914 142.564C67.0834 142.652 67.0474 142.756 66.9834 142.876C66.8714 143.092 66.5594 143.2 66.0474 143.2C65.5514 143.2 65.2474 143.092 65.1354 142.876C65.0714 142.756 65.0314 142.648 65.0154 142.552C65.0074 142.456 65.0034 142.316 65.0034 142.132V135.436C65.0034 135.132 65.0394 134.912 65.1114 134.776C65.1914 134.632 65.3074 134.536 65.4594 134.488C65.6114 134.44 65.8074 134.416 66.0474 134.416C66.2874 134.416 66.4754 134.44 66.6114 134.488C66.7554 134.528 66.8554 134.576 66.9114 134.632C66.9434 134.656 67.0354 134.76 67.1874 134.944C68.8754 137.24 70.0034 138.756 70.5714 139.492V135.436C70.5714 135.132 70.6074 134.912 70.6794 134.776Z" fill="#FFFDE7"/>
<path d="M95 106.5C91.3028 106.575 89.3442 105.754 86 103.795V120H95V106.5Z" fill="#076489"/>
<path d="M12 106.671C16.9296 106.744 19.541 105.934 24 104V120H12V106.671Z" fill="#076489"/>
</svg>
