<svg width="108" height="161" viewBox="0 0 108 161" fill="none" xmlns="http://www.w3.org/2000/svg">
<path d="M106.96 31.2538V28.3053C105.535 28.2134 104.409 27.2278 104.409 26.0084H101.6C101.6 27.2863 100.364 28.322 98.8397 28.322C97.3153 28.322 96.0798 27.2863 96.0798 26.0084H93.2701C93.2701 27.2863 92.0345 28.322 90.5101 28.322C88.9857 28.322 87.7502 27.2863 87.7502 26.0084H84.9304C84.9304 27.2863 83.6949 28.322 82.1705 28.322C82.1008 28.322 82.041 28.3053 81.9712 28.3053C80.5464 28.2134 79.4205 27.2278 79.4205 26.0084H76.6008C76.6008 27.2863 75.3653 28.322 73.8409 28.322C72.3164 28.322 71.0809 27.2863 71.0809 26.0084H68.2612C68.2612 27.2863 67.0257 28.322 65.5013 28.322C63.9768 28.322 62.7413 27.2863 62.7413 26.0084H59.9116C59.9116 27.2863 58.6761 28.322 57.1517 28.322C55.6273 28.322 54.3918 27.2863 54.3918 26.0084H51.5621C51.5621 27.2863 50.3266 28.322 48.8021 28.322C47.2777 28.322 46.0422 27.2863 46.0422 26.0084H43.2225C43.2225 27.2863 41.987 28.322 40.4625 28.322C38.9381 28.322 37.7026 27.2863 37.7026 26.0084H34.8829C34.8829 27.2863 33.6474 28.322 32.1229 28.322C30.5985 28.322 29.363 27.2863 29.363 26.0084H26.5333C26.5333 26.1002 26.5233 26.1921 26.5134 26.284C26.5134 26.309 26.5134 26.3257 26.5134 26.3508C26.4934 26.4427 26.4735 26.5429 26.4436 26.6264C26.4436 26.6431 26.4337 26.6682 26.4237 26.6849C26.2045 27.2863 25.6963 27.7791 25.0387 28.0547C24.6601 28.2218 24.2416 28.3137 23.7933 28.3137C22.2688 28.3137 21.0333 27.2779 21.0333 26H18.2136C18.2136 27.2779 16.9781 28.3137 15.4537 28.3137C13.9292 28.3137 12.6937 27.2779 12.6937 26H9.87401C9.87401 27.2779 8.63851 28.3137 7.11407 28.3137C5.58963 28.3137 4.35413 27.2779 4.35413 26H1.51448C1.51448 26.9021 0.896732 27.6705 0 28.0547V31.3206C1.19564 31.5712 2.08241 32.4732 2.08241 33.5591C2.08241 34.6449 1.19564 35.5386 0 35.7975V38.3117C1.19564 38.5622 2.08241 39.4643 2.08241 40.5501C2.08241 41.636 1.19564 42.5297 0 42.7886V45.3027C1.19564 45.5533 2.08241 46.4554 2.08241 47.5412C2.08241 48.6271 1.19564 49.5208 0 49.7797V52.2938C1.19564 52.5444 2.08241 53.4465 2.08241 54.5323C2.08241 55.6182 1.19564 56.5119 0 56.7708V59.2849C1.19564 59.5438 2.08241 60.4376 2.08241 61.5234C2.08241 62.6092 1.19564 63.503 0 63.7619V66.276C1.19564 66.5266 2.08241 67.4287 2.08241 68.5145C2.08241 69.6003 1.19564 70.494 0 70.753V73.2671C1.19564 73.5177 2.08241 74.4197 2.08241 75.5056C2.08241 76.5914 1.19564 77.4851 0 77.7441V80.2582C1.19564 80.5088 2.08241 81.4108 2.08241 82.4967C2.08241 83.5825 1.19564 84.4762 0 84.7351V87.2493C1.19564 87.4998 2.08241 88.4019 2.08241 89.4878C2.08241 90.5736 1.19564 91.4673 0 91.7262V94.2487C1.19564 94.4993 2.08241 95.4014 2.08241 96.4872C2.08241 97.573 1.19564 98.4667 0 98.7257V101.248C1.19564 101.499 2.08241 102.401 2.08241 103.487C2.08241 104.572 1.19564 105.466 0 105.725V108.248C1.19564 108.498 2.08241 109.4 2.08241 110.486C2.08241 111.572 1.19564 112.474 0 112.725V115.239C1.19564 115.498 2.08241 116.391 2.08241 117.477C2.08241 118.563 1.19564 119.457 0 119.716V122.23C1.19564 122.48 2.08241 123.382 2.08241 124.468C2.08241 125.554 1.19564 126.448 0 126.707V129.221C1.19564 129.48 2.08241 130.373 2.08241 131.459C2.08241 132.545 1.19564 133.447 0 133.698V136.212C1.19564 136.471 2.08241 137.365 2.08241 138.45C2.08241 139.536 1.19564 140.43 0 140.689V143.203C1.19564 143.454 2.08241 144.356 2.08241 145.442C2.08241 146.527 1.19564 147.421 0 147.68V150.194C1.19564 150.445 2.08241 151.347 2.08241 152.433C2.08241 153.518 1.19564 154.42 0 154.671V157.352C0.896732 157.736 1.51448 158.505 1.51448 159.407C1.51448 159.616 1.47463 159.808 1.41484 160H4.43384C4.37406 159.808 4.3342 159.616 4.3342 159.407C4.3342 158.129 5.5697 157.093 7.09414 157.093C8.61859 157.093 9.85408 158.129 9.85408 159.407C9.85408 159.616 9.81423 159.808 9.75445 160H12.7734C12.7137 159.808 12.6738 159.616 12.6738 159.407C12.6738 158.129 13.9093 157.093 15.4337 157.093C16.9582 157.093 18.1937 158.129 18.1937 159.407C18.1937 159.616 18.1538 159.808 18.094 160H21.113C21.0533 159.808 21.0134 159.616 21.0134 159.407C21.0134 158.129 22.2489 157.093 23.7734 157.093C24.2217 157.093 24.6402 157.194 25.0188 157.352C25.6764 157.636 26.1846 158.129 26.4038 158.73C26.4038 158.747 26.4237 158.772 26.4237 158.789C26.4536 158.881 26.4835 158.973 26.4934 159.065C26.4934 159.09 26.4934 159.106 26.4934 159.131C26.5034 159.223 26.5134 159.315 26.5134 159.407C26.5134 159.616 26.4735 159.808 26.4137 160H29.4427C29.3829 159.808 29.3431 159.616 29.3431 159.407C29.3431 158.129 30.5785 157.093 32.103 157.093C33.6274 157.093 34.8629 158.129 34.8629 159.407C34.8629 159.616 34.8231 159.808 34.7633 160H37.7923C37.7325 159.808 37.6926 159.616 37.6926 159.407C37.6926 158.129 38.9281 157.093 40.4526 157.093C41.977 157.093 43.2125 158.129 43.2125 159.407C43.2125 159.616 43.1726 159.808 43.1129 160H46.1418C46.082 159.808 46.0422 159.616 46.0422 159.407C46.0422 158.129 47.2777 157.093 48.8021 157.093C50.3266 157.093 51.5621 158.129 51.5621 159.407C51.5621 159.616 51.5222 159.808 51.4624 160H54.4914C54.4316 159.808 54.3918 159.616 54.3918 159.407C54.3918 158.129 55.6273 157.093 57.1517 157.093C58.6761 157.093 59.9116 158.129 59.9116 159.407C59.9116 159.616 59.8718 159.808 59.812 160H62.841C62.7812 159.808 62.7413 159.616 62.7413 159.407C62.7413 158.129 63.9768 157.093 65.5013 157.093C67.0257 157.093 68.2612 158.129 68.2612 159.407C68.2612 159.616 68.2214 159.808 68.1616 160H71.1905C71.1307 159.808 71.0909 159.616 71.0909 159.407C71.0909 158.129 72.3264 157.093 73.8508 157.093C75.3753 157.093 76.6108 158.129 76.6108 159.407C76.6108 159.616 76.5709 159.808 76.5111 160H79.5401C79.4803 159.808 79.4405 159.616 79.4405 159.407C79.4405 158.188 80.5664 157.202 81.9912 157.11C82.0609 157.11 82.1207 157.093 82.1904 157.093C83.7149 157.093 84.9504 158.129 84.9504 159.407C84.9504 159.616 84.9105 159.808 84.8507 160H87.8697C87.81 159.808 87.7701 159.616 87.7701 159.407C87.7701 158.129 89.0056 157.093 90.53 157.093C92.0545 157.093 93.29 158.129 93.29 159.407C93.29 159.616 93.2501 159.808 93.1903 160H96.2093C96.1496 159.808 96.1097 159.616 96.1097 159.407C96.1097 158.129 97.3452 157.093 98.8696 157.093C100.394 157.093 101.63 158.129 101.63 159.407C101.63 159.616 101.59 159.808 101.53 160H104.549C104.489 159.808 104.449 159.616 104.449 159.407C104.449 158.188 105.575 157.202 107 157.11V154.755C105.476 154.755 104.24 153.719 104.24 152.441C104.24 151.163 105.476 150.127 107 150.127V147.764C105.476 147.764 104.24 146.728 104.24 145.45C104.24 144.172 105.476 143.136 107 143.136V140.772C105.476 140.772 104.24 139.737 104.24 138.459C104.24 137.181 105.476 136.145 107 136.145V133.781C105.476 133.781 104.24 132.746 104.24 131.468C104.24 130.19 105.476 129.154 107 129.154V126.79C105.476 126.79 104.24 125.755 104.24 124.477C104.24 123.199 105.476 122.163 107 122.163V119.799C105.476 119.799 104.24 118.763 104.24 117.486C104.24 116.208 105.476 115.172 107 115.172V112.808C105.476 112.808 104.24 111.772 104.24 110.494C104.24 109.216 105.476 108.181 107 108.181V105.825C105.476 105.825 104.24 104.79 104.24 103.512C104.24 102.234 105.476 101.198 107 101.198V98.8426C105.476 98.8426 104.24 97.8069 104.24 96.529C104.24 95.251 105.476 94.2153 107 94.2153V91.8599C105.476 91.8599 104.24 90.8242 104.24 89.5462C104.24 88.2683 105.476 87.2326 107 87.2326V84.8771C105.476 84.8771 104.24 83.8414 104.24 82.5635C104.24 81.2855 105.476 80.2498 107 80.2498V77.8861C105.476 77.8861 104.24 76.8503 104.24 75.5724C104.24 74.2945 105.476 73.2587 107 73.2587V70.895C105.476 70.895 104.24 69.8593 104.24 68.5813C104.24 67.3034 105.476 66.2677 107 66.2677V63.9039C105.476 63.9039 104.24 62.8682 104.24 61.5902C104.24 60.3123 105.476 59.2766 107 59.2766V56.9128C105.476 56.9128 104.24 55.8771 104.24 54.5991C104.24 53.3212 105.476 52.2855 107 52.2855V49.9217C105.476 49.9217 104.24 48.886 104.24 47.6081C104.24 46.3301 105.476 45.2944 107 45.2944V42.9306C105.476 42.9306 104.24 41.8949 104.24 40.617C104.24 39.339 105.476 38.3033 107 38.3033V35.9395C105.476 35.9395 104.24 34.9038 104.24 33.6259C104.24 32.3479 105.476 31.3122 107 31.3122L106.96 31.2538Z" fill="#F4BBCF"/>
<path d="M95 131H12V149H95V131Z" fill="#F7A941"/>
<path d="M37.248 139.104C38.472 140.28 39.34 141.164 39.852 141.756C40.116 142.052 40.248 142.304 40.248 142.512C40.248 142.712 40.088 142.952 39.768 143.232C39.448 143.504 39.184 143.64 38.976 143.64C38.776 143.64 38.532 143.472 38.244 143.136L35.604 140.124V142.464C35.604 142.656 35.596 142.796 35.58 142.884C35.572 142.972 35.536 143.076 35.472 143.196C35.36 143.412 35.048 143.52 34.536 143.52C33.976 143.52 33.648 143.368 33.552 143.064C33.504 142.936 33.48 142.732 33.48 142.452V135.78C33.48 135.596 33.484 135.46 33.492 135.372C33.508 135.276 33.548 135.168 33.612 135.048C33.724 134.832 34.036 134.724 34.548 134.724C35.108 134.724 35.44 134.872 35.544 135.168C35.584 135.304 35.604 135.512 35.604 135.792V138.084C36.692 136.86 37.572 135.856 38.244 135.072C38.524 134.744 38.768 134.58 38.976 134.58C39.184 134.58 39.448 134.72 39.768 135C40.088 135.272 40.248 135.512 40.248 135.72C40.248 135.92 40.128 136.16 39.888 136.44C39.424 136.976 38.704 137.712 37.728 138.648L37.248 139.104ZM44.4283 134.616C45.6123 134.616 46.6403 135.044 47.5123 135.9C48.3843 136.756 48.8203 137.82 48.8203 139.092C48.8203 140.356 48.4043 141.436 47.5723 142.332C46.7403 143.22 45.7163 143.664 44.5003 143.664C43.2843 143.664 42.2483 143.224 41.3923 142.344C40.5443 141.464 40.1203 140.416 40.1203 139.2C40.1203 138.536 40.2403 137.916 40.4803 137.34C40.7203 136.756 41.0403 136.268 41.4403 135.876C41.8403 135.484 42.3003 135.176 42.8203 134.952C43.3403 134.728 43.8763 134.616 44.4283 134.616ZM42.2443 139.14C42.2443 139.852 42.4723 140.432 42.9283 140.88C43.3923 141.32 43.9083 141.54 44.4763 141.54C45.0443 141.54 45.5563 141.324 46.0123 140.892C46.4683 140.46 46.6963 139.88 46.6963 139.152C46.6963 138.424 46.4643 137.84 46.0003 137.4C45.5443 136.96 45.0323 136.74 44.4643 136.74C43.8963 136.74 43.3843 136.964 42.9283 137.412C42.4723 137.852 42.2443 138.428 42.2443 139.14ZM56.337 142.032C56.457 142.32 56.517 142.528 56.517 142.656C56.517 142.96 56.269 143.216 55.773 143.424C55.517 143.536 55.309 143.592 55.149 143.592C54.997 143.592 54.869 143.556 54.765 143.484C54.669 143.404 54.597 143.324 54.549 143.244C54.469 143.092 54.157 142.368 53.613 141.072L53.241 141.096H51.729V142.452C51.729 142.636 51.721 142.776 51.705 142.872C51.697 142.96 51.661 143.064 51.597 143.184C51.485 143.4 51.173 143.508 50.661 143.508C50.101 143.508 49.773 143.36 49.677 143.064C49.629 142.928 49.605 142.72 49.605 142.44V135.78C49.605 135.596 49.609 135.46 49.617 135.372C49.633 135.276 49.673 135.168 49.737 135.048C49.849 134.832 50.161 134.724 50.673 134.724H53.265C53.969 134.724 54.653 134.98 55.317 135.492C55.637 135.74 55.901 136.076 56.109 136.5C56.317 136.924 56.421 137.396 56.421 137.916C56.421 138.82 56.121 139.564 55.521 140.148C55.697 140.572 55.969 141.2 56.337 142.032ZM51.729 138.972H53.265C53.497 138.972 53.729 138.884 53.961 138.708C54.193 138.532 54.309 138.268 54.309 137.916C54.309 137.564 54.193 137.3 53.961 137.124C53.729 136.94 53.489 136.848 53.241 136.848H51.729V138.972ZM59.2993 141.396H62.9953C63.1793 141.396 63.3153 141.404 63.4033 141.42C63.4993 141.428 63.6073 141.464 63.7273 141.528C63.9433 141.64 64.0513 141.952 64.0513 142.464C64.0513 143.024 63.9033 143.352 63.6073 143.448C63.4713 143.496 63.2633 143.52 62.9833 143.52H58.2313C57.6713 143.52 57.3433 143.368 57.2473 143.064C57.1993 142.936 57.1753 142.732 57.1753 142.452V135.78C57.1753 135.372 57.2513 135.096 57.4033 134.952C57.5553 134.8 57.8433 134.724 58.2673 134.724H62.9953C63.1793 134.724 63.3153 134.732 63.4033 134.748C63.4993 134.756 63.6073 134.792 63.7273 134.856C63.9433 134.968 64.0513 135.28 64.0513 135.792C64.0513 136.352 63.9033 136.68 63.6073 136.776C63.4713 136.824 63.2633 136.848 62.9833 136.848H59.2993V138.06H61.6753C61.8593 138.06 61.9953 138.068 62.0833 138.084C62.1793 138.092 62.2873 138.128 62.4073 138.192C62.6233 138.304 62.7313 138.616 62.7313 139.128C62.7313 139.688 62.5793 140.016 62.2753 140.112C62.1393 140.16 61.9313 140.184 61.6513 140.184H59.2993V141.396ZM69.9037 135.348L73.1437 142.044C73.2797 142.316 73.3477 142.52 73.3477 142.656C73.3477 142.944 73.1157 143.204 72.6517 143.436C72.3797 143.572 72.1637 143.64 72.0037 143.64C71.8517 143.64 71.7237 143.604 71.6197 143.532C71.5237 143.46 71.4517 143.384 71.4037 143.304C71.3637 143.224 71.3037 143.104 71.2237 142.944L70.5997 141.648H67.2757L66.6517 142.944C66.5717 143.104 66.5077 143.22 66.4597 143.292C66.4197 143.364 66.3477 143.44 66.2437 143.52C66.1477 143.592 66.0197 143.628 65.8597 143.628C65.7077 143.628 65.4957 143.56 65.2237 143.424C64.7597 143.2 64.5277 142.944 64.5277 142.656C64.5277 142.52 64.5957 142.316 64.7317 142.044L67.9717 135.336C68.0597 135.152 68.1917 135.004 68.3677 134.892C68.5517 134.78 68.7437 134.724 68.9437 134.724C69.3757 134.724 69.6957 134.932 69.9037 135.348ZM68.9317 138.228L68.1397 139.872H69.7357L68.9317 138.228Z" fill="#FFF8E1"/>
<path d="M95 36H12V119H95V36Z" fill="#80DEEA"/>
<path d="M95.3398 44.5701V118.71H12.0098V44.5701C23.6398 53.2301 38.0598 58.3501 53.6698 58.3501C69.2798 58.3501 83.6998 53.2301 95.3398 44.5701Z" fill="#4DD0E1"/>
<path d="M9 36V152H98V36H9ZM96.5985 37.1411V127.161H10.4114V37.1411H96.5985ZM10.4114 150.859V128.294H96.5985V150.859H10.4114Z" fill="white"/>
<path d="M32.24 63.29C32.24 63.29 32.24 63.21 32.24 63.18C32.24 61.42 30.81 60 29.06 60C28.61 60 28.19 60.09 27.81 60.26C27.42 60.09 27 60 26.56 60C24.8 60 23.38 61.43 23.38 63.18C23.38 63.22 23.38 63.26 23.38 63.29C22.58 63.57 22 64.33 22 65.22C22 66.35 22.92 67.27 24.05 67.27H31.58C32.71 67.27 33.63 66.35 33.63 65.22C33.63 64.32 33.05 63.56 32.25 63.29H32.24Z" fill="white"/>
<path d="M87.28 50.1901C87.28 50.1901 87.28 50.1101 87.28 50.0801C87.28 48.3201 85.85 46.9001 84.1 46.9001C83.65 46.9001 83.23 46.9901 82.85 47.1601C82.46 46.9901 82.04 46.9001 81.6 46.9001C79.84 46.9001 78.42 48.3301 78.42 50.0801C78.42 50.1201 78.42 50.1601 78.42 50.1901C77.62 50.4701 77.04 51.2301 77.04 52.1201C77.04 53.2501 77.96 54.1701 79.09 54.1701H86.62C87.75 54.1701 88.67 53.2501 88.67 52.1201C88.67 51.2201 88.09 50.4601 87.29 50.1901H87.28Z" fill="white"/>
<path d="M70.1167 114.231C79.6454 104.702 79.6455 89.2529 70.1167 79.7241C60.5879 70.1953 45.1386 70.1953 35.6099 79.7241C26.0811 89.2529 26.0811 104.702 35.6099 114.231C45.1386 123.76 60.5879 123.76 70.1167 114.231Z" fill="white"/>
<path d="M93.3602 111.47H13.9902V118.41H93.3602V111.47Z" fill="#CFD1D2"/>
<path d="M93.3602 116.09H13.9902V118.4H93.3602V116.09Z" fill="#565455"/>
<path d="M84.8907 104.3H22.4707V111.47H84.8907V104.3Z" fill="#E5E5E5"/>
<path d="M88.3702 98.9301C85.7602 98.9301 83.2502 97.9401 81.3502 96.1601C81.0102 95.8401 80.6202 95.5701 80.1902 95.4001H80.1702C78.8202 94.8601 77.3802 94.5901 75.9302 94.5901H31.4302C29.9802 94.5901 28.5402 94.8601 27.1902 95.3901H27.1702C26.7302 95.5701 26.3502 95.8401 26.0102 96.1601C24.1102 97.9301 21.6002 98.9301 18.9902 98.9301H18.4902C18.4902 98.9301 21.0702 100.84 26.7002 100.84H80.6702C86.3002 100.84 88.8802 98.9301 88.8802 98.9301H88.3802H88.3702Z" fill="#FF5F5F"/>
<path d="M92.2405 97.5201C91.7705 96.9101 90.9005 96.8001 90.3005 97.2601C87.7605 99.2101 84.5905 100.29 81.3905 100.29H25.9705C22.7705 100.29 19.6005 99.2201 17.0605 97.2601C16.4505 96.7901 15.5805 96.9101 15.1205 97.5201C14.6505 98.1301 14.7705 99.0001 15.3805 99.4701C18.4005 101.79 22.1705 103.07 25.9805 103.07H81.4005C85.2105 103.07 88.9805 101.79 92.0005 99.4701C92.6105 99.0001 92.7205 98.1301 92.2605 97.5201H92.2405Z" fill="#F92D2D"/>
<path d="M75.9207 89.99H31.4307V94.59H75.9207V89.99Z" fill="#CFD1D2"/>
<path d="M78.7704 88.6101C76.8804 88.6101 75.0704 87.8901 73.6904 86.6101C73.4404 86.3801 73.1604 86.1801 72.8504 86.0601H72.8304C71.8504 85.6701 70.8104 85.4801 69.7604 85.4801H69.6804V83.6001C69.6804 82.9101 69.1204 82.3401 68.4204 82.3401C67.7204 82.3401 67.1604 82.9001 67.1604 83.6001V85.4801H40.0804V83.6001C40.0804 82.9101 39.5204 82.3401 38.8204 82.3401C38.1204 82.3401 37.5604 82.9001 37.5604 83.6001V85.4801C36.5104 85.4801 35.4704 85.6801 34.4904 86.0601H34.4704C34.1504 86.1901 33.8804 86.3801 33.6304 86.6201C32.2604 87.9001 30.4404 88.6201 28.5504 88.6201H28.1904C28.1904 88.6201 30.0604 90.0001 34.1304 90.0001H73.1604C77.2304 90.0001 79.1004 88.6201 79.1004 88.6201H78.7404L78.7704 88.6101Z" fill="#FF5F5F"/>
<path d="M29.35 104.3H27.96V111.47H29.35V104.3Z" fill="#565455"/>
<path d="M35.5902 104.3H34.2002V111.47H35.5902V104.3Z" fill="#565455"/>
<path d="M41.8304 104.3H40.4404V111.47H41.8304V104.3Z" fill="#565455"/>
<path d="M48.0697 104.3H46.6797V111.47H48.0697V104.3Z" fill="#565455"/>
<path d="M60.6703 104.3H59.2803V111.47H60.6703V104.3Z" fill="#565455"/>
<path d="M66.9095 104.3H65.5195V111.47H66.9095V104.3Z" fill="#565455"/>
<path d="M73.1498 104.3H71.7598V111.47H73.1498V104.3Z" fill="#565455"/>
<path d="M79.3998 104.3H78.0098V111.47H79.3998V104.3Z" fill="#565455"/>
<path d="M81.5698 87.6001C81.2298 87.1601 80.5998 87.0801 80.1598 87.4201C78.3198 88.8301 76.0298 89.6101 73.7098 89.6101H33.6298C31.3098 89.6101 29.0198 88.8301 27.1898 87.4201C26.7498 87.0801 26.1198 87.1601 25.7798 87.6001C25.4398 88.0401 25.5298 88.6701 25.9598 89.0101C28.1498 90.6901 30.8698 91.6101 33.6298 91.6101H73.7098C76.4698 91.6101 79.1898 90.6901 81.3798 89.0101C81.8198 88.6701 81.8998 88.0401 81.5598 87.6001H81.5698Z" fill="#F92D2D"/>
<path d="M85.9801 103.07H21.3701V104.91H85.9801V103.07Z" fill="#CFD1D2"/>
<path d="M63.5303 118.4H43.8203L47.9403 111.47H59.4103L63.5303 118.4Z" fill="#565455"/>
<path d="M57.531 111.47H49.821L49.251 112.91H58.111L57.531 111.47Z" fill="#B4B4B5"/>
<path d="M47.0605 118.4H60.3005L59.4005 116.15H47.9505L47.0605 118.4Z" fill="#A4A4A5"/>
<path d="M58.1106 112.91H49.2506L48.6006 114.53H58.7506L58.1106 112.91Z" fill="#A4A4A5"/>
<path d="M48.6002 114.53L47.9502 116.15H59.4002L58.7502 114.53H48.6002Z" fill="#B4B4B5"/>
<path d="M59.2803 104.91H48.0703V111.47H59.2803V104.91Z" fill="#A4A4A5"/>
<path d="M34.8596 96.9801C34.3496 96.9801 34.0896 96.6701 33.8596 96.3901C33.6396 96.1301 33.4496 95.9001 33.0696 95.9001C32.6896 95.9001 32.4996 96.1301 32.2796 96.3901C32.0496 96.6701 31.7896 96.9801 31.2796 96.9801C30.7696 96.9801 30.5096 96.6701 30.2796 96.3901C30.0596 96.1301 29.8696 95.9001 29.4896 95.9001C29.4196 95.9001 29.3496 95.8401 29.3496 95.7601C29.3496 95.6801 29.4096 95.6201 29.4896 95.6201C29.9996 95.6201 30.2596 95.9301 30.4896 96.2101C30.7096 96.4701 30.8996 96.7001 31.2796 96.7001C31.6596 96.7001 31.8496 96.4701 32.0696 96.2101C32.2996 95.9301 32.5596 95.6201 33.0696 95.6201C33.5796 95.6201 33.8396 95.9301 34.0696 96.2101C34.2896 96.4701 34.4796 96.7001 34.8596 96.7001C35.2396 96.7001 35.4296 96.4701 35.6496 96.2101C35.8796 95.9301 36.1396 95.6201 36.6496 95.6201C36.7196 95.6201 36.7896 95.6801 36.7896 95.7601C36.7896 95.8401 36.7296 95.9001 36.6496 95.9001C36.2696 95.9001 36.0796 96.1301 35.8596 96.3901C35.6296 96.6701 35.3696 96.9801 34.8596 96.9801Z" fill="#F45353"/>
<path d="M44.6897 99.07C44.1797 99.07 43.9197 98.76 43.6897 98.48C43.4697 98.22 43.2797 97.99 42.8997 97.99C42.5197 97.99 42.3297 98.22 42.1097 98.48C41.8797 98.76 41.6197 99.07 41.1097 99.07C40.5997 99.07 40.3397 98.76 40.1097 98.48C39.8897 98.22 39.6997 97.99 39.3197 97.99C39.2497 97.99 39.1797 97.93 39.1797 97.85C39.1797 97.77 39.2397 97.71 39.3197 97.71C39.8297 97.71 40.0897 98.02 40.3197 98.3C40.5397 98.56 40.7297 98.79 41.1097 98.79C41.4897 98.79 41.6797 98.56 41.8997 98.3C42.1297 98.02 42.3897 97.71 42.8997 97.71C43.4097 97.71 43.6697 98.02 43.8997 98.3C44.1197 98.56 44.3097 98.79 44.6897 98.79C45.0697 98.79 45.2597 98.56 45.4797 98.3C45.7097 98.02 45.9697 97.71 46.4797 97.71C46.5497 97.71 46.6197 97.77 46.6197 97.85C46.6197 97.93 46.5597 97.99 46.4797 97.99C46.0997 97.99 45.9097 98.22 45.6897 98.48C45.4597 98.76 45.1997 99.07 44.6897 99.07Z" fill="#F45353"/>
<path d="M29.7502 99.07C29.2402 99.07 28.9802 98.76 28.7502 98.48C28.5302 98.22 28.3402 97.99 27.9602 97.99C27.5802 97.99 27.3902 98.22 27.1702 98.48C26.9402 98.76 26.6802 99.07 26.1702 99.07C25.6602 99.07 25.4002 98.76 25.1702 98.48C24.9502 98.22 24.7602 97.99 24.3802 97.99C24.3102 97.99 24.2402 97.93 24.2402 97.85C24.2402 97.77 24.3002 97.71 24.3802 97.71C24.8902 97.71 25.1502 98.02 25.3802 98.3C25.6002 98.56 25.7902 98.79 26.1702 98.79C26.5502 98.79 26.7402 98.56 26.9602 98.3C27.1902 98.02 27.4502 97.71 27.9602 97.71C28.4702 97.71 28.7302 98.02 28.9602 98.3C29.1802 98.56 29.3702 98.79 29.7502 98.79C30.1302 98.79 30.3202 98.56 30.5402 98.3C30.7702 98.02 31.0302 97.71 31.5402 97.71C31.6102 97.71 31.6802 97.77 31.6802 97.85C31.6802 97.93 31.6202 97.99 31.5402 97.99C31.1602 97.99 30.9702 98.22 30.7502 98.48C30.5202 98.76 30.2602 99.07 29.7502 99.07Z" fill="#F45353"/>
<path d="M74.9397 96.9801C74.4297 96.9801 74.1697 96.6701 73.9397 96.3901C73.7197 96.1301 73.5297 95.9001 73.1497 95.9001C72.7697 95.9001 72.5797 96.1301 72.3597 96.3901C72.1297 96.6701 71.8697 96.9801 71.3597 96.9801C70.8497 96.9801 70.5897 96.6701 70.3597 96.3901C70.1397 96.1301 69.9497 95.9001 69.5697 95.9001C69.4997 95.9001 69.4297 95.8401 69.4297 95.7601C69.4297 95.6801 69.4897 95.6201 69.5697 95.6201C70.0797 95.6201 70.3397 95.9301 70.5697 96.2101C70.7897 96.4701 70.9797 96.7001 71.3597 96.7001C71.7397 96.7001 71.9297 96.4701 72.1497 96.2101C72.3797 95.9301 72.6397 95.6201 73.1497 95.6201C73.6597 95.6201 73.9197 95.9301 74.1497 96.2101C74.3697 96.4701 74.5597 96.7001 74.9397 96.7001C75.3197 96.7001 75.5097 96.4701 75.7297 96.2101C75.9597 95.9301 76.2197 95.6201 76.7297 95.6201C76.7997 95.6201 76.8697 95.6801 76.8697 95.7601C76.8697 95.8401 76.8097 95.9001 76.7297 95.9001C76.3497 95.9001 76.1597 96.1301 75.9397 96.3901C75.7097 96.6701 75.4497 96.9801 74.9397 96.9801Z" fill="#F45353"/>
<path d="M65.8098 99.07C65.2998 99.07 65.0398 98.76 64.8098 98.48C64.5898 98.22 64.3998 97.99 64.0198 97.99C63.6398 97.99 63.4498 98.22 63.2298 98.48C62.9998 98.76 62.7398 99.07 62.2298 99.07C61.7198 99.07 61.4598 98.76 61.2298 98.48C61.0098 98.22 60.8198 97.99 60.4398 97.99C60.3698 97.99 60.2998 97.93 60.2998 97.85C60.2998 97.77 60.3598 97.71 60.4398 97.71C60.9498 97.71 61.2098 98.02 61.4398 98.3C61.6598 98.56 61.8498 98.79 62.2298 98.79C62.6098 98.79 62.7998 98.56 63.0198 98.3C63.2498 98.02 63.5098 97.71 64.0198 97.71C64.5298 97.71 64.7898 98.02 65.0198 98.3C65.2398 98.56 65.4298 98.79 65.8098 98.79C66.1898 98.79 66.3798 98.56 66.5998 98.3C66.8298 98.02 67.0898 97.71 67.5998 97.71C67.6698 97.71 67.7398 97.77 67.7398 97.85C67.7398 97.93 67.6798 97.99 67.5998 97.99C67.2198 97.99 67.0298 98.22 66.8098 98.48C66.5798 98.76 66.3198 99.07 65.8098 99.07Z" fill="#F45353"/>
<path d="M80.9202 99.07C80.4102 99.07 80.1502 98.76 79.9202 98.48C79.7002 98.22 79.5101 97.99 79.1301 97.99C78.7501 97.99 78.5601 98.22 78.3401 98.48C78.1101 98.76 77.8501 99.07 77.3401 99.07C76.8301 99.07 76.5701 98.76 76.3401 98.48C76.1201 98.22 75.9302 97.99 75.5502 97.99C75.4802 97.99 75.4102 97.93 75.4102 97.85C75.4102 97.77 75.4702 97.71 75.5502 97.71C76.0602 97.71 76.3202 98.02 76.5502 98.3C76.7702 98.56 76.9601 98.79 77.3401 98.79C77.7201 98.79 77.9101 98.56 78.1301 98.3C78.3601 98.02 78.6201 97.71 79.1301 97.71C79.6402 97.71 79.9001 98.02 80.1301 98.3C80.3501 98.56 80.5402 98.79 80.9202 98.79C81.3002 98.79 81.4902 98.56 81.7102 98.3C81.9402 98.02 82.2002 97.71 82.7102 97.71C82.7802 97.71 82.8502 97.77 82.8502 97.85C82.8502 97.93 82.7902 97.99 82.7102 97.99C82.3302 97.99 82.1402 98.22 81.9202 98.48C81.6902 98.76 81.4302 99.07 80.9202 99.07Z" fill="#F45353"/>
<path d="M57.8595 96.9801C57.3495 96.9801 57.0895 96.6701 56.8595 96.3901C56.6395 96.1301 56.4495 95.9001 56.0695 95.9001C55.6895 95.9001 55.4995 96.1301 55.2795 96.3901C55.0495 96.6701 54.7895 96.9801 54.2795 96.9801C53.7695 96.9801 53.5095 96.6701 53.2795 96.3901C53.0595 96.1301 52.8695 95.9001 52.4895 95.9001C52.1095 95.9001 51.9195 96.1301 51.6995 96.3901C51.4695 96.6701 51.2095 96.9801 50.6995 96.9801C50.1895 96.9801 49.9295 96.6701 49.6995 96.3901C49.4795 96.1301 49.2895 95.9001 48.9095 95.9001C48.8395 95.9001 48.7695 95.8401 48.7695 95.7601C48.7695 95.6801 48.8295 95.6201 48.9095 95.6201C49.4195 95.6201 49.6795 95.9301 49.9095 96.2101C50.1295 96.4701 50.3195 96.7001 50.6995 96.7001C51.0795 96.7001 51.2695 96.4701 51.4895 96.2101C51.7195 95.9301 51.9795 95.6201 52.4895 95.6201C52.9995 95.6201 53.2595 95.9301 53.4895 96.2101C53.7095 96.4701 53.8995 96.7001 54.2795 96.7001C54.6595 96.7001 54.8495 96.4701 55.0695 96.2101C55.2995 95.9301 55.5595 95.6201 56.0695 95.6201C56.5795 95.6201 56.8395 95.9301 57.0695 96.2101C57.2895 96.4701 57.4795 96.7001 57.8595 96.7001C57.9295 96.7001 57.9995 96.7601 57.9995 96.8401C57.9995 96.9201 57.9395 96.9801 57.8595 96.9801Z" fill="#F45353"/>
<path d="M69.1705 88C69.6205 88 69.8505 88.28 70.0505 88.52C70.2405 88.75 70.4105 88.95 70.7505 88.95C71.0905 88.95 71.2505 88.75 71.4505 88.52C71.6505 88.28 71.8805 88 72.3305 88C72.7805 88 73.0105 88.28 73.2105 88.52C73.4005 88.75 73.5705 88.95 73.9105 88.95C73.9805 88.95 74.0305 89 74.0305 89.07C74.0305 89.14 73.9805 89.19 73.9105 89.19C73.4605 89.19 73.2305 88.91 73.0305 88.67C72.8405 88.44 72.6705 88.24 72.3305 88.24C71.9905 88.24 71.8305 88.44 71.6305 88.67C71.4305 88.91 71.2005 89.19 70.7505 89.19C70.3005 89.19 70.0705 88.91 69.8705 88.67C69.6805 88.44 69.5105 88.24 69.1705 88.24C68.8305 88.24 68.6705 88.44 68.4805 88.67C68.2805 88.91 68.0505 89.19 67.6005 89.19C67.5305 89.19 67.4805 89.14 67.4805 89.07C67.4805 89 67.5305 88.95 67.6005 88.95C67.9405 88.95 68.1005 88.75 68.2905 88.52C68.4905 88.28 68.7205 88 69.1705 88Z" fill="#F45353"/>
<path d="M60.5103 86.1602C60.9603 86.1602 61.1903 86.4402 61.3903 86.6802C61.5803 86.9102 61.7503 87.1102 62.0903 87.1102C62.4303 87.1102 62.5903 86.9102 62.7903 86.6802C62.9903 86.4402 63.2203 86.1602 63.6703 86.1602C64.1203 86.1602 64.3503 86.4402 64.5503 86.6802C64.7403 86.9102 64.9103 87.1102 65.2503 87.1102C65.3203 87.1102 65.3703 87.1602 65.3703 87.2302C65.3703 87.3002 65.3203 87.3502 65.2503 87.3502C64.8003 87.3502 64.5703 87.0702 64.3703 86.8302C64.1803 86.6002 64.0103 86.4002 63.6703 86.4002C63.3303 86.4002 63.1703 86.6002 62.9703 86.8302C62.7703 87.0702 62.5403 87.3502 62.0903 87.3502C61.6403 87.3502 61.4103 87.0702 61.2103 86.8302C61.0203 86.6002 60.8503 86.4002 60.5103 86.4002C60.1703 86.4002 60.0103 86.6002 59.8203 86.8302C59.6203 87.0702 59.3903 87.3502 58.9403 87.3502C58.8703 87.3502 58.8203 87.3002 58.8203 87.2302C58.8203 87.1602 58.8703 87.1102 58.9403 87.1102C59.2803 87.1102 59.4403 86.9102 59.6303 86.6802C59.8303 86.4402 60.0603 86.1602 60.5103 86.1602Z" fill="#F45353"/>
<path d="M33.8902 88C34.3402 88 34.5702 88.28 34.7702 88.52C34.9602 88.75 35.1302 88.95 35.4702 88.95C35.8102 88.95 35.9702 88.75 36.1702 88.52C36.3702 88.28 36.6002 88 37.0502 88C37.5002 88 37.7302 88.28 37.9302 88.52C38.1202 88.75 38.2902 88.95 38.6302 88.95C38.7002 88.95 38.7502 89 38.7502 89.07C38.7502 89.14 38.7002 89.19 38.6302 89.19C38.1802 89.19 37.9502 88.91 37.7502 88.67C37.5602 88.44 37.3902 88.24 37.0502 88.24C36.7102 88.24 36.5502 88.44 36.3502 88.67C36.1502 88.91 35.9202 89.19 35.4702 89.19C35.0202 89.19 34.7902 88.91 34.5902 88.67C34.4002 88.44 34.2302 88.24 33.9002 88.24C33.5702 88.24 33.4002 88.44 33.2002 88.67C33.0002 88.91 32.7702 89.19 32.3202 89.19C32.2502 89.19 32.2002 89.14 32.2002 89.07C32.2002 89 32.2502 88.95 32.3202 88.95C32.6602 88.95 32.8202 88.75 33.0102 88.52C33.2102 88.28 33.4402 88 33.8902 88Z" fill="#F45353"/>
<path d="M41.9302 86.1602C42.3802 86.1602 42.6102 86.4402 42.8102 86.6802C43.0002 86.9102 43.1702 87.1102 43.5102 87.1102C43.8502 87.1102 44.0102 86.9102 44.2102 86.6802C44.4102 86.4402 44.6402 86.1602 45.0902 86.1602C45.5402 86.1602 45.7702 86.4402 45.9702 86.6802C46.1602 86.9102 46.3302 87.1102 46.6702 87.1102C46.7402 87.1102 46.7902 87.1602 46.7902 87.2302C46.7902 87.3002 46.7402 87.3502 46.6702 87.3502C46.2202 87.3502 45.9902 87.0702 45.7902 86.8302C45.6002 86.6002 45.4302 86.4002 45.0902 86.4002C44.7502 86.4002 44.5902 86.6002 44.3902 86.8302C44.1902 87.0702 43.9602 87.3502 43.5102 87.3502C43.0602 87.3502 42.8302 87.0702 42.6302 86.8302C42.4402 86.6002 42.2702 86.4002 41.9402 86.4002C41.6102 86.4002 41.4402 86.6002 41.2402 86.8302C41.0402 87.0702 40.8102 87.3502 40.3602 87.3502C40.2902 87.3502 40.2402 87.3002 40.2402 87.2302C40.2402 87.1602 40.2902 87.1102 40.3602 87.1102C40.7002 87.1102 40.8602 86.9102 41.0502 86.6802C41.2502 86.4402 41.4802 86.1602 41.9302 86.1602Z" fill="#F45353"/>
<path d="M48.9198 88C49.3698 88 49.5998 88.28 49.7998 88.52C49.9898 88.75 50.1598 88.95 50.4898 88.95C50.8198 88.95 50.9898 88.75 51.1798 88.52C51.3798 88.28 51.6098 88 52.0598 88C52.5098 88 52.7398 88.28 52.9398 88.52C53.1298 88.75 53.2998 88.95 53.6298 88.95C53.9598 88.95 54.1298 88.75 54.3198 88.52C54.5198 88.28 54.7498 88 55.1998 88C55.6498 88 55.8798 88.28 56.0798 88.52C56.2698 88.75 56.4398 88.95 56.7698 88.95C56.8398 88.95 56.8898 89 56.8898 89.07C56.8898 89.14 56.8398 89.19 56.7698 89.19C56.3198 89.19 56.0898 88.91 55.8898 88.67C55.6998 88.44 55.5298 88.24 55.1998 88.24C54.8698 88.24 54.6998 88.44 54.5098 88.67C54.3098 88.91 54.0798 89.19 53.6298 89.19C53.1798 89.19 52.9498 88.91 52.7498 88.67C52.5598 88.44 52.3898 88.24 52.0598 88.24C51.7298 88.24 51.5598 88.44 51.3698 88.67C51.1698 88.91 50.9398 89.19 50.4898 89.19C50.0398 89.19 49.8098 88.91 49.6098 88.67C49.4198 88.44 49.2498 88.24 48.9198 88.24C48.8498 88.24 48.7998 88.19 48.7998 88.12C48.7998 88.05 48.8498 88 48.9198 88Z" fill="#F45353"/>
<path d="M20.4604 112.59H16.1504V113.23H20.4604V112.59Z" fill="#B4B4B5"/>
<path d="M34.8996 114.21H29.3496V114.85H34.8996V114.21Z" fill="#B4B4B5"/>
<path d="M76.8698 112.25H64.0098V112.89H76.8698V112.25Z" fill="#B4B4B5"/>
<path d="M82.8504 112.25H81.6504V112.89H82.8504V112.25Z" fill="#B4B4B5"/>
<path d="M90.67 114.61H81.96V115.25H90.67V114.61Z" fill="#B4B4B5"/>
<path d="M34.8896 91.97H33.0596V92.61H34.8896V91.97Z" fill="#B4B4B5"/>
<path d="M43.5103 92.99H36.7803V93.63H43.5103V92.99Z" fill="#B4B4B5"/>
<path d="M64.0099 92.3701H62.9199V93.0101H64.0099V92.3701Z" fill="#B4B4B5"/>
<path d="M74.4805 93.45H67.7305V94.09H74.4805V93.45Z" fill="#B4B4B5"/>
</svg>
