<svg width="108" height="161" viewBox="0 0 108 161" fill="none" xmlns="http://www.w3.org/2000/svg">
<path d="M106.96 31.2538V28.3053C105.535 28.2134 104.409 27.2278 104.409 26.0084H101.6C101.6 27.2863 100.364 28.322 98.8397 28.322C97.3153 28.322 96.0798 27.2863 96.0798 26.0084H93.2601C93.2601 27.2863 92.0246 28.322 90.5001 28.322C88.9757 28.322 87.7402 27.2863 87.7402 26.0084H84.9205C84.9205 27.2863 83.685 28.322 82.1605 28.322C82.0908 28.322 82.031 28.3053 81.9613 28.3053C80.5365 28.2134 79.4106 27.2278 79.4106 26.0084H76.5908C76.5908 27.2863 75.3553 28.322 73.8309 28.322C72.3065 28.322 71.071 27.2863 71.071 26.0084H68.2512C68.2512 27.2863 67.0157 28.322 65.4913 28.322C63.9669 28.322 62.7314 27.2863 62.7314 26.0084H59.9017C59.9017 27.2863 58.6662 28.322 57.1417 28.322C55.6173 28.322 54.3818 27.2863 54.3818 26.0084H51.5521C51.5521 27.2863 50.3166 28.322 48.7922 28.322C47.2677 28.322 46.0322 27.2863 46.0322 26.0084H43.2125C43.2125 27.2863 41.977 28.322 40.4526 28.322C38.9281 28.322 37.6926 27.2863 37.6926 26.0084H34.8729C34.8729 27.2863 33.6374 28.322 32.113 28.322C30.5885 28.322 29.353 27.2863 29.353 26.0084H26.5233C26.5233 26.1002 26.5134 26.1921 26.5034 26.284C26.5034 26.309 26.5034 26.3257 26.5034 26.3508C26.4835 26.4427 26.4635 26.5429 26.4337 26.6264C26.4337 26.6431 26.4237 26.6682 26.4137 26.6849C26.1945 27.2863 25.6864 27.7791 25.0288 28.0547C24.6502 28.2218 24.2317 28.3137 23.7833 28.3137C22.2589 28.3137 21.0234 27.2779 21.0234 26H18.2037C18.2037 27.2779 16.9682 28.3137 15.4437 28.3137C13.9193 28.3137 12.6838 27.2779 12.6838 26H9.86405C9.86405 27.2779 8.62855 28.3137 7.10411 28.3137C5.57966 28.3137 4.34417 27.2779 4.34417 26H1.51448C1.51448 26.9021 0.896732 27.6705 0 28.0547V31.3206C1.19564 31.5712 2.08241 32.4732 2.08241 33.5591C2.08241 34.6449 1.19564 35.5386 0 35.7975V38.3117C1.19564 38.5622 2.08241 39.4643 2.08241 40.5501C2.08241 41.636 1.19564 42.5297 0 42.7886V45.3027C1.19564 45.5533 2.08241 46.4554 2.08241 47.5412C2.08241 48.6271 1.19564 49.5208 0 49.7797V52.2938C1.19564 52.5444 2.08241 53.4465 2.08241 54.5323C2.08241 55.6182 1.19564 56.5119 0 56.7708V59.2849C1.19564 59.5438 2.08241 60.4376 2.08241 61.5234C2.08241 62.6092 1.19564 63.503 0 63.7619V66.276C1.19564 66.5266 2.08241 67.4287 2.08241 68.5145C2.08241 69.6003 1.19564 70.494 0 70.753V73.2671C1.19564 73.5177 2.08241 74.4197 2.08241 75.5056C2.08241 76.5914 1.19564 77.4851 0 77.7441V80.2582C1.19564 80.5088 2.08241 81.4108 2.08241 82.4967C2.08241 83.5825 1.19564 84.4762 0 84.7351V87.2493C1.19564 87.4998 2.08241 88.4019 2.08241 89.4878C2.08241 90.5736 1.19564 91.4673 0 91.7262V94.2487C1.19564 94.4993 2.08241 95.4014 2.08241 96.4872C2.08241 97.573 1.19564 98.4667 0 98.7257V101.248C1.19564 101.499 2.08241 102.401 2.08241 103.487C2.08241 104.572 1.19564 105.466 0 105.725V108.248C1.19564 108.498 2.08241 109.4 2.08241 110.486C2.08241 111.572 1.19564 112.474 0 112.725V115.239C1.19564 115.498 2.08241 116.391 2.08241 117.477C2.08241 118.563 1.19564 119.457 0 119.716V122.23C1.19564 122.48 2.08241 123.382 2.08241 124.468C2.08241 125.554 1.19564 126.448 0 126.707V129.221C1.19564 129.48 2.08241 130.373 2.08241 131.459C2.08241 132.545 1.19564 133.447 0 133.698V136.212C1.19564 136.471 2.08241 137.365 2.08241 138.45C2.08241 139.536 1.19564 140.43 0 140.689V143.203C1.19564 143.454 2.08241 144.356 2.08241 145.442C2.08241 146.527 1.19564 147.421 0 147.68V150.194C1.19564 150.445 2.08241 151.347 2.08241 152.433C2.08241 153.518 1.19564 154.42 0 154.671V157.352C0.896732 157.736 1.51448 158.505 1.51448 159.407C1.51448 159.616 1.47463 159.808 1.41484 160H4.43384C4.37406 159.808 4.3342 159.616 4.3342 159.407C4.3342 158.129 5.5697 157.093 7.09414 157.093C8.61859 157.093 9.85408 158.129 9.85408 159.407C9.85408 159.616 9.81423 159.808 9.75445 160H12.7734C12.7137 159.808 12.6738 159.616 12.6738 159.407C12.6738 158.129 13.9093 157.093 15.4337 157.093C16.9582 157.093 18.1937 158.129 18.1937 159.407C18.1937 159.616 18.1538 159.808 18.094 160H21.113C21.0533 159.808 21.0134 159.616 21.0134 159.407C21.0134 158.129 22.2489 157.093 23.7734 157.093C24.2217 157.093 24.6402 157.194 25.0188 157.352C25.6764 157.636 26.1846 158.129 26.4038 158.73C26.4038 158.747 26.4237 158.772 26.4237 158.789C26.4536 158.881 26.4835 158.973 26.4934 159.065C26.4934 159.09 26.4934 159.106 26.4934 159.131C26.5034 159.223 26.5134 159.315 26.5134 159.407C26.5134 159.616 26.4735 159.808 26.4137 160H29.4427C29.3829 159.808 29.3431 159.616 29.3431 159.407C29.3431 158.129 30.5785 157.093 32.103 157.093C33.6274 157.093 34.8629 158.129 34.8629 159.407C34.8629 159.616 34.8231 159.808 34.7633 160H37.7923C37.7325 159.808 37.6926 159.616 37.6926 159.407C37.6926 158.129 38.9281 157.093 40.4526 157.093C41.977 157.093 43.2125 158.129 43.2125 159.407C43.2125 159.616 43.1726 159.808 43.1129 160H46.1418C46.082 159.808 46.0422 159.616 46.0422 159.407C46.0422 158.129 47.2777 157.093 48.8021 157.093C50.3266 157.093 51.5621 158.129 51.5621 159.407C51.5621 159.616 51.5222 159.808 51.4624 160H54.4914C54.4316 159.808 54.3918 159.616 54.3918 159.407C54.3918 158.129 55.6273 157.093 57.1517 157.093C58.6761 157.093 59.9116 158.129 59.9116 159.407C59.9116 159.616 59.8718 159.808 59.812 160H62.841C62.7812 159.808 62.7413 159.616 62.7413 159.407C62.7413 158.129 63.9768 157.093 65.5013 157.093C67.0257 157.093 68.2612 158.129 68.2612 159.407C68.2612 159.616 68.2214 159.808 68.1616 160H71.1905C71.1307 159.808 71.0909 159.616 71.0909 159.407C71.0909 158.129 72.3264 157.093 73.8508 157.093C75.3753 157.093 76.6108 158.129 76.6108 159.407C76.6108 159.616 76.5709 159.808 76.5111 160H79.5401C79.4803 159.808 79.4405 159.616 79.4405 159.407C79.4405 158.188 80.5664 157.202 81.9912 157.11C82.0609 157.11 82.1207 157.093 82.1904 157.093C83.7149 157.093 84.9504 158.129 84.9504 159.407C84.9504 159.616 84.9105 159.808 84.8507 160H87.8697C87.81 159.808 87.7701 159.616 87.7701 159.407C87.7701 158.129 89.0056 157.093 90.53 157.093C92.0545 157.093 93.29 158.129 93.29 159.407C93.29 159.616 93.2501 159.808 93.1903 160H96.2093C96.1496 159.808 96.1097 159.616 96.1097 159.407C96.1097 158.129 97.3452 157.093 98.8696 157.093C100.394 157.093 101.63 158.129 101.63 159.407C101.63 159.616 101.59 159.808 101.53 160H104.549C104.489 159.808 104.449 159.616 104.449 159.407C104.449 158.188 105.575 157.202 107 157.11V154.755C105.476 154.755 104.24 153.719 104.24 152.441C104.24 151.163 105.476 150.127 107 150.127V147.764C105.476 147.764 104.24 146.728 104.24 145.45C104.24 144.172 105.476 143.136 107 143.136V140.772C105.476 140.772 104.24 139.737 104.24 138.459C104.24 137.181 105.476 136.145 107 136.145V133.781C105.476 133.781 104.24 132.746 104.24 131.468C104.24 130.19 105.476 129.154 107 129.154V126.79C105.476 126.79 104.24 125.755 104.24 124.477C104.24 123.199 105.476 122.163 107 122.163V119.799C105.476 119.799 104.24 118.763 104.24 117.486C104.24 116.208 105.476 115.172 107 115.172V112.808C105.476 112.808 104.24 111.772 104.24 110.494C104.24 109.216 105.476 108.181 107 108.181V105.825C105.476 105.825 104.24 104.79 104.24 103.512C104.24 102.234 105.476 101.198 107 101.198V98.8426C105.476 98.8426 104.24 97.8069 104.24 96.529C104.24 95.251 105.476 94.2153 107 94.2153V91.8599C105.476 91.8599 104.24 90.8242 104.24 89.5462C104.24 88.2683 105.476 87.2326 107 87.2326V84.8771C105.476 84.8771 104.24 83.8414 104.24 82.5635C104.24 81.2855 105.476 80.2498 107 80.2498V77.8861C105.476 77.8861 104.24 76.8503 104.24 75.5724C104.24 74.2945 105.476 73.2587 107 73.2587V70.895C105.476 70.895 104.24 69.8593 104.24 68.5813C104.24 67.3034 105.476 66.2677 107 66.2677V63.9039C105.476 63.9039 104.24 62.8682 104.24 61.5902C104.24 60.3123 105.476 59.2766 107 59.2766V56.9128C105.476 56.9128 104.24 55.8771 104.24 54.5991C104.24 53.3212 105.476 52.2855 107 52.2855V49.9217C105.476 49.9217 104.24 48.886 104.24 47.6081C104.24 46.3301 105.476 45.2944 107 45.2944V42.9306C105.476 42.9306 104.24 41.8949 104.24 40.617C104.24 39.339 105.476 38.3033 107 38.3033V35.9395C105.476 35.9395 104.24 34.9038 104.24 33.6259C104.24 32.3479 105.476 31.3122 107 31.3122L106.96 31.2538Z" fill="#5E7EAD"/>
<path d="M96 37H12V119H96V37Z" fill="#F5F5F5"/>
<path d="M95 129H12V149H95V129Z" fill="#F3D084"/>
<path d="M23.056 134.192H29.728C29.984 134.192 30.172 134.224 30.292 134.288C30.412 134.344 30.492 134.436 30.532 134.564C30.572 134.692 30.592 134.86 30.592 135.068C30.592 135.276 30.572 135.444 30.532 135.572C30.492 135.692 30.424 135.776 30.328 135.824C30.184 135.896 29.98 135.932 29.716 135.932H27.424V141.968C27.424 142.152 27.416 142.288 27.4 142.376C27.392 142.464 27.356 142.568 27.292 142.688C27.236 142.8 27.132 142.88 26.98 142.928C26.828 142.976 26.628 143 26.38 143C26.132 143 25.932 142.976 25.78 142.928C25.636 142.88 25.532 142.8 25.468 142.688C25.412 142.568 25.376 142.464 25.36 142.376C25.352 142.28 25.348 142.14 25.348 141.956V135.932H23.044C22.788 135.932 22.6 135.904 22.48 135.848C22.36 135.784 22.28 135.688 22.24 135.56C22.2 135.432 22.18 135.264 22.18 135.056C22.18 134.848 22.2 134.684 22.24 134.564C22.28 134.436 22.348 134.348 22.444 134.3C22.588 134.228 22.792 134.192 23.056 134.192ZM36.6933 134.528C36.7573 134.408 36.8653 134.324 37.0173 134.276C37.1693 134.228 37.3613 134.204 37.5933 134.204C37.8253 134.204 38.0093 134.224 38.1453 134.264C38.2813 134.304 38.3853 134.352 38.4573 134.408C38.5293 134.464 38.5853 134.544 38.6253 134.648C38.6653 134.784 38.6853 134.992 38.6853 135.272V141.932C38.6853 142.116 38.6773 142.256 38.6613 142.352C38.6533 142.44 38.6173 142.544 38.5533 142.664C38.4413 142.88 38.1293 142.988 37.6173 142.988C37.0573 142.988 36.7293 142.84 36.6333 142.544C36.5853 142.408 36.5613 142.2 36.5613 141.92V139.484H33.3813V141.932C33.3813 142.116 33.3733 142.256 33.3573 142.352C33.3493 142.44 33.3133 142.544 33.2493 142.664C33.1373 142.88 32.8253 142.988 32.3133 142.988C31.7533 142.988 31.4253 142.84 31.3293 142.544C31.2813 142.408 31.2573 142.2 31.2573 141.92V135.26C31.2573 135.076 31.2613 134.94 31.2693 134.852C31.2853 134.756 31.3253 134.648 31.3893 134.528C31.5013 134.312 31.8133 134.204 32.3253 134.204C32.8853 134.204 33.2173 134.352 33.3213 134.648C33.3613 134.784 33.3813 134.992 33.3813 135.272V137.72H36.5613V135.26C36.5613 135.076 36.5653 134.94 36.5733 134.852C36.5893 134.756 36.6293 134.648 36.6933 134.528ZM44.724 134.828L47.964 141.524C48.1 141.796 48.168 142 48.168 142.136C48.168 142.424 47.936 142.684 47.472 142.916C47.2 143.052 46.984 143.12 46.824 143.12C46.672 143.12 46.544 143.084 46.44 143.012C46.344 142.94 46.272 142.864 46.224 142.784C46.184 142.704 46.124 142.584 46.044 142.424L45.42 141.128H42.096L41.472 142.424C41.392 142.584 41.328 142.7 41.28 142.772C41.24 142.844 41.168 142.92 41.064 143C40.968 143.072 40.84 143.108 40.68 143.108C40.528 143.108 40.316 143.04 40.044 142.904C39.58 142.68 39.348 142.424 39.348 142.136C39.348 142 39.416 141.796 39.552 141.524L42.792 134.816C42.88 134.632 43.012 134.484 43.188 134.372C43.372 134.26 43.564 134.204 43.764 134.204C44.196 134.204 44.516 134.412 44.724 134.828ZM43.752 137.708L42.96 139.352H44.556L43.752 137.708ZM48.8238 135.26C48.8238 135.076 48.8278 134.94 48.8358 134.852C48.8518 134.756 48.8918 134.648 48.9558 134.528C49.0678 134.312 49.3798 134.204 49.8918 134.204C50.4518 134.204 50.7838 134.352 50.8878 134.648C50.9278 134.784 50.9478 134.992 50.9478 135.272V141.944C50.9478 142.136 50.9398 142.276 50.9238 142.364C50.9158 142.452 50.8798 142.556 50.8158 142.676C50.7038 142.892 50.3918 143 49.8798 143C49.3198 143 48.9918 142.848 48.8958 142.544C48.8478 142.416 48.8238 142.212 48.8238 141.932V135.26ZM54.0298 141.224H57.2938C57.5578 141.224 57.7498 141.256 57.8698 141.32C57.9898 141.376 58.0698 141.468 58.1098 141.596C58.1498 141.724 58.1698 141.896 58.1698 142.112C58.1698 142.32 58.1498 142.488 58.1098 142.616C58.0698 142.744 58.0018 142.832 57.9058 142.88C57.7538 142.96 57.5458 143 57.2818 143H52.9618C52.4018 143 52.0738 142.848 51.9778 142.544C51.9298 142.416 51.9058 142.212 51.9058 141.932V135.26C51.9058 135.076 51.9098 134.94 51.9178 134.852C51.9338 134.756 51.9738 134.648 52.0378 134.528C52.1498 134.312 52.4618 134.204 52.9738 134.204C53.5338 134.204 53.8658 134.352 53.9698 134.648C54.0098 134.784 54.0298 134.992 54.0298 135.272V141.224ZM64.0248 134.828L67.2648 141.524C67.4008 141.796 67.4688 142 67.4688 142.136C67.4688 142.424 67.2368 142.684 66.7728 142.916C66.5008 143.052 66.2848 143.12 66.1248 143.12C65.9728 143.12 65.8448 143.084 65.7408 143.012C65.6448 142.94 65.5728 142.864 65.5247 142.784C65.4848 142.704 65.4248 142.584 65.3448 142.424L64.7208 141.128H61.3968L60.7728 142.424C60.6928 142.584 60.6288 142.7 60.5808 142.772C60.5408 142.844 60.4688 142.92 60.3648 143C60.2688 143.072 60.1408 143.108 59.9808 143.108C59.8288 143.108 59.6168 143.04 59.3448 142.904C58.8808 142.68 58.6488 142.424 58.6488 142.136C58.6488 142 58.7168 141.796 58.8528 141.524L62.0928 134.816C62.1808 134.632 62.3128 134.484 62.4888 134.372C62.6728 134.26 62.8648 134.204 63.0648 134.204C63.4968 134.204 63.8168 134.412 64.0248 134.828ZM63.0528 137.708L62.2608 139.352H63.8568L63.0528 137.708ZM73.8005 134.576C73.8805 134.432 73.9965 134.336 74.1485 134.288C74.3005 134.24 74.4885 134.216 74.7125 134.216C74.9445 134.216 75.1285 134.236 75.2645 134.276C75.4085 134.316 75.5125 134.364 75.5765 134.42C75.6485 134.476 75.7005 134.56 75.7325 134.672C75.7805 134.8 75.8045 135.004 75.8045 135.284V141.944C75.8045 142.136 75.7965 142.276 75.7805 142.364C75.7725 142.452 75.7365 142.556 75.6725 142.676C75.5605 142.892 75.2485 143 74.7365 143C74.4245 143 74.2085 142.976 74.0885 142.928C73.9685 142.88 73.8685 142.804 73.7885 142.7C71.9885 140.3 70.8045 138.732 70.2365 137.996V141.944C70.2365 142.136 70.2285 142.276 70.2125 142.364C70.2045 142.452 70.1685 142.556 70.1045 142.676C69.9925 142.892 69.6805 143 69.1685 143C68.6725 143 68.3685 142.892 68.2565 142.676C68.1925 142.556 68.1525 142.448 68.1365 142.352C68.1285 142.256 68.1245 142.116 68.1245 141.932V135.236C68.1245 134.932 68.1605 134.712 68.2325 134.576C68.3125 134.432 68.4285 134.336 68.5805 134.288C68.7325 134.24 68.9285 134.216 69.1685 134.216C69.4085 134.216 69.5965 134.24 69.7325 134.288C69.8765 134.328 69.9765 134.376 70.0325 134.432C70.0645 134.456 70.1565 134.56 70.3085 134.744C71.9965 137.04 73.1245 138.556 73.6925 139.292V135.236C73.6925 134.932 73.7285 134.712 73.8005 134.576ZM77.8293 134.192L80.0493 134.204C81.2093 134.204 82.2293 134.624 83.1093 135.464C83.9893 136.296 84.4293 137.324 84.4293 138.548C84.4293 139.764 83.9973 140.808 83.1333 141.68C82.2773 142.552 81.2373 142.988 80.0133 142.988H77.8173C77.3293 142.988 77.0253 142.888 76.9053 142.688C76.8093 142.52 76.7613 142.264 76.7613 141.92V135.248C76.7613 135.056 76.7653 134.916 76.7733 134.828C76.7893 134.74 76.8293 134.636 76.8933 134.516C77.0053 134.3 77.3173 134.192 77.8293 134.192ZM80.0493 140.864C80.6253 140.864 81.1453 140.652 81.6093 140.228C82.0733 139.796 82.3053 139.256 82.3053 138.608C82.3053 137.96 82.0773 137.42 81.6213 136.988C81.1733 136.548 80.6453 136.328 80.0373 136.328H78.8853V140.864H80.0493Z" fill="#073B64"/>
<path d="M9 34V152H98V34H53.5H9ZM96.5985 35.1608V126.732H10.4114V35.1608H96.5985ZM10.4114 150.839V127.885H96.5985V150.839H10.4114Z" fill="white"/>
<path d="M95.7304 44.9099V119.05H12.4004V44.9099C24.0304 53.5699 38.4504 58.6899 54.0604 58.6899C69.6704 58.6899 84.0904 53.5699 95.7304 44.9099Z" fill="#E0E0E0"/>
<path d="M34.0604 99.51H38.7504C36.1604 99.51 34.0604 97.41 34.0604 94.82V76.57C34.0604 73.98 36.1604 71.88 38.7504 71.88H48.3004C46.9804 71.88 45.9104 70.81 45.9104 69.49L43.8804 69.52C42.8404 69.53 41.9804 68.69 41.9804 67.65V56.55C41.9804 54.41 43.7104 52.68 45.8504 52.68H47.3604C47.1804 52.37 47.0804 52.03 47.0804 51.67C47.0804 50.2 48.7104 49.01 50.7304 49.01C52.7504 49.01 54.3804 50.2 54.3804 51.67C54.3804 52.03 54.2804 52.37 54.1004 52.68H55.1204C57.2604 52.68 58.9904 54.41 58.9904 56.55V66.95C58.9904 69.68 56.7804 71.9 54.0404 71.9H62.7104C65.3004 71.9 67.4004 74 67.4004 76.59V94.84C67.4004 97.43 65.3004 99.53 62.7104 99.53H68.3804C71.2404 99.53 73.5604 101.85 73.5604 104.71C73.5604 107.57 71.2404 109.89 68.3804 109.89H34.0404C31.1804 109.89 28.8604 107.57 28.8604 104.71C28.8604 101.85 31.1804 99.53 34.0404 99.53L34.0604 99.51Z" fill="#10A68B"/>
<path d="M34.0596 99.51H42.4597C42.4896 102.02 45.0596 104.17 48.7596 105.14C48.7097 105.32 48.6796 105.5 48.6796 105.69C48.6796 107.32 50.6696 108.65 53.1196 108.65C55.5697 108.65 57.5596 107.32 57.5596 105.69C57.5596 105.5 57.5296 105.32 57.4797 105.14C61.1697 104.17 63.7496 102.02 63.7796 99.51H68.4097C71.2697 99.51 73.5897 101.83 73.5897 104.69C73.5897 107.55 71.2697 109.87 68.4097 109.87H34.0696C31.2096 109.87 28.8896 107.55 28.8896 104.69C28.8896 101.83 31.2096 99.51 34.0696 99.51H34.0596Z" fill="#0A8F84"/>
<path d="M42.4592 99.51H63.7692C63.7392 102.02 61.1692 104.17 57.4692 105.14C57.5192 105.32 57.5492 105.5 57.5492 105.69C57.5492 107.32 55.5592 108.65 53.1092 108.65C50.6592 108.65 48.6692 107.32 48.6692 105.69C48.6692 105.5 48.6992 105.32 48.7492 105.14C45.0592 104.17 42.4792 102.02 42.4492 99.51H42.4592Z" fill="#0CAA93"/>
<path d="M38.7802 99.51H62.6902C65.2969 99.51 67.4102 97.3968 67.4102 94.79V76.6C67.4102 73.9932 65.2969 71.88 62.6902 71.88H38.7802C36.1734 71.88 34.0602 73.9932 34.0602 76.6V94.79C34.0602 97.3968 36.1734 99.51 38.7802 99.51Z" fill="#13A788"/>
<path d="M38.7496 71.8899C41.3396 71.8899 43.4396 73.9899 43.4396 76.5799V91.0799H62.3296V71.8899H62.7196C65.3096 71.8899 67.4096 73.9899 67.4096 76.5799V94.8299C67.4096 97.4199 65.3096 99.5199 62.7196 99.5199H38.7496C36.1596 99.5199 34.0596 97.4199 34.0596 94.8299V76.5799C34.0596 73.9899 36.1596 71.8899 38.7496 71.8899Z" fill="#0D8F83"/>
<path d="M54.7798 85.7H58.2598V84.0499H54.7798V85.7Z" fill="#C48847"/>
<path d="M47.8198 85.7H51.2998V84.0499H47.8198V85.7Z" fill="#C48847"/>
<path d="M49.8504 92.51H51.6304V93.74H50.7404C50.2804 93.74 49.9004 94.12 49.9004 94.58C49.9004 95.04 50.2804 95.42 50.7404 95.42H55.4804C55.9404 95.42 56.3204 95.04 56.3204 94.58C56.3204 94.12 55.9404 93.74 55.4804 93.74H54.4704V92.51H56.3704C58.3004 92.51 59.8704 94.08 59.8704 96.01C59.8704 97.94 58.3004 99.51 56.3704 99.51H49.8604C47.9304 99.51 46.3604 97.94 46.3604 96.01C46.3604 94.08 47.9304 92.51 49.8604 92.51H49.8504Z" fill="#40BFAB"/>
<path d="M58.2603 71.8899V85.8599C58.2603 88.7399 55.9203 91.0799 53.0403 91.0799C50.1603 91.0799 47.8203 88.7399 47.8203 85.8599V71.8899L47.9103 71.9399C51.1003 73.8299 55.0803 73.8099 58.2503 71.8899H58.2603Z" fill="#44BDAB"/>
<path d="M47.9201 71.9399L47.8301 71.8899H58.2601C55.0901 73.8199 51.1101 73.8399 47.9201 71.9399Z" fill="#07A688"/>
<path d="M45.8497 52.6699H55.1197C57.2597 52.6699 58.9897 54.3999 58.9897 56.5399V56.8099H47.8197V59.8399C47.8197 60.8899 46.9497 61.7299 45.8997 61.6899V69.4799L43.8697 69.5099C42.8297 69.5199 41.9697 68.6799 41.9697 67.6399V56.5399C41.9697 54.3999 43.6997 52.6699 45.8397 52.6699H45.8497Z" fill="#10A68B"/>
<path d="M47.8294 59.8498V56.8198H58.9994V66.9498C58.9994 69.6798 56.7894 71.8998 54.0494 71.8998H48.2894C46.9694 71.8998 45.8994 70.8298 45.8994 69.5098V61.7198C46.9494 61.7598 47.8194 60.9198 47.8194 59.8698L47.8294 59.8498Z" fill="#44BDAC"/>
<path d="M47.0898 51.66C47.0898 53.13 48.7198 54.32 50.7398 54.32C52.7598 54.32 54.3898 53.13 54.3898 51.66C54.3898 50.19 52.7598 49 50.7398 49C48.7198 49 47.0898 50.19 47.0898 51.66Z" fill="#10A68B"/>
<path d="M53.25 59.2601C53.25 59.7501 53.65 60.1501 54.14 60.1501C54.63 60.1501 55.03 59.7501 55.03 59.2601C55.03 58.7701 54.63 58.3701 54.14 58.3701C53.65 58.3701 53.25 58.7701 53.25 59.2601Z" fill="#10A68B"/>
<path d="M55.0296 62.1699C55.0296 62.1699 54.7896 62.4199 54.8796 62.9299C54.9196 63.1699 55.0696 63.4599 55.3296 63.6799C55.5796 63.9099 55.9496 64.0299 56.3096 64.0399C56.4496 64.0399 56.6796 63.9999 56.8496 63.9399C57.0196 63.8899 57.1696 63.7799 57.2996 63.6799C57.5596 63.4599 57.6996 63.1799 57.7496 62.9299C57.8496 62.4199 57.5896 62.1599 57.5996 62.1599C57.5996 62.1599 57.4096 62.4299 57.1496 62.5999C57.0196 62.6899 56.8696 62.7499 56.7296 62.7899C56.6596 62.8199 56.5796 62.8099 56.5196 62.8299C56.4496 62.8399 56.4196 62.8299 56.3096 62.8399C56.0396 62.8399 55.7496 62.7699 55.4796 62.5899C55.2196 62.4199 55.0296 62.1499 55.0296 62.1499V62.1699Z" fill="#0D8F83"/>
<path d="M50.2903 62.1699C50.2903 62.1699 50.0503 62.4199 50.1403 62.9299C50.1803 63.1699 50.3303 63.4599 50.5903 63.6799C50.8403 63.9099 51.2103 64.0299 51.5703 64.0399C51.7103 64.0399 51.9403 63.9999 52.1103 63.9399C52.2803 63.8899 52.4303 63.7799 52.5603 63.6799C52.8203 63.4599 52.9603 63.1799 53.0103 62.9299C53.1103 62.4199 52.8503 62.1599 52.8603 62.1599C52.8603 62.1599 52.6703 62.4299 52.4103 62.5999C52.2803 62.6899 52.1303 62.7499 51.9903 62.7899C51.9203 62.8199 51.8403 62.8099 51.7803 62.8299C51.7103 62.8399 51.6803 62.8299 51.5703 62.8399C51.3003 62.8399 51.0103 62.7699 50.7403 62.5899C50.4803 62.4199 50.2903 62.1499 50.2903 62.1499V62.1699Z" fill="#0D8F83"/>
<path d="M55.4204 69.1101C55.2004 69.6001 54.7104 69.9401 54.1404 69.9401C53.5704 69.9401 53.0804 69.6001 52.8604 69.1101H55.4304H55.4204Z" fill="#0D8F83"/>
<path d="M53.4004 67.01C53.4004 67.2 53.7304 67.18 54.1404 67.18C54.5504 67.18 54.8804 67.21 54.8804 67.01C54.8804 66.81 54.5504 66.54 54.1404 66.54C53.7304 66.54 53.4004 66.82 53.4004 67.01Z" fill="#0D8F83"/>
<path d="M28.0001 113.73H74.6201V109.88H28.0001V113.73Z" fill="#91949B"/>
<path d="M29 119H73V114H29V119Z" fill="#B8BBC1"/>
</svg>
