<svg width="108" height="161" viewBox="0 0 108 161" fill="none" xmlns="http://www.w3.org/2000/svg">
<path d="M106.96 31.2538V28.3053C105.535 28.2134 104.409 27.2278 104.409 26.0084H101.6C101.6 27.2863 100.364 28.322 98.8397 28.322C97.3153 28.322 96.0798 27.2863 96.0798 26.0084H93.2701C93.2701 27.2863 92.0345 28.322 90.5101 28.322C88.9857 28.322 87.7502 27.2863 87.7502 26.0084H84.9304C84.9304 27.2863 83.6949 28.322 82.1705 28.322C82.1008 28.322 82.041 28.3053 81.9712 28.3053C80.5464 28.2134 79.4205 27.2278 79.4205 26.0084H76.6008C76.6008 27.2863 75.3653 28.322 73.8409 28.322C72.3164 28.322 71.0809 27.2863 71.0809 26.0084H68.2612C68.2612 27.2863 67.0257 28.322 65.5013 28.322C63.9768 28.322 62.7413 27.2863 62.7413 26.0084H59.9116C59.9116 27.2863 58.6761 28.322 57.1517 28.322C55.6273 28.322 54.3918 27.2863 54.3918 26.0084H51.5621C51.5621 27.2863 50.3266 28.322 48.8021 28.322C47.2777 28.322 46.0422 27.2863 46.0422 26.0084H43.2225C43.2225 27.2863 41.987 28.322 40.4625 28.322C38.9381 28.322 37.7026 27.2863 37.7026 26.0084H34.8829C34.8829 27.2863 33.6474 28.322 32.1229 28.322C30.5985 28.322 29.363 27.2863 29.363 26.0084H26.5333C26.5333 26.1002 26.5233 26.1921 26.5134 26.284C26.5134 26.309 26.5134 26.3257 26.5134 26.3508C26.4934 26.4427 26.4735 26.5429 26.4436 26.6264C26.4436 26.6431 26.4337 26.6682 26.4237 26.6849C26.2045 27.2863 25.6963 27.7791 25.0387 28.0547C24.6601 28.2218 24.2416 28.3137 23.7933 28.3137C22.2688 28.3137 21.0333 27.2779 21.0333 26H18.2136C18.2136 27.2779 16.9781 28.3137 15.4537 28.3137C13.9292 28.3137 12.6937 27.2779 12.6937 26H9.87401C9.87401 27.2779 8.63851 28.3137 7.11407 28.3137C5.58963 28.3137 4.35413 27.2779 4.35413 26H1.51448C1.51448 26.9021 0.896732 27.6705 0 28.0547V31.3206C1.19564 31.5712 2.08241 32.4732 2.08241 33.5591C2.08241 34.6449 1.19564 35.5386 0 35.7975V38.3117C1.19564 38.5622 2.08241 39.4643 2.08241 40.5501C2.08241 41.636 1.19564 42.5297 0 42.7886V45.3027C1.19564 45.5533 2.08241 46.4554 2.08241 47.5412C2.08241 48.6271 1.19564 49.5208 0 49.7797V52.2938C1.19564 52.5444 2.08241 53.4465 2.08241 54.5323C2.08241 55.6182 1.19564 56.5119 0 56.7708V59.2849C1.19564 59.5438 2.08241 60.4376 2.08241 61.5234C2.08241 62.6092 1.19564 63.503 0 63.7619V66.276C1.19564 66.5266 2.08241 67.4287 2.08241 68.5145C2.08241 69.6003 1.19564 70.494 0 70.753V73.2671C1.19564 73.5177 2.08241 74.4197 2.08241 75.5056C2.08241 76.5914 1.19564 77.4851 0 77.7441V80.2582C1.19564 80.5088 2.08241 81.4108 2.08241 82.4967C2.08241 83.5825 1.19564 84.4762 0 84.7351V87.2493C1.19564 87.4998 2.08241 88.4019 2.08241 89.4878C2.08241 90.5736 1.19564 91.4673 0 91.7262V94.2487C1.19564 94.4993 2.08241 95.4014 2.08241 96.4872C2.08241 97.573 1.19564 98.4667 0 98.7257V101.248C1.19564 101.499 2.08241 102.401 2.08241 103.487C2.08241 104.572 1.19564 105.466 0 105.725V108.248C1.19564 108.498 2.08241 109.4 2.08241 110.486C2.08241 111.572 1.19564 112.474 0 112.725V115.239C1.19564 115.498 2.08241 116.391 2.08241 117.477C2.08241 118.563 1.19564 119.457 0 119.716V122.23C1.19564 122.48 2.08241 123.382 2.08241 124.468C2.08241 125.554 1.19564 126.448 0 126.707V129.221C1.19564 129.48 2.08241 130.373 2.08241 131.459C2.08241 132.545 1.19564 133.447 0 133.698V136.212C1.19564 136.471 2.08241 137.365 2.08241 138.45C2.08241 139.536 1.19564 140.43 0 140.689V143.203C1.19564 143.454 2.08241 144.356 2.08241 145.442C2.08241 146.527 1.19564 147.421 0 147.68V150.194C1.19564 150.445 2.08241 151.347 2.08241 152.433C2.08241 153.518 1.19564 154.42 0 154.671V157.352C0.896732 157.736 1.51448 158.505 1.51448 159.407C1.51448 159.616 1.47463 159.808 1.41484 160H4.43384C4.37406 159.808 4.3342 159.616 4.3342 159.407C4.3342 158.129 5.5697 157.093 7.09414 157.093C8.61859 157.093 9.85408 158.129 9.85408 159.407C9.85408 159.616 9.81423 159.808 9.75445 160H12.7734C12.7137 159.808 12.6738 159.616 12.6738 159.407C12.6738 158.129 13.9093 157.093 15.4337 157.093C16.9582 157.093 18.1937 158.129 18.1937 159.407C18.1937 159.616 18.1538 159.808 18.094 160H21.113C21.0533 159.808 21.0134 159.616 21.0134 159.407C21.0134 158.129 22.2489 157.093 23.7734 157.093C24.2217 157.093 24.6402 157.194 25.0188 157.352C25.6764 157.636 26.1846 158.129 26.4038 158.73C26.4038 158.747 26.4237 158.772 26.4237 158.789C26.4536 158.881 26.4835 158.973 26.4934 159.065C26.4934 159.09 26.4934 159.106 26.4934 159.131C26.5034 159.223 26.5134 159.315 26.5134 159.407C26.5134 159.616 26.4735 159.808 26.4137 160H29.4427C29.3829 159.808 29.3431 159.616 29.3431 159.407C29.3431 158.129 30.5785 157.093 32.103 157.093C33.6274 157.093 34.8629 158.129 34.8629 159.407C34.8629 159.616 34.8231 159.808 34.7633 160H37.7923C37.7325 159.808 37.6926 159.616 37.6926 159.407C37.6926 158.129 38.9281 157.093 40.4526 157.093C41.977 157.093 43.2125 158.129 43.2125 159.407C43.2125 159.616 43.1726 159.808 43.1129 160H46.1418C46.082 159.808 46.0422 159.616 46.0422 159.407C46.0422 158.129 47.2777 157.093 48.8021 157.093C50.3266 157.093 51.5621 158.129 51.5621 159.407C51.5621 159.616 51.5222 159.808 51.4624 160H54.4914C54.4316 159.808 54.3918 159.616 54.3918 159.407C54.3918 158.129 55.6273 157.093 57.1517 157.093C58.6761 157.093 59.9116 158.129 59.9116 159.407C59.9116 159.616 59.8718 159.808 59.812 160H62.841C62.7812 159.808 62.7413 159.616 62.7413 159.407C62.7413 158.129 63.9768 157.093 65.5013 157.093C67.0257 157.093 68.2612 158.129 68.2612 159.407C68.2612 159.616 68.2214 159.808 68.1616 160H71.1905C71.1307 159.808 71.0909 159.616 71.0909 159.407C71.0909 158.129 72.3264 157.093 73.8508 157.093C75.3753 157.093 76.6108 158.129 76.6108 159.407C76.6108 159.616 76.5709 159.808 76.5111 160H79.5401C79.4803 159.808 79.4405 159.616 79.4405 159.407C79.4405 158.188 80.5664 157.202 81.9912 157.11C82.0609 157.11 82.1207 157.093 82.1904 157.093C83.7149 157.093 84.9504 158.129 84.9504 159.407C84.9504 159.616 84.9105 159.808 84.8507 160H87.8697C87.81 159.808 87.7701 159.616 87.7701 159.407C87.7701 158.129 89.0056 157.093 90.53 157.093C92.0545 157.093 93.29 158.129 93.29 159.407C93.29 159.616 93.2501 159.808 93.1903 160H96.2093C96.1496 159.808 96.1097 159.616 96.1097 159.407C96.1097 158.129 97.3452 157.093 98.8696 157.093C100.394 157.093 101.63 158.129 101.63 159.407C101.63 159.616 101.59 159.808 101.53 160H104.549C104.489 159.808 104.449 159.616 104.449 159.407C104.449 158.188 105.575 157.202 107 157.11V154.755C105.476 154.755 104.24 153.719 104.24 152.441C104.24 151.163 105.476 150.127 107 150.127V147.764C105.476 147.764 104.24 146.728 104.24 145.45C104.24 144.172 105.476 143.136 107 143.136V140.772C105.476 140.772 104.24 139.737 104.24 138.459C104.24 137.181 105.476 136.145 107 136.145V133.781C105.476 133.781 104.24 132.746 104.24 131.468C104.24 130.19 105.476 129.154 107 129.154V126.79C105.476 126.79 104.24 125.755 104.24 124.477C104.24 123.199 105.476 122.163 107 122.163V119.799C105.476 119.799 104.24 118.763 104.24 117.486C104.24 116.208 105.476 115.172 107 115.172V112.808C105.476 112.808 104.24 111.772 104.24 110.494C104.24 109.216 105.476 108.181 107 108.181V105.825C105.476 105.825 104.24 104.79 104.24 103.512C104.24 102.234 105.476 101.198 107 101.198V98.8426C105.476 98.8426 104.24 97.8069 104.24 96.529C104.24 95.251 105.476 94.2153 107 94.2153V91.8599C105.476 91.8599 104.24 90.8242 104.24 89.5462C104.24 88.2683 105.476 87.2326 107 87.2326V84.8771C105.476 84.8771 104.24 83.8414 104.24 82.5635C104.24 81.2855 105.476 80.2498 107 80.2498V77.8861C105.476 77.8861 104.24 76.8503 104.24 75.5724C104.24 74.2945 105.476 73.2587 107 73.2587V70.895C105.476 70.895 104.24 69.8593 104.24 68.5813C104.24 67.3034 105.476 66.2677 107 66.2677V63.9039C105.476 63.9039 104.24 62.8682 104.24 61.5902C104.24 60.3123 105.476 59.2766 107 59.2766V56.9128C105.476 56.9128 104.24 55.8771 104.24 54.5991C104.24 53.3212 105.476 52.2855 107 52.2855V49.9217C105.476 49.9217 104.24 48.886 104.24 47.6081C104.24 46.3301 105.476 45.2944 107 45.2944V42.9306C105.476 42.9306 104.24 41.8949 104.24 40.617C104.24 39.339 105.476 38.3033 107 38.3033V35.9395C105.476 35.9395 104.24 34.9038 104.24 33.6259C104.24 32.3479 105.476 31.3122 107 31.3122L106.96 31.2538Z" fill="#5E7EAD"/>
<path d="M95 130H12V149H95V130Z" fill="#ADC4F0"/>
<path d="M9 34V152H98V34H9ZM96.5985 35.1608V126.732H10.4114V35.1608H96.5985ZM10.4114 150.839V127.885H96.5985V150.839H10.4114Z" fill="white"/>
<path d="M95 37H12V119H95V37Z" fill="#F5F5F5"/>
<path d="M51.228 134.918C51.308 134.79 51.424 134.702 51.576 134.654C51.728 134.606 51.916 134.582 52.14 134.582C52.372 134.582 52.556 134.602 52.692 134.642C52.828 134.682 52.932 134.73 53.004 134.786C53.076 134.842 53.128 134.926 53.16 135.038C53.208 135.174 53.232 135.382 53.232 135.662V139.286C53.232 140.342 52.904 141.302 52.248 142.166C51.928 142.574 51.516 142.906 51.012 143.162C50.508 143.41 49.948 143.534 49.332 143.534C48.724 143.534 48.168 143.406 47.664 143.15C47.168 142.894 46.764 142.558 46.452 142.142C45.804 141.294 45.48 140.334 45.48 139.262V135.65C45.48 135.458 45.484 135.318 45.492 135.23C45.508 135.134 45.548 135.026 45.612 134.906C45.676 134.786 45.784 134.702 45.936 134.654C46.088 134.606 46.292 134.582 46.548 134.582C46.804 134.582 47.008 134.606 47.16 134.654C47.312 134.702 47.416 134.786 47.472 134.906C47.568 135.09 47.616 135.342 47.616 135.662V139.262C47.616 139.75 47.736 140.214 47.976 140.654C48.096 140.878 48.276 141.058 48.516 141.194C48.756 141.33 49.04 141.398 49.368 141.398C49.952 141.398 50.388 141.182 50.676 140.75C50.964 140.318 51.108 139.818 51.108 139.25V135.578C51.108 135.266 51.148 135.046 51.228 134.918ZM57.955 138.974C59.179 140.15 60.047 141.034 60.559 141.626C60.823 141.922 60.955 142.174 60.955 142.382C60.955 142.582 60.795 142.822 60.475 143.102C60.155 143.374 59.891 143.51 59.683 143.51C59.483 143.51 59.239 143.342 58.951 143.006L56.311 139.994V142.334C56.311 142.526 56.303 142.666 56.287 142.754C56.279 142.842 56.243 142.946 56.179 143.066C56.067 143.282 55.755 143.39 55.243 143.39C54.683 143.39 54.355 143.238 54.259 142.934C54.211 142.806 54.187 142.602 54.187 142.322V135.65C54.187 135.466 54.191 135.33 54.199 135.242C54.215 135.146 54.255 135.038 54.319 134.918C54.431 134.702 54.743 134.594 55.255 134.594C55.815 134.594 56.147 134.742 56.251 135.038C56.291 135.174 56.311 135.382 56.311 135.662V137.954C57.399 136.73 58.279 135.726 58.951 134.942C59.231 134.614 59.475 134.45 59.683 134.45C59.891 134.45 60.155 134.59 60.475 134.87C60.795 135.142 60.955 135.382 60.955 135.59C60.955 135.79 60.835 136.03 60.595 136.31C60.131 136.846 59.411 137.582 58.435 138.518L57.955 138.974Z" fill="#073B64"/>
<path d="M95.3398 45.05V119.19H12.0098V45.05C23.6398 53.71 38.0598 58.8301 53.6698 58.8301C69.2798 58.8301 83.6998 53.71 95.3398 45.05Z" fill="#E0E0E0"/>
<path d="M68.1378 109.916H44.6973V119.09H68.1378V109.916Z" fill="#F58258"/>
<path d="M67.243 110.345H45.5922C43.948 110.345 42.6094 109.014 42.6094 107.362C42.6094 105.718 43.9407 104.38 45.5922 104.38H67.243C68.8872 104.38 70.2258 105.711 70.2258 107.362C70.2258 109.007 68.8944 110.345 67.243 110.345Z" fill="#E55D43"/>
<path d="M60.8917 56.131L54.526 45H51.8778L48.6768 63.297H60.8917V56.131Z" fill="#F58258"/>
<path d="M63.7501 109.916H40.3096V119.09H63.7501V109.916Z" fill="#FED455"/>
<path d="M62.8553 110.345H41.2045C39.5603 110.345 38.2217 109.014 38.2217 107.362C38.2217 105.718 39.553 104.38 41.2045 104.38H62.8553C64.4995 104.38 65.8381 105.711 65.8381 107.362C65.8381 109.007 64.5068 110.345 62.8553 110.345Z" fill="#F58258"/>
<path d="M45.5258 119.09H42.1865V113.961C42.1865 113.037 42.9359 112.295 43.8525 112.295C44.7765 112.295 45.5185 113.045 45.5185 113.961V119.09H45.5258Z" fill="#F58258"/>
<path d="M50.975 119.09H47.6357V113.961C47.6357 113.037 48.3851 112.295 49.3017 112.295C50.2257 112.295 50.9678 113.045 50.9678 113.961V119.09H50.975Z" fill="#F58258"/>
<path d="M56.4164 119.09H53.0771V113.961C53.0771 113.037 53.8265 112.295 54.7432 112.295C55.6671 112.295 56.4092 113.045 56.4092 113.961V119.09H56.4164Z" fill="#F58258"/>
<path d="M61.8657 119.09H58.5264V113.961C58.5264 113.037 59.2757 112.295 60.1924 112.295C61.1163 112.295 61.8584 113.045 61.8584 113.961V119.09H61.8657Z" fill="#F58258"/>
<path d="M60.8917 63.2969H48.7495L43.0312 68.3531V74.8061H66.4717V68.3531L60.8917 63.2969Z" fill="#F58258"/>
<path d="M67.9411 74.8062H43.6203C42.0372 74.8062 40.7539 76.0895 40.7539 77.6726V101.993C40.7539 103.576 42.0372 104.86 43.6203 104.86H67.9411C69.5242 104.86 70.8075 103.576 70.8075 101.993V77.6726C70.8075 76.0895 69.5242 74.8062 67.9411 74.8062Z" fill="#F58258"/>
<path d="M64.1872 74.8062H39.8664C38.2833 74.8062 37 76.0895 37 77.6726V101.993C37 103.576 38.2833 104.86 39.8664 104.86H64.1872C65.7703 104.86 67.0536 103.576 67.0536 101.993V77.6726C67.0536 76.0895 65.7703 74.8062 64.1872 74.8062Z" fill="#FED455"/>
<path d="M60.2078 79.0913H43.8387C42.4284 79.0913 41.2852 80.2346 41.2852 81.6449V98.0139C41.2852 99.4242 42.4284 100.568 43.8387 100.568H60.2078C61.6181 100.568 62.7614 99.4242 62.7614 98.0139V81.6449C62.7614 80.2346 61.6181 79.0913 60.2078 79.0913Z" fill="#5F3D51"/>
<path d="M62.4689 92.3171C63.8443 86.5483 60.2827 80.7568 54.5139 79.3814C48.7451 78.006 42.9536 81.5676 41.5782 87.3364C40.2029 93.1052 43.7644 98.8967 49.5332 100.272C55.302 101.647 61.0935 98.0859 62.4689 92.3171Z" fill="#FAF3EB"/>
<path d="M58.17 63.2969H46.0278L40.3096 68.3531V74.8061H63.7501V68.3531L58.17 63.2969Z" fill="#FED455"/>
<path d="M58.1705 56.131L51.8775 45L46.0283 56.131V63.297H58.1705V56.131Z" fill="#FED455"/>
<path d="M46.8072 74.8064H42.6895V71.1106C42.6895 69.9757 43.6134 69.0518 44.7483 69.0518C45.8832 69.0518 46.8072 69.9757 46.8072 71.1106V74.8064Z" fill="#F58258"/>
<path d="M54.0894 74.8064H49.9717V71.1106C49.9717 69.9757 50.8956 69.0518 52.0305 69.0518C53.1655 69.0518 54.0894 69.9757 54.0894 71.1106V74.8064Z" fill="#F58258"/>
<path d="M59.3059 69.0518C60.4409 69.0518 61.3648 69.9757 61.3648 71.1106V74.8064H57.2471V71.1106C57.2471 69.9757 58.171 69.0518 59.3059 69.0518Z" fill="#F58258"/>
<path d="M46.0278 63.2969H58.17L63.7501 68.3531H40.3096L46.0278 63.2969Z" fill="#5F3D51"/>
<path d="M46.0283 56.131L51.8775 45L58.1705 56.131H46.0283Z" fill="#5F3D51"/>
<path d="M47.5783 58.0078C47.1927 58.0078 46.8799 58.3206 46.8799 58.7062V63.2968H48.2767V58.7062C48.2767 58.3206 47.9639 58.0078 47.5783 58.0078Z" fill="#FAF3EB"/>
<path d="M49.8039 58.0078C49.4183 58.0078 49.1055 58.3206 49.1055 58.7062V63.2968H50.5023V58.7062C50.5023 58.3206 50.1895 58.0078 49.8039 58.0078Z" fill="#FAF3EB"/>
<path d="M52.0304 58.0078C51.6449 58.0078 51.332 58.3206 51.332 58.7062V63.2968H52.7289V58.7062C52.7289 58.3206 52.416 58.0078 52.0304 58.0078Z" fill="#FAF3EB"/>
<path d="M54.256 58.0078C53.8704 58.0078 53.5576 58.3206 53.5576 58.7062V63.2968H54.9544V58.7062C54.9544 58.3206 54.6416 58.0078 54.256 58.0078Z" fill="#FAF3EB"/>
<path d="M56.4758 58.0078C56.0902 58.0078 55.7773 58.3206 55.7773 58.7062V63.2968H57.1742V58.7062C57.1742 58.3206 56.8613 58.0078 56.4758 58.0078Z" fill="#FAF3EB"/>
<path d="M66.4709 68.3531H63.75L58.1699 63.2969H60.8908L66.4709 68.3531Z" fill="#3D1F32"/>
<path d="M60.8918 56.131H58.1709L51.8779 45H54.5261L60.8918 56.131Z" fill="#3D1F32"/>
<path d="M47.6224 64.6938H47.2077C46.9868 64.6938 46.8076 64.873 46.8076 65.094V66.6872C46.8076 66.9082 46.9868 67.0874 47.2077 67.0874H47.6224C47.8434 67.0874 48.0226 66.9082 48.0226 66.6872V65.094C48.0226 64.873 47.8434 64.6938 47.6224 64.6938Z" fill="#3D1F32"/>
<path d="M52.307 64.6938H51.8923C51.6713 64.6938 51.4922 64.873 51.4922 65.094V66.6872C51.4922 66.9082 51.6713 67.0874 51.8923 67.0874H52.307C52.528 67.0874 52.7071 66.9082 52.7071 66.6872V65.094C52.7071 64.873 52.528 64.6938 52.307 64.6938Z" fill="#3D1F32"/>
<path d="M49.9059 54.9304H50.3206C50.5416 54.9304 50.7207 54.7513 50.7207 54.5303V52.937C50.7207 52.716 50.5416 52.5369 50.3206 52.5369H49.9059C49.6849 52.5369 49.5058 52.716 49.5058 52.937V54.5303C49.5058 54.7513 49.6849 54.9304 49.9059 54.9304Z" fill="#3D1F32"/>
<path d="M53.8854 54.9304H54.3001C54.5211 54.9304 54.7002 54.7513 54.7002 54.5303V52.937C54.7002 52.716 54.5211 52.5369 54.3001 52.5369H53.8854C53.6644 52.5369 53.4852 52.716 53.4852 52.937V54.5303C53.4852 54.7513 53.6644 54.9304 53.8854 54.9304Z" fill="#3D1F32"/>
<path d="M51.8922 51.4167H52.3069C52.5279 51.4167 52.707 51.2376 52.707 51.0166V49.4234C52.707 49.2024 52.5279 49.0232 52.3069 49.0232H51.8922C51.6712 49.0232 51.4921 49.2024 51.4921 49.4234V51.0166C51.4921 51.2376 51.6712 51.4167 51.8922 51.4167Z" fill="#3D1F32"/>
<path d="M56.9847 64.6938H56.5701C56.3491 64.6938 56.1699 64.873 56.1699 65.094V66.6872C56.1699 66.9082 56.3491 67.0874 56.5701 67.0874H56.9847C57.2057 67.0874 57.3849 66.9082 57.3849 66.6872V65.094C57.3849 64.873 57.2057 64.6938 56.9847 64.6938Z" fill="#3D1F32"/>
<path d="M38.6224 79.4477H37V77.7454H38.6224C39.0952 77.7454 39.4735 78.1237 39.4735 78.5966C39.4735 79.0694 39.0952 79.4477 38.6224 79.4477Z" fill="#F58258"/>
<path d="M38.6224 83.8857H37V82.1833H38.6224C39.0952 82.1833 39.4735 82.5617 39.4735 83.0345C39.4735 83.5074 39.0952 83.8857 38.6224 83.8857Z" fill="#F58258"/>
<path d="M38.6224 88.3162H37V86.6138H38.6224C39.0952 86.6138 39.4735 86.9921 39.4735 87.465C39.4735 87.9378 39.0952 88.3162 38.6224 88.3162Z" fill="#F58258"/>
<path d="M38.6224 92.7541H37V91.0518H38.6224C39.0952 91.0518 39.4735 91.4301 39.4735 91.9029C39.4735 92.3758 39.0952 92.7541 38.6224 92.7541Z" fill="#F58258"/>
<path d="M38.6224 97.1846H37V95.4822H38.6224C39.0952 95.4822 39.4735 95.8605 39.4735 96.3334C39.4735 96.8063 39.0952 97.1846 38.6224 97.1846Z" fill="#F58258"/>
<path d="M38.6224 101.622H37V99.9199H38.6224C39.0952 99.9199 39.4735 100.298 39.4735 100.771C39.4735 101.244 39.0952 101.622 38.6224 101.622Z" fill="#F58258"/>
<path d="M65.4528 79.4477H67.0751V77.7454H65.4528C64.9799 77.7454 64.6016 78.1237 64.6016 78.5966C64.6016 79.0694 64.9799 79.4477 65.4528 79.4477Z" fill="#F58258"/>
<path d="M65.4528 83.8857H67.0751V82.1833H65.4528C64.9799 82.1833 64.6016 82.5617 64.6016 83.0345C64.6016 83.5074 64.9799 83.8857 65.4528 83.8857Z" fill="#F58258"/>
<path d="M65.4528 88.3162H67.0751V86.6138H65.4528C64.9799 86.6138 64.6016 86.9921 64.6016 87.465C64.6016 87.9378 64.9799 88.3162 65.4528 88.3162Z" fill="#F58258"/>
<path d="M65.4528 92.7539H67.0751V91.0515H65.4528C64.9799 91.0515 64.6016 91.4298 64.6016 91.9027C64.6016 92.3756 64.9799 92.7539 65.4528 92.7539Z" fill="#F58258"/>
<path d="M65.4528 97.1846H67.0751V95.4822H65.4528C64.9799 95.4822 64.6016 95.8605 64.6016 96.3334C64.6016 96.8063 64.9799 97.1846 65.4528 97.1846Z" fill="#F58258"/>
<path d="M65.4528 101.622H67.0751V99.9199H65.4528C64.9799 99.9199 64.6016 100.298 64.6016 100.771C64.6016 101.244 64.9799 101.622 65.4528 101.622Z" fill="#F58258"/>
<mask id="mask0_627_2618" style="mask-type:luminance" maskUnits="userSpaceOnUse" x="41" y="79" width="22" height="22">
<path d="M62.4689 92.3171C63.8443 86.5483 60.2827 80.7568 54.5139 79.3814C48.7451 78.006 42.9536 81.5676 41.5782 87.3364C40.2029 93.1052 43.7644 98.8967 49.5332 100.272C55.302 101.647 61.0935 98.0859 62.4689 92.3171Z" fill="white"/>
</mask>
<g mask="url(#mask0_627_2618)">
<path d="M63.6998 89.5018H52.6125L60.4551 81.6592C60.5497 81.5647 60.5497 81.4119 60.4551 81.3173C60.3605 81.2227 60.2077 81.2227 60.1132 81.3173L52.2706 89.1599V78.0726C52.2706 77.9416 52.1614 77.8325 52.0305 77.8325C51.8995 77.8325 51.7904 77.9416 51.7904 78.0726V89.1599L43.9478 81.3173C43.8532 81.2227 43.7005 81.2227 43.6059 81.3173C43.5113 81.4119 43.5113 81.5647 43.6059 81.6592L51.4485 89.5018H40.3612C40.2302 89.5018 40.1211 89.611 40.1211 89.7419C40.1211 89.8729 40.2302 89.982 40.3612 89.982H51.4485L43.6059 97.8246C43.5113 97.9192 43.5113 98.072 43.6059 98.1665C43.6495 98.2102 43.715 98.2393 43.7732 98.2393C43.8314 98.2393 43.8969 98.2175 43.9405 98.1665L51.7831 90.3239V101.411C51.7831 101.542 51.8923 101.651 52.0232 101.651C52.1542 101.651 52.2633 101.542 52.2633 101.411V90.3239L60.1059 98.1665C60.1495 98.2102 60.215 98.2393 60.2732 98.2393C60.3314 98.2393 60.3969 98.2175 60.4406 98.1665C60.5351 98.072 60.5351 97.9192 60.4406 97.8246L52.598 89.982H63.6853C63.8162 89.982 63.9253 89.8729 63.9253 89.7419C63.9253 89.611 63.8162 89.5018 63.6853 89.5018H63.6998Z" fill="#5F3D51"/>
</g>
<path d="M54.9086 95.6791C58.1388 94.3536 59.6829 90.6605 58.3574 87.4302C57.032 84.2 53.3388 82.6559 50.1086 83.9814C46.8784 85.3068 45.3343 89 46.6597 92.2302C47.9852 95.4604 51.6783 97.0045 54.9086 95.6791Z" fill="#3D1F32"/>
<path d="M54.4291 95.6793C57.6593 94.3538 59.2034 90.6607 57.8779 87.4305C56.5525 84.2003 52.8593 82.6561 49.6291 83.9816C46.3989 85.3071 44.8548 89.0002 46.1803 92.2304C47.5057 95.4607 51.1988 97.0048 54.4291 95.6793Z" fill="#5F3D51"/>
<path d="M52.03 90.3095C51.7681 90.3095 51.5498 90.0912 51.5498 89.8293V81.7975C51.5498 81.5356 51.7681 81.3174 52.03 81.3174C52.2919 81.3174 52.5101 81.5356 52.5101 81.7975V89.8293C52.5101 90.0912 52.2919 90.3095 52.03 90.3095Z" fill="#F58258"/>
<path d="M58.0399 90.3094H51.987C51.7251 90.3094 51.5068 90.0912 51.5068 89.8293C51.5068 89.5674 51.7251 89.3491 51.987 89.3491H58.0399C58.3018 89.3491 58.5201 89.5674 58.5201 89.8293C58.5201 90.0912 58.3018 90.3094 58.0399 90.3094Z" fill="#F58258"/>
<path d="M53.85 89.8295C53.85 90.6516 53.1807 91.3209 52.3586 91.3209C51.5365 91.3209 50.8672 90.6516 50.8672 89.8295C50.8672 89.0074 51.5365 88.3381 52.3586 88.3381C53.1807 88.3381 53.85 89.0074 53.85 89.8295Z" fill="#F58258"/>
<path d="M52.0305 91.3209C52.8541 91.3209 53.5219 90.6532 53.5219 89.8295C53.5219 89.0059 52.8541 88.3381 52.0305 88.3381C51.2068 88.3381 50.5391 89.0059 50.5391 89.8295C50.5391 90.6532 51.2068 91.3209 52.0305 91.3209Z" fill="#FED455"/>
</svg>
