<svg width="108" height="161" viewBox="0 0 108 161" fill="none" xmlns="http://www.w3.org/2000/svg">
<path d="M106.96 31.2538V28.3053C105.535 28.2134 104.409 27.2278 104.409 26.0084H101.6C101.6 27.2863 100.364 28.322 98.8397 28.322C97.3153 28.322 96.0798 27.2863 96.0798 26.0084H93.2701C93.2701 27.2863 92.0345 28.322 90.5101 28.322C88.9857 28.322 87.7502 27.2863 87.7502 26.0084H84.9304C84.9304 27.2863 83.6949 28.322 82.1705 28.322C82.1008 28.322 82.041 28.3053 81.9712 28.3053C80.5464 28.2134 79.4205 27.2278 79.4205 26.0084H76.6008C76.6008 27.2863 75.3653 28.322 73.8409 28.322C72.3164 28.322 71.0809 27.2863 71.0809 26.0084H68.2612C68.2612 27.2863 67.0257 28.322 65.5013 28.322C63.9768 28.322 62.7413 27.2863 62.7413 26.0084H59.9116C59.9116 27.2863 58.6761 28.322 57.1517 28.322C55.6273 28.322 54.3918 27.2863 54.3918 26.0084H51.5621C51.5621 27.2863 50.3266 28.322 48.8021 28.322C47.2777 28.322 46.0422 27.2863 46.0422 26.0084H43.2225C43.2225 27.2863 41.987 28.322 40.4625 28.322C38.9381 28.322 37.7026 27.2863 37.7026 26.0084H34.8829C34.8829 27.2863 33.6474 28.322 32.1229 28.322C30.5985 28.322 29.363 27.2863 29.363 26.0084H26.5333C26.5333 26.1002 26.5233 26.1921 26.5134 26.284C26.5134 26.309 26.5134 26.3257 26.5134 26.3508C26.4934 26.4427 26.4735 26.5429 26.4436 26.6264C26.4436 26.6431 26.4337 26.6682 26.4237 26.6849C26.2045 27.2863 25.6963 27.7791 25.0387 28.0547C24.6601 28.2218 24.2416 28.3137 23.7933 28.3137C22.2688 28.3137 21.0333 27.2779 21.0333 26H18.2136C18.2136 27.2779 16.9781 28.3137 15.4537 28.3137C13.9292 28.3137 12.6937 27.2779 12.6937 26H9.87401C9.87401 27.2779 8.63851 28.3137 7.11407 28.3137C5.58963 28.3137 4.35413 27.2779 4.35413 26H1.51448C1.51448 26.9021 0.896732 27.6705 0 28.0547V31.3206C1.19564 31.5712 2.08241 32.4732 2.08241 33.5591C2.08241 34.6449 1.19564 35.5386 0 35.7975V38.3117C1.19564 38.5622 2.08241 39.4643 2.08241 40.5501C2.08241 41.636 1.19564 42.5297 0 42.7886V45.3027C1.19564 45.5533 2.08241 46.4554 2.08241 47.5412C2.08241 48.6271 1.19564 49.5208 0 49.7797V52.2938C1.19564 52.5444 2.08241 53.4465 2.08241 54.5323C2.08241 55.6182 1.19564 56.5119 0 56.7708V59.2849C1.19564 59.5438 2.08241 60.4376 2.08241 61.5234C2.08241 62.6092 1.19564 63.503 0 63.7619V66.276C1.19564 66.5266 2.08241 67.4287 2.08241 68.5145C2.08241 69.6003 1.19564 70.494 0 70.753V73.2671C1.19564 73.5177 2.08241 74.4197 2.08241 75.5056C2.08241 76.5914 1.19564 77.4851 0 77.7441V80.2582C1.19564 80.5088 2.08241 81.4108 2.08241 82.4967C2.08241 83.5825 1.19564 84.4762 0 84.7351V87.2493C1.19564 87.4998 2.08241 88.4019 2.08241 89.4878C2.08241 90.5736 1.19564 91.4673 0 91.7262V94.2487C1.19564 94.4993 2.08241 95.4014 2.08241 96.4872C2.08241 97.573 1.19564 98.4667 0 98.7257V101.248C1.19564 101.499 2.08241 102.401 2.08241 103.487C2.08241 104.572 1.19564 105.466 0 105.725V108.248C1.19564 108.498 2.08241 109.4 2.08241 110.486C2.08241 111.572 1.19564 112.474 0 112.725V115.239C1.19564 115.498 2.08241 116.391 2.08241 117.477C2.08241 118.563 1.19564 119.457 0 119.716V122.23C1.19564 122.48 2.08241 123.382 2.08241 124.468C2.08241 125.554 1.19564 126.448 0 126.707V129.221C1.19564 129.48 2.08241 130.373 2.08241 131.459C2.08241 132.545 1.19564 133.447 0 133.698V136.212C1.19564 136.471 2.08241 137.365 2.08241 138.45C2.08241 139.536 1.19564 140.43 0 140.689V143.203C1.19564 143.454 2.08241 144.356 2.08241 145.442C2.08241 146.527 1.19564 147.421 0 147.68V150.194C1.19564 150.445 2.08241 151.347 2.08241 152.433C2.08241 153.518 1.19564 154.42 0 154.671V157.352C0.896732 157.736 1.51448 158.505 1.51448 159.407C1.51448 159.616 1.47463 159.808 1.41484 160H4.43384C4.37406 159.808 4.3342 159.616 4.3342 159.407C4.3342 158.129 5.5697 157.093 7.09414 157.093C8.61859 157.093 9.85408 158.129 9.85408 159.407C9.85408 159.616 9.81423 159.808 9.75445 160H12.7734C12.7137 159.808 12.6738 159.616 12.6738 159.407C12.6738 158.129 13.9093 157.093 15.4337 157.093C16.9582 157.093 18.1937 158.129 18.1937 159.407C18.1937 159.616 18.1538 159.808 18.094 160H21.113C21.0533 159.808 21.0134 159.616 21.0134 159.407C21.0134 158.129 22.2489 157.093 23.7734 157.093C24.2217 157.093 24.6402 157.194 25.0188 157.352C25.6764 157.636 26.1846 158.129 26.4038 158.73C26.4038 158.747 26.4237 158.772 26.4237 158.789C26.4536 158.881 26.4835 158.973 26.4934 159.065C26.4934 159.09 26.4934 159.106 26.4934 159.131C26.5034 159.223 26.5134 159.315 26.5134 159.407C26.5134 159.616 26.4735 159.808 26.4137 160H29.4427C29.3829 159.808 29.3431 159.616 29.3431 159.407C29.3431 158.129 30.5785 157.093 32.103 157.093C33.6274 157.093 34.8629 158.129 34.8629 159.407C34.8629 159.616 34.8231 159.808 34.7633 160H37.7923C37.7325 159.808 37.6926 159.616 37.6926 159.407C37.6926 158.129 38.9281 157.093 40.4526 157.093C41.977 157.093 43.2125 158.129 43.2125 159.407C43.2125 159.616 43.1726 159.808 43.1129 160H46.1418C46.082 159.808 46.0422 159.616 46.0422 159.407C46.0422 158.129 47.2777 157.093 48.8021 157.093C50.3266 157.093 51.5621 158.129 51.5621 159.407C51.5621 159.616 51.5222 159.808 51.4624 160H54.4914C54.4316 159.808 54.3918 159.616 54.3918 159.407C54.3918 158.129 55.6273 157.093 57.1517 157.093C58.6761 157.093 59.9116 158.129 59.9116 159.407C59.9116 159.616 59.8718 159.808 59.812 160H62.841C62.7812 159.808 62.7413 159.616 62.7413 159.407C62.7413 158.129 63.9768 157.093 65.5013 157.093C67.0257 157.093 68.2612 158.129 68.2612 159.407C68.2612 159.616 68.2214 159.808 68.1616 160H71.1905C71.1307 159.808 71.0909 159.616 71.0909 159.407C71.0909 158.129 72.3264 157.093 73.8508 157.093C75.3753 157.093 76.6108 158.129 76.6108 159.407C76.6108 159.616 76.5709 159.808 76.5111 160H79.5401C79.4803 159.808 79.4405 159.616 79.4405 159.407C79.4405 158.188 80.5664 157.202 81.9912 157.11C82.0609 157.11 82.1207 157.093 82.1904 157.093C83.7149 157.093 84.9504 158.129 84.9504 159.407C84.9504 159.616 84.9105 159.808 84.8507 160H87.8697C87.81 159.808 87.7701 159.616 87.7701 159.407C87.7701 158.129 89.0056 157.093 90.53 157.093C92.0545 157.093 93.29 158.129 93.29 159.407C93.29 159.616 93.2501 159.808 93.1903 160H96.2093C96.1496 159.808 96.1097 159.616 96.1097 159.407C96.1097 158.129 97.3452 157.093 98.8696 157.093C100.394 157.093 101.63 158.129 101.63 159.407C101.63 159.616 101.59 159.808 101.53 160H104.549C104.489 159.808 104.449 159.616 104.449 159.407C104.449 158.188 105.575 157.202 107 157.11V154.755C105.476 154.755 104.24 153.719 104.24 152.441C104.24 151.163 105.476 150.127 107 150.127V147.764C105.476 147.764 104.24 146.728 104.24 145.45C104.24 144.172 105.476 143.136 107 143.136V140.772C105.476 140.772 104.24 139.737 104.24 138.459C104.24 137.181 105.476 136.145 107 136.145V133.781C105.476 133.781 104.24 132.746 104.24 131.468C104.24 130.19 105.476 129.154 107 129.154V126.79C105.476 126.79 104.24 125.755 104.24 124.477C104.24 123.199 105.476 122.163 107 122.163V119.799C105.476 119.799 104.24 118.763 104.24 117.486C104.24 116.208 105.476 115.172 107 115.172V112.808C105.476 112.808 104.24 111.772 104.24 110.494C104.24 109.216 105.476 108.181 107 108.181V105.825C105.476 105.825 104.24 104.79 104.24 103.512C104.24 102.234 105.476 101.198 107 101.198V98.8426C105.476 98.8426 104.24 97.8069 104.24 96.529C104.24 95.251 105.476 94.2153 107 94.2153V91.8599C105.476 91.8599 104.24 90.8242 104.24 89.5462C104.24 88.2683 105.476 87.2326 107 87.2326V84.8771C105.476 84.8771 104.24 83.8414 104.24 82.5635C104.24 81.2855 105.476 80.2498 107 80.2498V77.8861C105.476 77.8861 104.24 76.8503 104.24 75.5724C104.24 74.2945 105.476 73.2587 107 73.2587V70.895C105.476 70.895 104.24 69.8593 104.24 68.5813C104.24 67.3034 105.476 66.2677 107 66.2677V63.9039C105.476 63.9039 104.24 62.8682 104.24 61.5902C104.24 60.3123 105.476 59.2766 107 59.2766V56.9128C105.476 56.9128 104.24 55.8771 104.24 54.5991C104.24 53.3212 105.476 52.2855 107 52.2855V49.9217C105.476 49.9217 104.24 48.886 104.24 47.6081C104.24 46.3301 105.476 45.2944 107 45.2944V42.9306C105.476 42.9306 104.24 41.8949 104.24 40.617C104.24 39.339 105.476 38.3033 107 38.3033V35.9395C105.476 35.9395 104.24 34.9038 104.24 33.6259C104.24 32.3479 105.476 31.3122 107 31.3122L106.96 31.2538Z" fill="#F4BBCF"/>
<path d="M95 38H12V124H95V38Z" fill="#FFCCBC"/>
<path d="M75.1702 143.416C74.6342 143.416 74.1542 143.324 73.7302 143.14C73.3142 142.948 72.9582 142.684 72.6622 142.348C72.3742 142.004 72.1542 141.6 72.0022 141.136C71.8502 140.664 71.7742 140.152 71.7742 139.6V135.544C71.7742 135.432 71.7862 135.336 71.8102 135.256C71.8422 135.176 71.8942 135.116 71.9662 135.076C72.0462 135.028 72.1662 135.004 72.3262 135.004C72.4862 135.004 72.6062 135.028 72.6862 135.076C72.7662 135.116 72.8182 135.176 72.8422 135.256C72.8662 135.336 72.8782 135.436 72.8782 135.556V139.6C72.8782 140.136 72.9662 140.608 73.1422 141.016C73.3182 141.424 73.5782 141.748 73.9222 141.988C74.2662 142.22 74.6942 142.336 75.2062 142.336C75.6862 142.336 76.0982 142.224 76.4422 142C76.7862 141.776 77.0502 141.46 77.2342 141.052C77.4182 140.644 77.5102 140.156 77.5102 139.588V135.472C77.5102 135.376 77.5222 135.296 77.5462 135.232C77.5782 135.16 77.6342 135.104 77.7142 135.064C77.7942 135.024 77.9142 135.004 78.0742 135.004C78.2262 135.004 78.3382 135.028 78.4102 135.076C78.4902 135.116 78.5422 135.176 78.5662 135.256C78.5902 135.336 78.6022 135.436 78.6022 135.556V139.624C78.6022 140.184 78.5262 140.696 78.3742 141.16C78.2222 141.616 77.9982 142.016 77.7022 142.36C77.4142 142.696 77.0542 142.956 76.6222 143.14C76.1982 143.324 75.7142 143.416 75.1702 143.416ZM80.8328 143.38C80.6728 143.38 80.5528 143.356 80.4728 143.308C80.4008 143.268 80.3528 143.208 80.3288 143.128C80.3048 143.048 80.2928 142.952 80.2928 142.84V135.532C80.2928 135.428 80.3048 135.336 80.3288 135.256C80.3608 135.168 80.4128 135.104 80.4848 135.064C80.5648 135.024 80.6848 135.004 80.8448 135.004C81.0048 135.004 81.1208 135.028 81.1928 135.076C81.2728 135.116 81.3248 135.176 81.3488 135.256C81.3728 135.336 81.3848 135.432 81.3848 135.544V138.448L84.9248 135.172C85.0208 135.076 85.1088 135.012 85.1888 134.98C85.2688 134.948 85.3488 134.948 85.4288 134.98C85.5088 135.012 85.5968 135.076 85.6928 135.172C85.8448 135.324 85.9168 135.456 85.9088 135.568C85.9088 135.672 85.8368 135.792 85.6928 135.928L82.1168 139.18L85.7408 142.456C85.8928 142.6 85.9688 142.728 85.9688 142.84C85.9688 142.952 85.8928 143.08 85.7408 143.224C85.6368 143.32 85.5448 143.384 85.4648 143.416C85.3848 143.448 85.3048 143.448 85.2248 143.416C85.1528 143.384 85.0688 143.316 84.9728 143.212L81.3848 139.912V142.852C81.3848 142.964 81.3728 143.06 81.3488 143.14C81.3248 143.22 81.2728 143.28 81.1928 143.32C81.1128 143.36 80.9928 143.38 80.8328 143.38Z" fill="#FFFDE7"/>
<path d="M95.33 51V125.14H12V51C23.63 59.66 38.05 64.78 53.66 64.78C69.27 64.78 83.69 59.66 95.33 51Z" fill="#FFB4AB"/>
<mask id="mask0_627_2690" style="mask-type:luminance" maskUnits="userSpaceOnUse" x="23" y="24" width="63" height="102">
<path d="M85.81 24H23V125.47H85.81V24Z" fill="white"/>
</mask>
<g mask="url(#mask0_627_2690)">
<path d="M28.8409 55.8897L27.0222 54.8397C26.8692 54.7513 26.6735 54.8038 26.5851 54.9568L26.3451 55.3725C26.2568 55.5256 26.3092 55.7213 26.4622 55.8096L28.2809 56.8596C28.434 56.948 28.6297 56.8956 28.718 56.7425L28.958 56.3268C29.0464 56.1738 28.994 55.9781 28.8409 55.8897Z" fill="#92D1C9"/>
<path d="M29.89 55.27H27.79L28.47 65.92H29.89H31.3L31.99 55.27H29.89Z" fill="#3D5754"/>
<path d="M31.3402 65.75H28.4502C28.29 65.75 28.1602 65.8798 28.1602 66.04V66.48C28.1602 66.6402 28.29 66.77 28.4502 66.77H31.3402C31.5003 66.77 31.6302 66.6402 31.6302 66.48V66.04C31.6302 65.8798 31.5003 65.75 31.3402 65.75Z" fill="#3D5754"/>
<path d="M29.8898 66.53H28.5098C29.0498 67.26 29.1598 68.62 29.1598 68.62H30.6098C30.6098 68.62 30.7198 67.26 31.2598 66.53H29.8798H29.8898Z" fill="#3D5754"/>
<path d="M31.5997 47.95H28.4297V52.15H31.5997V47.95Z" fill="#3D5754"/>
<path d="M28.1498 47.95C28.1498 47.95 26.4698 46.5 27.5998 44.8C28.7298 43.1 31.3198 43.34 30.7198 41.76C31.9598 42.07 32.0798 43.11 31.7598 43.99C33.2398 43.56 34.3198 42.93 34.4998 41.76C35.1098 42.66 35.1098 43.66 34.2298 44.45C33.1498 45.42 32.8098 45.99 32.7198 46.62C32.5898 47.52 31.9698 47.96 31.6898 47.96H28.1398L28.1498 47.95Z" fill="white"/>
<path d="M47.79 71.01L50.1 78.09L51.78 77.9L47.79 71.01Z" fill="#3D5754"/>
<path d="M40.2197 74.6399L46.9997 79.5699L47.9697 78.6499L40.2197 74.6399Z" fill="#3D5754"/>
<path d="M40.2197 81.1901L45.9897 82.0501L46.4597 80.5801L40.2197 81.1901Z" fill="#3D5754"/>
<path d="M42.1299 84.1299L47.0499 84.3299L46.6399 82.9399L42.1299 84.1299Z" fill="#3D5754"/>
<path d="M57.5103 73.0901L53.7803 78.3401L55.3203 79.0201L57.5103 73.0901Z" fill="#3D5754"/>
<path d="M64.2502 77.4399L56.6602 80.0799L57.9902 81.3299L64.2502 77.4399Z" fill="#3D5754"/>
<path d="M66.8799 82.1499L58.4199 82.2499L59.1599 83.6799L66.8799 82.1499Z" fill="#3D5754"/>
<path d="M59.0098 86.0701C59.0098 86.0701 58.8198 94.6601 61.9498 98.2001H57.9098C57.9098 98.2001 57.3498 91.8901 57.0898 89.3501L58.9998 86.0701H59.0098Z" fill="#496965"/>
<path d="M46.77 84.4201C46.77 84.4201 46.09 87.5301 46.77 88.1401C47.45 88.7501 48.46 87.1201 48.46 87.1201C48.46 87.1201 48.68 83.7601 46.77 84.4201Z" fill="#496965"/>
<path d="M58.1104 155.52C58.1104 155.52 59.2604 158.85 61.8604 159.6C64.4604 160.36 66.0404 164.35 65.7304 167.8C65.4304 171.25 66.8804 176.45 69.6604 179.6C69.9604 170.16 69.3604 154.61 69.3604 154.61L66.6404 131.55V123.14L61.6304 111.94C61.6304 111.94 58.6504 119.57 58.6504 119.75C58.6504 119.93 58.1104 155.52 58.1104 155.52Z" fill="#5D8580"/>
<path d="M63.0004 99.3C65.3004 99.97 67.7204 104.81 69.1204 107.83C70.5104 110.86 73.7804 111.58 74.6604 112.85C75.5404 114.12 78.3804 121.73 78.2004 125.31C78.0204 128.89 77.5304 137.12 73.5404 137.6C69.5504 138.08 65.4904 132.77 65.4904 132.77L62.4004 109.7L63.0004 99.29V99.3Z" fill="#496965"/>
<path d="M72.8906 121.16C74.9406 120.61 77.0206 121.66 77.0706 124.29C77.1206 126.92 76.3706 132.91 74.9806 133.32C72.8506 133.96 69.5306 122.06 72.8906 121.16Z" fill="#3D5754"/>
<path d="M80.3796 112.16L76.8496 108.1L75.2296 107.56L76.0696 113.55L78.1996 113L68.8496 131.19L70.2996 131.82L79.6796 113.58L79.3196 113L80.3796 112.16Z" fill="#3D5754"/>
<path d="M79.0502 111.52L75.2302 107.56L74.7502 109.16L74.4302 108.8L65.2402 126.7L68.8502 131.19L78.2002 113L77.8802 112.66L79.0502 111.52Z" fill="#5D8580"/>
<path d="M70.78 127.43L78.2 113L77.88 112.66L79.05 111.52L75.23 107.56L74.75 109.16L74.43 108.8L69.5 118.41L70.78 127.43Z" fill="#92D1C9"/>
<path d="M75.7504 115.42C76.1604 115.01 77.7404 116.7 78.5104 117.57C78.7804 117.88 78.9504 118.27 78.9704 118.69C79.0504 120.15 79.1904 123.69 78.7304 124.37C78.1404 125.23 76.3004 126.09 75.6204 125.14C74.9404 124.19 73.6704 121.94 73.6704 121.94C73.6704 121.94 72.7604 120.03 73.2404 119.78C73.7204 119.53 75.2104 121.6 75.2104 121.6C75.2104 121.6 75.2604 121.3 74.9404 120.6C74.6204 119.9 73.4604 119.17 73.7104 118.49C73.9604 117.81 74.1204 117.24 74.7304 117.38C75.3404 117.52 77.5404 119.31 77.5404 119.31L77.4504 118.38C77.4504 118.38 75.0204 116.16 75.7504 115.43V115.42Z" fill="#7AADA7"/>
<path d="M52.5006 137.6C52.5006 137.6 42.4306 149.34 39.5306 159.6C39.5306 159.6 35.9206 141.88 37.9606 129.07C40.1406 115.35 53.9406 105.94 53.9406 105.94L56.5106 125.55L52.5106 137.61L52.5006 137.6Z" fill="#92D1C9"/>
<path d="M53.9298 121.51L52.5298 128.92L50.2998 163.26L63.7898 155.03L58.9498 111.94L55.0498 115.94L53.9298 121.51Z" fill="#71A19B"/>
<path d="M66.6396 125.32L61.8896 120.96L63.0396 129.6L66.6396 131.06V125.32Z" fill="#5D8580"/>
<path style="mix-blend-mode:multiply" opacity="0.2" d="M66.6396 125.32L61.8896 120.96L63.0396 129.6L66.6396 131.06V125.32Z" fill="url(#paint0_linear_627_2690)"/>
<path d="M62.6497 98.1899C65.4297 99.4199 67.6097 116.78 67.6697 124.29C67.7297 131.79 70.7597 152.43 70.7597 152.43C70.7597 152.43 69.0097 147.89 64.7697 145.11L64.8897 133.01C64.8897 133.01 63.1397 131.01 63.0097 129.86C62.8897 128.71 66.3197 128.43 66.2197 126.71C66.1197 124.99 62.5297 123.93 61.9197 121.63C61.3097 119.33 57.9297 115.94 56.4097 116C54.8997 116.06 58.0997 118.48 57.9797 119.99C57.7697 122.83 52.8197 125.74 52.5297 128.92C52.2297 132.1 54.2297 113.19 54.0997 110.7C53.9697 108.21 52.2397 104.09 57.0997 101.14C61.9597 98.1899 62.6597 98.1899 62.6597 98.1899H62.6497Z" fill="#71A19B"/>
<path d="M62.6497 98.1899C65.4297 99.4199 67.6097 116.78 67.6697 124.29C67.7297 131.79 70.7597 152.43 70.7597 152.43C70.7597 152.43 69.0097 147.89 64.7697 145.11L64.8897 133.01C64.8897 133.01 63.1397 131.01 63.0097 129.86C62.8897 128.71 66.3197 128.43 66.2197 126.71C66.1197 124.99 62.5297 123.93 61.9197 121.63C61.3097 119.33 57.9297 115.94 56.4097 116C54.8997 116.06 58.0997 118.48 57.9797 119.99C57.7697 122.83 52.8197 125.74 52.5297 128.92C52.2297 132.1 54.2297 113.19 54.0997 110.7C53.9697 108.21 52.2397 104.09 57.0997 101.14C61.9597 98.1899 62.6597 98.1899 62.6597 98.1899H62.6497Z" fill="#71A19B"/>
<path d="M48.1505 86.3801L45.5205 92.4301L50.3005 95.5101L50.4305 91.3201L48.1505 86.3801Z" fill="#496965"/>
<path d="M32.76 96.83C32.76 96.83 32.49 91.52 35.89 86.75C39.29 81.98 41.65 93.83 41.65 93.83L36.11 97.46L32.75 96.82L32.76 96.83Z" fill="#5D8580"/>
<path d="M34.9903 65.41L40.9203 85.14L37.3503 94.75L34.5703 83.81C34.5703 83.81 30.9403 79.88 31.6703 66.68C31.6703 66.68 30.2303 63.53 31.6203 61.11L31.3003 59.12C31.3003 59.12 29.4303 58.15 30.0903 56.52L32.0903 57.67C32.0903 57.67 34.7503 61 34.8703 62.15C34.9903 63.3 34.9903 65.42 34.9903 65.42V65.41Z" fill="#7AADA7"/>
<path style="mix-blend-mode:multiply" opacity="0.2" d="M40.9196 85.14L34.9896 65.41C34.9896 65.41 34.9896 63.29 34.8696 62.14C34.7496 60.99 32.0896 57.66 32.0896 57.66L30.0896 56.51C29.4196 58.14 31.2996 59.11 31.2996 59.11L31.6196 61.1C30.2296 63.52 31.6696 66.67 31.6696 66.67C31.5796 68.24 31.5596 69.67 31.5796 70.99C33.0696 72.26 37.4596 76.95 39.4496 89.09L40.9196 85.13V85.14Z" fill="url(#paint1_linear_627_2690)"/>
<path d="M48.0598 85.23L48.2398 87.62C48.2398 87.62 48.9398 92.04 49.8698 92.52C49.8698 93.73 49.6898 97 49.6898 97C49.6898 97 52.1698 102.75 59.7998 98.06C59.7998 98.06 56.7998 97.92 56.4398 96.15C55.9898 93.94 56.8298 86.8 56.8298 86.8L55.7398 84.98C55.7398 84.98 50.9598 83.35 50.3498 82.47C50.3498 82.47 49.8398 83.83 48.0498 85.22L48.0598 85.23Z" fill="#92D1C9"/>
<path d="M48.46 86.4299C48.46 86.4299 48.77 85.4099 49.94 86.3599L48.46 86.4299Z" fill="#71A19B"/>
<path d="M50.0996 88.8101C50.0996 88.8101 50.7596 89.0701 51.1796 88.7001C51.5996 88.3301 51.4396 86.4301 51.5196 85.8601C51.5996 85.2901 52.5196 84.5901 54.0996 86.0801C54.0996 86.0801 52.3896 86.1701 51.8596 86.4301C51.8096 87.1801 52.3296 89.1801 51.0596 89.3501C51.0596 89.3501 50.4296 89.2601 50.1096 88.8201L50.0996 88.8101Z" fill="#5D8580"/>
<path d="M50.0996 90.41C50.0996 90.41 50.2896 89.65 51.0096 89.88C51.0096 89.88 51.6296 89.49 52.5296 90.31C52.5296 90.31 51.5496 89.91 51.1196 90.17C51.1196 90.17 50.6196 89.97 50.0996 90.41Z" fill="#71A19B"/>
<path d="M50.4297 90.8099C50.4297 90.8099 51.3497 90.9699 52.0997 90.6399C52.0997 90.6399 51.3697 91.5999 50.4297 90.8099Z" fill="#3D5754"/>
<path d="M56.4403 96.15C56.2003 94.99 56.3203 92.49 56.4903 90.37C57.1603 90.53 58.5503 89.89 58.8903 88.87C59.2803 87.69 58.3703 86.74 57.6003 86.58C57.6003 86.58 57.1203 86.55 56.7703 86.68L55.7603 84.99C55.7603 84.99 55.4503 84.89 54.9903 84.71C55.0203 85.79 54.6503 87.16 53.9503 87.52C53.2503 87.89 53.9703 89.6 53.2403 91.12C52.1203 93.43 50.3203 92.53 50.3203 92.53C50.3203 92.53 51.4403 94.07 54.5203 95.53C55.4503 95.97 53.2703 98.45 54.5203 98.43C55.4003 98.41 57.3903 98.65 58.4903 98.8C58.9203 98.59 59.3603 98.34 59.8203 98.06C59.8203 98.06 56.8203 97.92 56.4603 96.15H56.4403Z" fill="#5D8580"/>
<path d="M46.82 84.13C46.82 84.13 44.08 80.61 48.46 78.09C51.66 76.24 56.9 78.63 58.56 81.6C60.22 84.57 60.1 85.81 59.04 86.43C57.98 87.05 53.57 82.24 53.57 82.24L49.64 81.97L46.83 84.14L46.82 84.13Z" fill="#496965"/>
<path d="M29.2881 57.2586L27.6852 57.108C27.5258 57.093 27.3843 57.2101 27.3693 57.3695L27.3272 57.8176C27.3122 57.977 27.4294 58.1184 27.5888 58.1334L29.1918 58.2841C29.3512 58.2991 29.4926 58.182 29.5076 58.0225L29.5497 57.5745C29.5647 57.415 29.4476 57.2736 29.2881 57.2586Z" fill="#92D1C9"/>
<path d="M30.0696 59.1981L27.72 58.9768C27.544 58.9602 27.3879 59.0894 27.3714 59.2654L27.3264 59.7433C27.3098 59.9192 27.439 60.0753 27.6149 60.0918L29.9645 60.3131C30.1405 60.3297 30.2966 60.2005 30.3131 60.0245L30.3581 59.5466C30.3747 59.3707 30.2455 59.2146 30.0696 59.1981Z" fill="#92D1C9"/>
<path d="M29.8309 60.8185L27.7548 60.5023C27.5801 60.4757 27.4169 60.5957 27.3903 60.7705L27.318 61.245C27.2914 61.4197 27.4115 61.5829 27.5862 61.6095L29.6622 61.9257C29.837 61.9523 30.0002 61.8323 30.0268 61.6575L30.0991 61.183C30.1257 61.0083 30.0056 60.8451 29.8309 60.8185Z" fill="#92D1C9"/>
<path d="M32.5303 54.3899H27.2404C27.0305 54.3899 26.8604 54.56 26.8604 54.7699V55.3699C26.8604 55.5798 27.0305 55.7499 27.2404 55.7499H32.5303C32.7402 55.7499 32.9104 55.5798 32.9104 55.3699V54.7699C32.9104 54.56 32.7402 54.3899 32.5303 54.3899Z" fill="#5D8580"/>
<path d="M30.62 68.6201H29.17C28.76 69.1701 29.31 69.7001 29.66 69.9501C29.8 70.0501 29.99 70.0501 30.13 69.9501C30.47 69.7001 31.03 69.1701 30.62 68.6201Z" fill="#3D5754"/>
<path d="M32.4597 54.3801H27.3097L25.9297 53.3201H33.8497L32.4597 54.3801Z" fill="#3D5754"/>
<path d="M34.4501 52.4099H25.3301V53.3099H34.4501V52.4099Z" fill="#7AADA7"/>
<path d="M34.0898 50.3101H25.6798C25.8298 51.0001 25.8198 51.7801 25.3398 52.4101H34.4298C33.9498 51.7701 33.9298 51.0001 34.0898 50.3101Z" fill="#5D8580"/>
<path d="M32.7604 96.8301C36.0304 95.5101 39.9104 88.6401 40.4604 83.6401C40.4604 83.6401 41.1104 83.5701 41.8304 85.1901C42.5604 86.8001 42.2804 87.6701 43.5104 89.3501C44.7404 91.0301 49.7804 95.0701 49.7804 95.0701C49.7804 95.0701 49.7604 99.4501 55.4404 99.8201L39.9204 113.86C39.9204 113.86 39.2404 112.5 39.9204 109.09C40.6004 105.69 39.6004 103.92 38.5104 103.14C37.4204 102.36 35.6104 101.19 35.9204 99.6001C36.2404 98.0101 32.7104 99.6001 32.7404 96.8301H32.7604Z" fill="#71A19B"/>
<path style="mix-blend-mode:multiply" opacity="0.2" d="M49.7905 95.0601C49.7905 95.0601 48.8705 94.3201 47.7205 93.3501L39.5605 104.33C40.1105 105.34 40.3805 106.86 39.9405 109.09C39.2605 112.49 39.9405 113.86 39.9405 113.86L55.4605 99.8201C49.7805 99.4401 49.8005 95.0701 49.8005 95.0701L49.7905 95.0601Z" fill="url(#paint2_linear_627_2690)"/>
<path d="M39.7505 110.16C40.0905 108.17 41.5405 105.5 43.1305 103.17C44.1005 101.75 43.7905 99.72 43.1305 97.47C42.4805 95.28 41.2205 100.69 40.0105 100.72C39.0505 100.74 40.2205 97.86 39.0405 97.6C38.3905 97.46 35.2005 98.82 34.0205 98.56C34.9905 98.83 36.1305 98.67 35.9405 99.6C35.6205 101.19 37.4405 102.37 38.5305 103.14C39.6205 103.91 40.6205 105.68 39.9405 109.09C39.8605 109.48 39.8105 109.83 39.7605 110.17L39.7505 110.16Z" fill="#92D1C9"/>
<path d="M37.9503 129.07C36.4403 127.01 33.9003 124.89 36.3503 118.78C38.8003 112.67 50.3503 101.61 54.4103 100.2C58.4703 98.7899 59.2003 97.1399 62.6503 98.1899C62.6503 98.1899 51.9603 107.38 47.0903 112.55C38.2503 121.93 37.9503 129.07 37.9503 129.07Z" fill="#83BDB5"/>
<path style="mix-blend-mode:multiply" opacity="0.2" d="M37.9503 129.07C36.4403 127.01 33.9003 124.89 36.3503 118.78C38.8003 112.67 50.3503 101.61 54.4103 100.2C58.4703 98.7899 59.2003 97.1399 62.6503 98.1899C62.6503 98.1899 51.9603 107.38 47.0903 112.55C38.2503 121.93 37.9503 129.07 37.9503 129.07Z" fill="url(#paint3_linear_627_2690)"/>
<path d="M46.9103 82.9999C46.7203 83.8599 46.0103 85.9799 48.0603 85.7699C48.0603 85.7699 49.9503 84.6699 50.6203 83.3199C50.6203 83.3199 53.1303 85.1599 55.6203 85.4199C55.6203 85.4199 56.2703 86.9099 57.5303 87.2599C58.7803 87.6199 59.1703 86.7599 59.0103 86.0599C58.8503 85.3599 56.6403 81.3799 52.4203 80.9499C48.2003 80.5199 46.9103 82.9899 46.9103 82.9899V82.9999Z" fill="#7AADA7"/>
<path style="mix-blend-mode:multiply" opacity="0.2" d="M76.8499 108.1L75.2299 107.56L74.7499 109.17L74.4199 108.8L72.9999 111.57C71.6899 110.77 70.0099 109.78 69.1199 107.83C67.8899 105.17 65.8699 101.1 63.8399 99.7101C63.4599 98.9101 63.0599 98.3801 62.6499 98.2001C62.3299 98.1001 62.0499 98.0401 61.7699 97.9901C59.2999 94.9201 59.0299 88.6101 58.9999 86.6601C59.0199 86.5901 59.0299 86.5101 59.0299 86.4301C59.8099 85.9801 60.0799 85.1801 59.5099 83.6201L66.8699 82.1501L58.8999 82.2501C58.7899 82.0401 58.6799 81.8301 58.5499 81.6001C58.4699 81.4501 58.3699 81.3001 58.2699 81.1601L64.2399 77.4501L57.1499 79.9101C56.6399 79.4601 56.0599 79.0401 55.4399 78.6901L57.4999 73.1001L54.0099 78.0201C53.7999 77.9401 53.5899 77.8701 53.3799 77.8101V189.48H72.9899C72.9899 189.48 69.7699 185.53 69.0599 178.87C69.2499 179.13 69.4499 179.38 69.6599 179.61C69.8399 174.09 69.6999 166.49 69.5599 161.13L70.7499 162.25L69.7499 150.48C70.4299 151.63 70.7499 152.44 70.7499 152.44C70.7499 152.44 69.4999 143.92 68.5899 135.84C70.0199 136.92 71.7799 137.82 73.5299 137.61C77.5199 137.13 78.0099 128.9 78.1899 125.32C78.1899 125.18 78.1899 125.04 78.1899 124.89C78.3999 124.73 78.5799 124.55 78.7099 124.37C79.1799 123.69 79.0299 120.15 78.9499 118.69C78.9299 118.28 78.7699 117.88 78.4899 117.57C78.3299 117.39 78.1399 117.18 77.9299 116.96L79.6599 113.59L79.2999 113.02L80.3599 112.17L76.8399 108.12L76.8499 108.1ZM56.4399 96.1501C56.4399 96.1501 56.4399 96.1401 56.4399 96.1301C56.4299 96.0601 56.4099 95.9901 56.3999 95.9201C56.3999 95.8901 56.3999 95.8601 56.3899 95.8301C56.3899 95.7801 56.3799 95.7201 56.3699 95.6601C56.3699 95.6201 56.3699 95.5801 56.3599 95.5401C56.3599 95.4901 56.3499 95.4301 56.3499 95.3801C56.3499 95.3401 56.3499 95.2901 56.3499 95.2401C56.3499 95.1801 56.3499 95.1301 56.3499 95.0701C56.3499 95.0201 56.3499 94.9701 56.3499 94.9201C56.3499 94.8601 56.3499 94.8001 56.3499 94.7401C56.3499 94.6901 56.3499 94.6401 56.3499 94.5901C56.3499 94.5301 56.3499 94.4601 56.3499 94.4001C56.3499 94.3501 56.3499 94.2901 56.3499 94.2401C56.3499 94.1701 56.3499 94.1101 56.3499 94.0401C56.3499 93.9901 56.3499 93.9401 56.3499 93.8801C56.3499 93.8101 56.3499 93.7401 56.3499 93.6601C56.3499 93.6101 56.3499 93.5501 56.3499 93.5001C56.3499 93.4201 56.3499 93.3501 56.3499 93.2701C56.3499 93.2201 56.3499 93.1701 56.3499 93.1201C56.3499 93.0401 56.3499 92.9601 56.3499 92.8801C56.3499 92.8301 56.3499 92.7801 56.3499 92.7301C56.3499 92.6501 56.3499 92.5601 56.3599 92.4801C56.3599 92.4301 56.3599 92.3801 56.3599 92.3401C56.3599 92.2501 56.3599 92.1601 56.3699 92.0701C56.3699 92.0301 56.3699 91.9901 56.3699 91.9401C56.3699 91.8401 56.3799 91.7401 56.3899 91.6401C56.3899 91.6101 56.3899 91.5701 56.3899 91.5401C56.3899 91.4301 56.3999 91.3301 56.4099 91.2201C56.4099 91.1901 56.4099 91.1701 56.4099 91.1401C56.4099 91.0301 56.4299 90.9101 56.4299 90.8001C56.4299 90.7801 56.4299 90.7601 56.4299 90.7501C56.4299 90.6301 56.4499 90.5101 56.4599 90.3901V90.3701C56.6499 90.4201 56.8999 90.3901 57.1599 90.3201C57.3799 92.6101 57.6999 96.2201 57.8299 97.6201C57.1699 97.3401 56.5599 96.8901 56.4099 96.1601L56.4399 96.1501ZM77.0299 118.9C77.0299 118.9 77.0099 118.83 76.9999 118.79L77.2899 118.22C77.3799 118.31 77.4399 118.37 77.4399 118.37L77.5299 119.3C77.5299 119.3 77.3299 119.13 77.0299 118.9Z" fill="url(#paint4_linear_627_2690)"/>
</g>
<path d="M95 131H12V149H95V131Z" fill="#C0DFD9"/>
<path d="M9 35V152H98V35H9ZM96.5985 36.151V126.947H10.4114V36.151H96.5985ZM10.4114 150.849V128.089H96.5985V150.849H10.4114Z" fill="white"/>
<path d="M47.228 137.528C47.308 137.4 47.424 137.312 47.576 137.264C47.728 137.216 47.916 137.192 48.14 137.192C48.372 137.192 48.556 137.212 48.692 137.252C48.828 137.292 48.932 137.34 49.004 137.396C49.076 137.452 49.128 137.536 49.16 137.648C49.208 137.784 49.232 137.992 49.232 138.272V141.896C49.232 142.952 48.904 143.912 48.248 144.776C47.928 145.184 47.516 145.516 47.012 145.772C46.508 146.02 45.948 146.144 45.332 146.144C44.724 146.144 44.168 146.016 43.664 145.76C43.168 145.504 42.764 145.168 42.452 144.752C41.804 143.904 41.48 142.944 41.48 141.872V138.26C41.48 138.068 41.484 137.928 41.492 137.84C41.508 137.744 41.548 137.636 41.612 137.516C41.676 137.396 41.784 137.312 41.936 137.264C42.088 137.216 42.292 137.192 42.548 137.192C42.804 137.192 43.008 137.216 43.16 137.264C43.312 137.312 43.416 137.396 43.472 137.516C43.568 137.7 43.616 137.952 43.616 138.272V141.872C43.616 142.36 43.736 142.824 43.976 143.264C44.096 143.488 44.276 143.668 44.516 143.804C44.756 143.94 45.04 144.008 45.368 144.008C45.952 144.008 46.388 143.792 46.676 143.36C46.964 142.928 47.108 142.428 47.108 141.86V138.188C47.108 137.876 47.148 137.656 47.228 137.528ZM49.9558 144.764C49.7478 144.508 49.6438 144.28 49.6438 144.08C49.6438 143.872 49.8158 143.6 50.1598 143.264C50.3598 143.072 50.5718 142.976 50.7958 142.976C51.0198 142.976 51.3318 143.176 51.7318 143.576C51.8438 143.712 52.0038 143.844 52.2118 143.972C52.4198 144.092 52.6118 144.152 52.7878 144.152C53.5318 144.152 53.9038 143.848 53.9038 143.24C53.9038 143.056 53.7998 142.904 53.5918 142.784C53.3918 142.656 53.1398 142.564 52.8358 142.508C52.5318 142.452 52.2038 142.364 51.8518 142.244C51.4998 142.116 51.1718 141.968 50.8678 141.8C50.5638 141.632 50.3078 141.368 50.0998 141.008C49.8998 140.64 49.7998 140.2 49.7998 139.688C49.7998 138.984 50.0598 138.372 50.5798 137.852C51.1078 137.324 51.8238 137.06 52.7278 137.06C53.2078 137.06 53.6438 137.124 54.0358 137.252C54.4358 137.372 54.7118 137.496 54.8638 137.624L55.1638 137.852C55.4118 138.084 55.5358 138.28 55.5358 138.44C55.5358 138.6 55.4398 138.82 55.2478 139.1C54.9758 139.5 54.6958 139.7 54.4078 139.7C54.2398 139.7 54.0318 139.62 53.7838 139.46C53.7598 139.444 53.7118 139.404 53.6398 139.34C53.5758 139.276 53.5158 139.224 53.4598 139.184C53.2918 139.08 53.0758 139.028 52.8118 139.028C52.5558 139.028 52.3398 139.092 52.1638 139.22C51.9958 139.34 51.9118 139.512 51.9118 139.736C51.9118 139.952 52.0118 140.128 52.2118 140.264C52.4198 140.4 52.6758 140.492 52.9798 140.54C53.2838 140.588 53.6158 140.664 53.9758 140.768C54.3358 140.864 54.6678 140.984 54.9718 141.128C55.2758 141.272 55.5278 141.524 55.7278 141.884C55.9358 142.236 56.0398 142.672 56.0398 143.192C56.0398 143.712 55.9358 144.172 55.7278 144.572C55.5198 144.964 55.2478 145.268 54.9118 145.484C54.2638 145.908 53.5718 146.12 52.8358 146.12C52.4598 146.12 52.1038 146.076 51.7678 145.988C51.4318 145.892 51.1598 145.776 50.9518 145.64C50.5278 145.384 50.2318 145.136 50.0638 144.896L49.9558 144.764ZM61.4154 137.828L64.6554 144.524C64.7914 144.796 64.8594 145 64.8594 145.136C64.8594 145.424 64.6274 145.684 64.1634 145.916C63.8914 146.052 63.6754 146.12 63.5154 146.12C63.3634 146.12 63.2354 146.084 63.1314 146.012C63.0354 145.94 62.9634 145.864 62.9154 145.784C62.8754 145.704 62.8154 145.584 62.7354 145.424L62.1114 144.128H58.7874L58.1634 145.424C58.0834 145.584 58.0194 145.7 57.9714 145.772C57.9314 145.844 57.8594 145.92 57.7554 146C57.6594 146.072 57.5314 146.108 57.3714 146.108C57.2194 146.108 57.0074 146.04 56.7354 145.904C56.2714 145.68 56.0394 145.424 56.0394 145.136C56.0394 145 56.1074 144.796 56.2434 144.524L59.4834 137.816C59.5714 137.632 59.7034 137.484 59.8794 137.372C60.0634 137.26 60.2554 137.204 60.4554 137.204C60.8874 137.204 61.2074 137.412 61.4154 137.828ZM60.4434 140.708L59.6514 142.352H61.2474L60.4434 140.708Z" fill="#073B64"/>
<defs>
<linearGradient id="paint0_linear_627_2690" x1="66.8496" y1="127.07" x2="61.2196" y2="124.77" gradientUnits="userSpaceOnUse">
<stop stop-color="white"/>
<stop offset="0.1" stop-color="#F9F9F9"/>
<stop offset="0.22" stop-color="#E9E9E9"/>
<stop offset="0.36" stop-color="#CFCFCF"/>
<stop offset="0.51" stop-color="#AAAAAA"/>
<stop offset="0.67" stop-color="#7A7A7A"/>
<stop offset="0.83" stop-color="#414141"/>
<stop offset="1"/>
</linearGradient>
<linearGradient id="paint1_linear_627_2690" x1="27.5496" y1="72.81" x2="38.5196" y2="72.81" gradientUnits="userSpaceOnUse">
<stop stop-color="white"/>
<stop offset="0.1" stop-color="#F9F9F9"/>
<stop offset="0.22" stop-color="#E9E9E9"/>
<stop offset="0.36" stop-color="#CFCFCF"/>
<stop offset="0.51" stop-color="#AAAAAA"/>
<stop offset="0.67" stop-color="#7A7A7A"/>
<stop offset="0.83" stop-color="#414141"/>
<stop offset="1"/>
</linearGradient>
<linearGradient id="paint2_linear_627_2690" x1="43.5505" y1="99.5501" x2="47.6605" y2="106.77" gradientUnits="userSpaceOnUse">
<stop stop-color="white"/>
<stop offset="0.1" stop-color="#F9F9F9"/>
<stop offset="0.22" stop-color="#E9E9E9"/>
<stop offset="0.36" stop-color="#CFCFCF"/>
<stop offset="0.51" stop-color="#AAAAAA"/>
<stop offset="0.67" stop-color="#7A7A7A"/>
<stop offset="0.83" stop-color="#414141"/>
<stop offset="1"/>
</linearGradient>
<linearGradient id="paint3_linear_627_2690" x1="43.9003" y1="106.82" x2="49.5303" y2="112.81" gradientUnits="userSpaceOnUse">
<stop stop-color="white"/>
<stop offset="0.1" stop-color="#F9F9F9"/>
<stop offset="0.22" stop-color="#E9E9E9"/>
<stop offset="0.36" stop-color="#CFCFCF"/>
<stop offset="0.51" stop-color="#AAAAAA"/>
<stop offset="0.67" stop-color="#7A7A7A"/>
<stop offset="0.83" stop-color="#414141"/>
<stop offset="1"/>
</linearGradient>
<linearGradient id="paint4_linear_627_2690" x1="72.5099" y1="131.28" x2="49.2199" y2="131.28" gradientUnits="userSpaceOnUse">
<stop stop-color="white"/>
<stop offset="0.19" stop-color="#C6C6C6"/>
<stop offset="0.49" stop-color="#727272"/>
<stop offset="0.73" stop-color="#343434"/>
<stop offset="0.91" stop-color="#0E0E0E"/>
<stop offset="1"/>
</linearGradient>
</defs>
</svg>
