<svg width="1920" height="431" viewBox="0 0 1920 431" fill="none" xmlns="http://www.w3.org/2000/svg">
<path d="M-209.773 3.56387C-182.463 -3.04613 -154.773 1.56387 -154.773 1.56387C-134.773 5.07387 -119.473 12.7139 -103.773 20.5639C-91.2928 26.8039 -83.9128 30.4939 -76.7728 37.5639C-72.9228 41.3839 -68.7028 44.8239 -64.7728 48.5639C-64.7728 48.5639 -64.7528 48.5839 -64.7428 48.5939C-53.2828 59.4839 -50.0028 54.0039 -35.6928 52.7639C-22.0028 51.5739 -7.6828 55.7839 3.13721 64.2639C17.8172 75.7639 25.9872 95.0539 24.0472 113.594C22.9772 123.774 18.2172 127.084 17.9972 140.424C17.8572 148.394 17.6872 158.934 24.2372 164.564C30.9772 170.364 37.7872 164.894 54.2372 168.564C60.7772 170.024 70.5372 172.204 78.2372 179.564C89.1872 190.034 84.2872 199.834 97.2372 212.564C100.357 215.634 106.537 221.544 113.387 220.514C119.217 219.634 122.527 213.884 124.037 212.354C138.257 197.874 152.377 183.384 167.237 169.564C190.447 147.994 227.117 151.234 242.237 152.564C311.167 158.644 351.487 222.634 361.237 248.564C363.667 255.034 369.817 274.074 372.237 296.564C373.187 305.354 373.657 309.754 373.237 315.564C372.497 325.824 370.237 344.564 370.237 344.564C369.747 348.604 369.377 351.564 371.237 353.564C373.997 356.524 379.047 354.564 386.237 354.564C393.537 354.564 398.687 356.594 406.237 359.564C422.477 365.954 423.457 373.734 431.237 373.564C439.947 373.374 442.367 363.534 453.237 353.564C471.207 337.064 495.157 335.904 502.237 335.564C502.237 335.564 532.647 334.094 558.237 352.564C567.637 359.354 572.237 364.564 572.237 364.564C578.227 371.354 578.307 374.324 582.097 375.644C588.437 377.844 592.867 371.194 604.237 367.564C611.787 365.154 617.607 365.624 629.237 366.564C662.327 369.244 691.317 387.724 709.257 415.744C724.627 439.744 741.727 497.104 713.237 518.564C701.127 527.684 685.967 522.614 662.237 518.564C622.477 511.784 581.567 518.094 541.237 517.564C386.027 515.534 -27.2128 659.934 -193.763 527.564C-361.263 394.454 -241.773 11.3139 -209.773 3.56387Z" fill="#ADC9FF"/>
<g filter="url(#filter0_d_505_2102)">
<path d="M-291.39 69.9884C-260.865 62.591 -229.914 67.7502 -229.914 67.7502C-207.559 71.6783 -190.457 80.2284 -172.909 89.0135C-158.959 95.9968 -150.71 100.126 -142.729 108.039C-138.426 112.314 -133.709 116.163 -129.316 120.349C-123.191 126.179 -121 128.552 -117.021 129.302C-112.047 130.242 -109.007 127.735 -103.608 125.944C-94.7887 123.024 -87.0762 124.445 -79.0172 125.944C-59.1435 129.626 -40.8906 146.044 -33.1222 165.651C-28.0923 178.342 -28.5059 189.69 -28.7183 194.211C-29.1095 202.593 -29.5678 212.329 -35.4248 222.189C-39.6276 229.262 -44.6127 233.033 -43.2491 237.857C-42.176 241.662 -38.5322 241.18 -35.4248 245.69C-29.9702 253.591 -36.1849 262.276 -32.0715 265.835C-28.1594 269.226 -21.4641 262.265 -9.71646 262.477C0.220367 262.656 7.5752 267.849 12.6386 271.43C24.4533 279.779 22.8549 285.688 36.1114 299.408C44.1481 307.723 52.956 316.844 63.3958 316.128C72.0584 315.535 78.016 308.428 81.1904 304.735C81.1904 304.735 96.1236 287.299 130.014 255.763C155.957 231.623 196.945 235.249 213.845 236.737C290.892 243.542 335.96 315.154 346.858 344.173C349.574 351.414 356.448 372.722 359.153 397.891C360.215 407.728 360.741 412.652 360.271 419.154C359.444 430.636 356.918 451.609 356.918 451.609C356.37 456.13 355.957 459.443 358.036 461.681C361.121 464.993 366.765 462.8 374.802 462.8C382.962 462.8 388.718 465.072 397.157 468.396C415.309 475.547 416.405 484.254 425.101 484.063C434.836 483.851 437.541 472.839 449.691 461.681C469.777 443.215 496.548 441.917 504.461 441.537C504.461 441.537 538.452 439.892 567.056 460.562C577.562 468.161 582.704 473.991 582.704 473.991C589.399 481.59 589.489 484.914 593.725 486.391C600.812 488.853 605.763 481.411 618.472 477.349C626.911 474.651 633.417 475.177 646.416 476.229C650.306 476.543 667.787 478.143 684.42 485.182C722.792 501.432 740.822 539.963 743.057 544.91C757.398 576.682 764.048 628.43 740.307 646.336C726.771 656.542 709.826 650.868 683.302 646.336C638.86 638.748 593.133 645.81 548.054 645.217C374.567 642.945 -87.3333 804.546 -273.495 656.408C-460.708 507.453 -327.159 78.6616 -291.39 69.9884Z" fill="#FFE3ED"/>
</g>
<g filter="url(#filter1_d_505_2102)">
<path d="M1469.85 334.344C1499.64 302.144 1548.4 288.994 1590.34 301.844C1602.09 261.804 1636.44 229.244 1677.05 219.654C1703.99 213.294 1735.28 217.834 1754.07 238.154C1752.88 204.654 1771.45 173.604 1793.08 147.994C1831.28 102.784 1886.76 66.0139 1945.68 71.5539C1957.44 72.6639 1969.27 75.5339 1979.22 81.9039C2006.55 99.3839 2011.96 136.544 2012.77 168.974C2014.75 248.324 2005.29 327.464 1995.85 406.274C1994.9 414.174 1993.92 422.214 1990.6 429.454C1984.07 443.704 1969.26 452.734 1954.01 456.364C1938.76 459.994 1922.85 459.044 1907.19 458.374C1851.43 455.994 1795.49 457.504 1739.94 462.894C1652.5 471.384 1565.09 489.494 1477.56 481.984C1439.6 478.724 1440.26 451.374 1439.08 419.404C1437.94 388.564 1448.8 357.084 1469.84 334.344H1469.85Z" fill="#ADC9FF"/>
</g>
<g filter="url(#filter2_d_505_2102)">
<path d="M1429.1 507.856C1423.1 501.306 1442.95 472.436 1458.1 454.856C1468.19 443.146 1485.99 425.026 1512.1 410.856C1525.65 403.496 1534.91 400.746 1538.1 399.856C1541.43 398.926 1556.64 394.826 1576.1 395.856C1586.28 396.396 1591.37 396.666 1598.1 398.856C1604.46 400.926 1606.61 402.826 1610.1 401.856C1615.9 400.246 1616.64 393.136 1622.1 383.856C1623.71 381.116 1630.24 370.536 1641.1 363.856C1643.38 362.456 1658.23 353.616 1675.1 357.856C1689.97 361.596 1699.1 371.856 1699.1 371.856C1702.84 376.056 1704.47 379.686 1708.1 379.856C1712.22 380.046 1714 375.536 1722.1 369.856C1726.73 366.606 1730.68 364.906 1733.1 363.856C1742.92 359.616 1751.55 359.046 1755.69 358.816C1758.24 358.676 1767.42 358.286 1779.1 360.856C1790.04 363.266 1793.95 366.236 1797.1 363.856C1800.09 361.586 1798.63 357.336 1800.1 347.856C1800.1 347.856 1800.99 342.146 1805.1 330.856C1812.21 311.346 1831.78 293.656 1837.1 288.856C1839.76 286.456 1855.54 272.416 1879.1 261.856C1890.49 256.756 1898.18 254.926 1906.1 254.856C1912.59 254.796 1918.49 254.736 1925.1 257.856C1930.85 260.566 1932.49 263.496 1936.1 262.856C1941.31 261.936 1941.22 255.266 1948.1 252.856C1952.53 251.306 1955.88 252.916 1957.1 250.856C1958.23 248.956 1956.28 246.026 1955.1 243.856C1953.18 240.336 1952.49 234.516 1951.1 222.856C1950.01 213.746 1948.69 202.586 1951.1 188.856C1953.15 177.216 1954.79 167.886 1962.1 161.856C1971.81 153.856 1986.11 156.136 1989.1 156.856C2005.33 160.766 2012.39 187.256 2016.36 200.606C2025.26 230.536 2029.07 262.116 2030.8 293.206C2034.29 356.016 2032.4 387.556 2023.09 420.946C2016.32 445.196 2001.05 499.956 1965.1 508.846C1960.79 509.916 1959.75 509.436 1941.1 508.846H1648.1C1560.43 508.766 1549.13 508.566 1530.1 508.846C1521.21 508.976 1503.31 509.316 1483.47 509.046C1475.21 508.926 1472.36 508.786 1465.1 508.846C1462.12 508.876 1452.11 508.986 1441.1 508.846C1430.32 508.716 1429.68 508.476 1429.1 507.846V507.856Z" fill="#FFE3ED"/>
</g>
<g filter="url(#filter3_d_505_2102)">
<path d="M1594.29 478.61C1598.09 450.34 1581.24 435.12 1555.57 422.7C1529.9 410.27 1496.55 416.2 1476.73 436.71C1450.74 392.06 1394.48 367.37 1344.02 378.45C1319.99 307.69 1248.09 256.09 1173.36 256C1098.63 255.91 1026.59 307.32 1002.39 378.02C964.348 363.54 925.298 349.23 884.608 348.24C843.918 347.25 800.628 361.92 777.208 395.22C742.198 353.64 688.488 325.46 634.368 330.52C580.248 335.58 529.358 379.09 524.858 433.26C495.958 419.54 463.708 409.15 432.258 415.01C400.808 420.87 371.448 447.52 372.008 479.51C690.918 479.72 1008.46 482.66 1327.38 482.87L1594.29 478.61Z" fill="white"/>
</g>
<defs>
<filter id="filter0_d_505_2102" x="-371" y="43" width="1173" height="699" filterUnits="userSpaceOnUse" color-interpolation-filters="sRGB">
<feFlood flood-opacity="0" result="BackgroundImageFix"/>
<feColorMatrix in="SourceAlpha" type="matrix" values="0 0 0 0 0 0 0 0 0 0 0 0 0 0 0 0 0 0 127 0" result="hardAlpha"/>
<feOffset dx="23"/>
<feGaussianBlur stdDeviation="11.5"/>
<feColorMatrix type="matrix" values="0 0 0 0 0.027451 0 0 0 0 0.231373 0 0 0 0 0.392157 0 0 0 0.44 0"/>
<feBlend mode="normal" in2="BackgroundImageFix" result="effect1_dropShadow_505_2102"/>
<feBlend mode="normal" in="SourceGraphic" in2="effect1_dropShadow_505_2102" result="shape"/>
</filter>
<filter id="filter1_d_505_2102" x="1439" y="48" width="620.036" height="458.768" filterUnits="userSpaceOnUse" color-interpolation-filters="sRGB">
<feFlood flood-opacity="0" result="BackgroundImageFix"/>
<feColorMatrix in="SourceAlpha" type="matrix" values="0 0 0 0 0 0 0 0 0 0 0 0 0 0 0 0 0 0 127 0" result="hardAlpha"/>
<feOffset dx="23"/>
<feGaussianBlur stdDeviation="11.5"/>
<feColorMatrix type="matrix" values="0 0 0 0 0.027451 0 0 0 0 0.231373 0 0 0 0 0.392157 0 0 0 0.44 0"/>
<feBlend mode="normal" in2="BackgroundImageFix" result="effect1_dropShadow_505_2102"/>
<feBlend mode="normal" in="SourceGraphic" in2="effect1_dropShadow_505_2102" result="shape"/>
</filter>
<filter id="filter2_d_505_2102" x="1428" y="133" width="650.432" height="399.481" filterUnits="userSpaceOnUse" color-interpolation-filters="sRGB">
<feFlood flood-opacity="0" result="BackgroundImageFix"/>
<feColorMatrix in="SourceAlpha" type="matrix" values="0 0 0 0 0 0 0 0 0 0 0 0 0 0 0 0 0 0 127 0" result="hardAlpha"/>
<feOffset dx="23"/>
<feGaussianBlur stdDeviation="11.5"/>
<feColorMatrix type="matrix" values="0 0 0 0 0.027451 0 0 0 0 0.231373 0 0 0 0 0.392157 0 0 0 0.44 0"/>
<feBlend mode="normal" in2="BackgroundImageFix" result="effect1_dropShadow_505_2102"/>
<feBlend mode="normal" in="SourceGraphic" in2="effect1_dropShadow_505_2102" result="shape"/>
</filter>
<filter id="filter3_d_505_2102" x="372" y="233" width="1268.82" height="272.87" filterUnits="userSpaceOnUse" color-interpolation-filters="sRGB">
<feFlood flood-opacity="0" result="BackgroundImageFix"/>
<feColorMatrix in="SourceAlpha" type="matrix" values="0 0 0 0 0 0 0 0 0 0 0 0 0 0 0 0 0 0 127 0" result="hardAlpha"/>
<feOffset dx="23"/>
<feGaussianBlur stdDeviation="11.5"/>
<feColorMatrix type="matrix" values="0 0 0 0 0.027451 0 0 0 0 0.231373 0 0 0 0 0.392157 0 0 0 0.44 0"/>
<feBlend mode="normal" in2="BackgroundImageFix" result="effect1_dropShadow_505_2102"/>
<feBlend mode="normal" in="SourceGraphic" in2="effect1_dropShadow_505_2102" result="shape"/>
</filter>
</defs>
</svg>
