<svg width="868" height="323" viewBox="0 0 868 323" fill="none" xmlns="http://www.w3.org/2000/svg">
<g filter="url(#filter0_d_421_2393)">
<path d="M269.534 76.2599C265.734 104.53 282.584 119.75 308.254 132.17C333.924 144.6 367.275 138.67 387.094 118.16C413.084 162.81 469.344 187.5 519.804 176.42C543.834 247.18 615.734 298.78 690.464 298.87C765.194 298.96 837.234 247.55 861.434 176.85C899.474 191.33 938.524 205.64 979.214 206.63C1019.9 207.62 1063.19 192.95 1086.61 159.65C1121.62 201.23 1175.33 229.41 1229.45 224.35C1283.57 219.29 1334.46 175.78 1338.96 121.61C1367.86 135.33 1400.11 145.72 1431.56 139.86C1463.01 134 1492.37 107.35 1491.81 75.36C1172.9 75.15 855.364 72.21 536.444 71.9999L269.534 76.2599Z" fill="#ADC9FF"/>
</g>
<g filter="url(#filter1_d_421_2393)">
<path d="M3.53444 -5.7401C-0.265608 22.5299 16.5844 37.7499 42.2544 50.1699C67.9245 62.5999 101.275 56.6699 121.094 36.1599C147.084 80.8099 203.344 105.5 253.804 94.4199C277.834 165.18 349.734 216.78 424.464 216.87C499.194 216.96 571.234 165.55 595.434 94.85C633.474 109.33 672.524 123.64 713.214 124.63C753.904 125.62 797.194 110.95 820.614 77.65C855.624 119.23 909.334 147.41 963.454 142.35C1017.57 137.29 1068.46 93.78 1072.96 39.61C1101.86 53.33 1134.11 63.72 1165.56 57.86C1197.01 52 1226.37 25.35 1225.81 -6.64001C906.904 -6.85005 589.364 -9.79005 270.444 -10.0001L3.53444 -5.7401Z" fill="white"/>
</g>
<defs>
<filter id="filter0_d_421_2393" x="266" y="48" width="1270.82" height="274.87" filterUnits="userSpaceOnUse" color-interpolation-filters="sRGB">
<feFlood flood-opacity="0" result="BackgroundImageFix"/>
<feColorMatrix in="SourceAlpha" type="matrix" values="0 0 0 0 0 0 0 0 0 0 0 0 0 0 0 0 0 0 127 0" result="hardAlpha"/>
<feOffset dx="21"/>
<feGaussianBlur stdDeviation="12"/>
<feColorMatrix type="matrix" values="0 0 0 0 0 0 0 0 0 0 0 0 0 0 0 0 0 0 0.25 0"/>
<feBlend mode="normal" in2="BackgroundImageFix" result="effect1_dropShadow_421_2393"/>
<feBlend mode="normal" in="SourceGraphic" in2="effect1_dropShadow_421_2393" result="shape"/>
</filter>
<filter id="filter1_d_421_2393" x="0" y="-34" width="1270.82" height="274.87" filterUnits="userSpaceOnUse" color-interpolation-filters="sRGB">
<feFlood flood-opacity="0" result="BackgroundImageFix"/>
<feColorMatrix in="SourceAlpha" type="matrix" values="0 0 0 0 0 0 0 0 0 0 0 0 0 0 0 0 0 0 127 0" result="hardAlpha"/>
<feOffset dx="21"/>
<feGaussianBlur stdDeviation="12"/>
<feColorMatrix type="matrix" values="0 0 0 0 0 0 0 0 0 0 0 0 0 0 0 0 0 0 0.25 0"/>
<feBlend mode="normal" in2="BackgroundImageFix" result="effect1_dropShadow_421_2393"/>
<feBlend mode="normal" in="SourceGraphic" in2="effect1_dropShadow_421_2393" result="shape"/>
</filter>
</defs>
</svg>
