<?xml version="1.0" encoding="UTF-8"?>
<svg id="Layer_2" data-name="Layer 2" xmlns="http://www.w3.org/2000/svg" viewBox="0 0 359.52 163.42">
  <defs>
    <style>
      .cls-1 {
        fill: none;
        stroke: #010101;
        stroke-miterlimit: 11.34;
        stroke-width: .28px;
      }
    </style>
  </defs>
  <g id="Layer_2-2" data-name="Layer 2">
    <path class="cls-1" d="m56.43.14c82.15,0,235.7.02,235.7.02,3.25,30.92-15.13,87.37,31.95,66.2,47.07-21.17,47.07,40.76,0,30.92-47.07-9.75-40.29,26.65-31.95,57.66-47.07,5.57-116.2,20.15-89.62-10.77,26.58-31.01-67.71-31.01-47.07,0,20.5,30.92-51.74,15.41-98.81,10.77-7.63-31.01,26.01-66.67-21.06-56.45-47.21,10.21-47.21-51.63,0-30.92C82.63,88.28,57.89,31.08,56.62.16"/>
  </g>
</svg>