<svg width="1270" height="249" viewBox="0 0 1270 249" fill="none" xmlns="http://www.w3.org/2000/svg">
<g filter="url(#filter0_d_114_805)">
<path d="M1223 246C1226.8 217.73 1209.95 202.51 1184.28 190.09C1158.61 177.66 1125.26 183.59 1105.44 204.1C1079.45 159.45 1023.19 134.76 972.73 145.84C948.7 75.08 876.8 23.48 802.07 23.39C727.34 23.3 655.3 74.71 631.1 145.41C593.06 130.93 554.01 116.62 513.32 115.63C472.63 114.64 429.34 129.31 405.92 162.61C370.91 121.03 317.2 92.85 263.08 97.91C208.96 102.97 158.07 146.48 153.57 200.65C124.67 186.93 92.4198 176.54 60.9698 182.4C29.5198 188.26 0.159798 214.91 0.719798 246.9C319.63 247.11 637.17 250.05 956.09 250.26L1223 246Z" fill="#F0F8FF"/>
</g>
<defs>
<filter id="filter0_d_114_805" x="0.711914" y="0.389893" width="1268.82" height="272.87" filterUnits="userSpaceOnUse" color-interpolation-filters="sRGB">
<feFlood flood-opacity="0" result="BackgroundImageFix"/>
<feColorMatrix in="SourceAlpha" type="matrix" values="0 0 0 0 0 0 0 0 0 0 0 0 0 0 0 0 0 0 127 0" result="hardAlpha"/>
<feOffset dx="23"/>
<feGaussianBlur stdDeviation="11.5"/>
<feColorMatrix type="matrix" values="0 0 0 0 0.027451 0 0 0 0 0.231373 0 0 0 0 0.392157 0 0 0 0.44 0"/>
<feBlend mode="normal" in2="BackgroundImageFix" result="effect1_dropShadow_114_805"/>
<feBlend mode="normal" in="SourceGraphic" in2="effect1_dropShadow_114_805" result="shape"/>
</filter>
</defs>
</svg>
