<svg width="971" height="626" viewBox="0 0 971 626" fill="none" xmlns="http://www.w3.org/2000/svg">
<g filter="url(#filter0_d_114_801)">
<path d="M-122.39 26.9884C-91.8645 19.591 -60.9139 24.7502 -60.9139 24.7502C-38.5589 28.6783 -21.4572 37.2284 -3.90851 46.0135C10.0411 52.9968 18.2901 57.1263 26.2708 65.0385C30.5742 69.3136 35.2911 73.1633 39.6839 77.3489C45.8092 83.1795 48 85.552 51.9792 86.3018C56.9532 87.2419 59.9935 84.7351 65.3922 82.9445C74.2113 80.0236 81.9238 81.4448 89.9828 82.9445C109.856 86.6264 128.109 103.044 135.878 122.651C140.908 135.342 140.494 146.69 140.282 151.211C139.891 159.593 139.432 169.329 133.575 179.189C129.372 186.262 124.387 190.033 125.751 194.857C126.824 198.662 130.468 198.18 133.575 202.69C139.03 210.591 132.815 219.276 136.928 222.835C140.841 226.226 147.536 219.265 159.284 219.477C169.22 219.656 176.575 224.849 181.639 228.43C193.453 236.779 191.855 242.688 205.111 256.408C213.148 264.723 221.956 273.844 232.396 273.128C241.058 272.535 247.016 265.428 250.19 261.735C250.19 261.735 265.124 244.299 299.014 212.763C324.957 188.623 365.945 192.249 382.845 193.737C459.892 200.542 504.96 272.154 515.858 301.173C518.574 308.414 525.448 329.722 528.153 354.891C529.215 364.728 529.741 369.652 529.271 376.154C528.444 387.636 525.918 408.609 525.918 408.609C525.37 413.13 524.957 416.443 527.036 418.681C530.121 421.993 535.765 419.8 543.802 419.8C551.962 419.8 557.718 422.072 566.157 425.396C584.309 432.547 585.405 441.254 594.101 441.063C603.836 440.851 606.541 429.839 618.691 418.681C638.777 400.215 665.548 398.917 673.461 398.537C673.461 398.537 707.452 396.892 736.056 417.562C746.562 425.161 751.704 430.991 751.704 430.991C758.399 438.59 758.489 441.914 762.725 443.391C769.812 445.853 774.763 438.411 787.472 434.349C795.911 431.651 802.417 432.177 815.416 433.229C819.306 433.543 836.788 435.143 853.42 442.182C891.792 458.432 909.821 496.963 912.057 501.91C926.398 533.682 933.048 585.43 909.307 603.336C895.771 613.542 878.826 607.868 852.302 603.336C807.86 595.748 762.133 602.81 717.054 602.217C543.567 599.945 81.6667 761.546 -104.495 613.408C-291.708 464.453 -158.159 35.6616 -122.39 26.9884Z" fill="#ADC9FF"/>
</g>
<defs>
<filter id="filter0_d_114_801" x="-202" y="0" width="1173" height="699" filterUnits="userSpaceOnUse" color-interpolation-filters="sRGB">
<feFlood flood-opacity="0" result="BackgroundImageFix"/>
<feColorMatrix in="SourceAlpha" type="matrix" values="0 0 0 0 0 0 0 0 0 0 0 0 0 0 0 0 0 0 127 0" result="hardAlpha"/>
<feOffset dx="23"/>
<feGaussianBlur stdDeviation="11.5"/>
<feColorMatrix type="matrix" values="0 0 0 0 0.027451 0 0 0 0 0.231373 0 0 0 0 0.392157 0 0 0 0.44 0"/>
<feBlend mode="normal" in2="BackgroundImageFix" result="effect1_dropShadow_114_801"/>
<feBlend mode="normal" in="SourceGraphic" in2="effect1_dropShadow_114_801" result="shape"/>
</filter>
</defs>
</svg>
