<svg width="492" height="298" viewBox="0 0 492 298" fill="none" xmlns="http://www.w3.org/2000/svg">
<g filter="url(#filter0_d_133_1205)">
<path d="M1.09796 374.856C-4.90204 368.306 14.948 339.436 30.098 321.856C40.188 310.146 57.988 292.026 84.098 277.856C97.648 270.496 106.908 267.746 110.098 266.856C113.428 265.926 128.638 261.826 148.098 262.856C158.278 263.396 163.368 263.666 170.098 265.856C176.458 267.926 178.608 269.826 182.098 268.856C187.898 267.246 188.638 260.136 194.098 250.856C195.708 248.116 202.238 237.536 213.098 230.856C215.378 229.456 230.228 220.616 247.098 224.856C261.968 228.596 271.098 238.856 271.098 238.856C274.838 243.056 276.468 246.686 280.098 246.856C284.218 247.046 285.998 242.536 294.098 236.856C298.728 233.606 302.678 231.906 305.098 230.856C314.918 226.616 323.548 226.046 327.688 225.816C330.238 225.676 339.418 225.286 351.098 227.856C362.038 230.266 365.948 233.236 369.098 230.856C372.088 228.586 370.628 224.336 372.098 214.856C372.098 214.856 372.988 209.146 377.098 197.856C384.208 178.346 403.778 160.656 409.098 155.856C411.758 153.456 427.538 139.416 451.098 128.856C462.488 123.756 470.178 121.926 478.098 121.856C484.588 121.796 490.488 121.736 497.098 124.856C502.848 127.566 504.488 130.496 508.098 129.856C513.308 128.936 513.218 122.266 520.098 119.856C524.528 118.306 527.878 119.916 529.098 117.856C530.228 115.956 528.278 113.026 527.098 110.856C525.178 107.336 524.488 101.516 523.098 89.8563C522.008 80.7463 520.688 69.5863 523.098 55.8563C525.148 44.2163 526.788 34.8863 534.098 28.8563C543.808 20.8563 558.108 23.1363 561.098 23.8563C577.328 27.7663 584.388 54.2563 588.358 67.6063C597.258 97.5363 601.068 129.116 602.798 160.206C606.288 223.016 604.398 254.556 595.088 287.946C588.318 312.196 573.048 366.956 537.098 375.846C532.788 376.916 531.748 376.436 513.098 375.846H220.098C132.428 375.766 121.128 375.566 102.098 375.846C93.208 375.976 75.308 376.316 55.468 376.046C47.208 375.926 44.358 375.786 37.098 375.846C34.118 375.876 24.108 375.986 13.098 375.846C2.31796 375.716 1.67796 375.476 1.09796 374.846V374.856Z" fill="#FFE3ED"/>
</g>
<defs>
<filter id="filter0_d_133_1205" x="0" y="0" width="650.432" height="399.481" filterUnits="userSpaceOnUse" color-interpolation-filters="sRGB">
<feFlood flood-opacity="0" result="BackgroundImageFix"/>
<feColorMatrix in="SourceAlpha" type="matrix" values="0 0 0 0 0 0 0 0 0 0 0 0 0 0 0 0 0 0 127 0" result="hardAlpha"/>
<feOffset dx="23"/>
<feGaussianBlur stdDeviation="11.5"/>
<feColorMatrix type="matrix" values="0 0 0 0 0.027451 0 0 0 0 0.231373 0 0 0 0 0.392157 0 0 0 0.44 0"/>
<feBlend mode="normal" in2="BackgroundImageFix" result="effect1_dropShadow_133_1205"/>
<feBlend mode="normal" in="SourceGraphic" in2="effect1_dropShadow_133_1205" result="shape"/>
</filter>
</defs>
</svg>
