<svg width="552" height="379" viewBox="0 0 552 379" fill="none" xmlns="http://www.w3.org/2000/svg">
<g filter="url(#filter0_d_114_804)">
<path d="M2.0003 375C-3.9997 368.45 15.8503 339.58 31.0003 322C41.0903 310.29 58.8903 292.17 85.0003 278C98.5503 270.64 107.81 267.89 111 267C114.33 266.07 129.54 261.97 149 263C159.18 263.54 164.27 263.81 171 266C177.36 268.07 179.51 269.97 183 269C188.8 267.39 189.54 260.28 195 251C196.61 248.26 203.14 237.68 214 231C216.28 229.6 231.13 220.76 248 225C262.87 228.74 272 239 272 239C275.74 243.2 277.37 246.83 281 247C285.12 247.19 286.9 242.68 295 237C299.63 233.75 303.58 232.05 306 231C315.82 226.76 324.45 226.19 328.59 225.96C331.14 225.82 340.32 225.43 352 228C362.94 230.41 366.85 233.38 370 231C372.99 228.73 371.53 224.48 373 215C373 215 373.89 209.29 378 198C385.11 178.49 404.68 160.8 410 156C412.66 153.6 428.44 139.56 452 129C463.39 123.9 471.08 122.07 479 122C485.49 121.94 491.39 121.88 498 125C503.75 127.71 505.39 130.64 509 130C514.21 129.08 514.12 122.41 521 120C525.43 118.45 528.78 120.06 530 118C531.13 116.1 529.18 113.17 528 111C526.08 107.48 525.39 101.66 524 90C522.91 80.89 521.59 69.73 524 56C526.05 44.36 527.69 35.03 535 29C544.71 21 559.01 23.28 562 24C578.23 27.91 585.29 54.4 589.26 67.75C598.16 97.68 601.97 129.26 603.7 160.35C607.19 223.16 605.3 254.7 595.99 288.09C589.22 312.34 573.95 367.1 538 375.99C533.69 377.06 532.65 376.58 514 375.99H221C133.33 375.91 122.03 375.71 103 375.99C94.1103 376.12 76.2103 376.46 56.3703 376.19C48.1103 376.07 45.2603 375.93 38.0003 375.99C35.0203 376.02 25.0103 376.13 14.0003 375.99C3.2203 375.86 2.5803 375.62 2.0003 374.99V375Z" fill="#FFE3ED"/>
</g>
<defs>
<filter id="filter0_d_114_804" x="0.902344" y="0.143677" width="650.432" height="399.481" filterUnits="userSpaceOnUse" color-interpolation-filters="sRGB">
<feFlood flood-opacity="0" result="BackgroundImageFix"/>
<feColorMatrix in="SourceAlpha" type="matrix" values="0 0 0 0 0 0 0 0 0 0 0 0 0 0 0 0 0 0 127 0" result="hardAlpha"/>
<feOffset dx="23"/>
<feGaussianBlur stdDeviation="11.5"/>
<feColorMatrix type="matrix" values="0 0 0 0 0.027451 0 0 0 0 0.231373 0 0 0 0 0.392157 0 0 0 0.44 0"/>
<feBlend mode="normal" in2="BackgroundImageFix" result="effect1_dropShadow_114_804"/>
<feBlend mode="normal" in="SourceGraphic" in2="effect1_dropShadow_114_804" result="shape"/>
</filter>
</defs>
</svg>
