<svg width="841" height="438" viewBox="0 0 841 438" fill="none" xmlns="http://www.w3.org/2000/svg">
<g filter="url(#filter0_d_114_802)">
<path d="M-252.39 26.9884C-221.865 19.591 -190.914 24.7502 -190.914 24.7502C-168.559 28.6783 -151.457 37.2284 -133.909 46.0135C-119.959 52.9968 -111.71 57.1263 -103.729 65.0385C-99.4258 69.3136 -94.7089 73.1633 -90.3161 77.3489C-84.1908 83.1795 -82 85.552 -78.0208 86.3018C-73.0468 87.2419 -70.0065 84.7351 -64.6078 82.9445C-55.7887 80.0236 -48.0762 81.4448 -40.0172 82.9445C-20.1435 86.6264 -1.89062 103.044 5.87777 122.651C10.9077 135.342 10.4941 146.69 10.2817 151.211C9.89051 159.593 9.43223 169.329 3.5752 179.189C-0.627553 186.262 -5.61273 190.033 -4.24907 194.857C-3.17603 198.662 0.467846 198.18 3.5752 202.69C9.02984 210.591 2.81513 219.276 6.92846 222.835C10.8406 226.226 17.5359 219.265 29.2835 219.477C39.2204 219.656 46.5752 224.849 51.6386 228.43C63.4533 236.779 61.8549 242.688 75.1114 256.408C83.1481 264.723 91.956 273.844 102.396 273.128C111.058 272.535 117.016 265.428 120.19 261.735C120.19 261.735 135.124 244.299 169.014 212.763C194.957 188.623 235.945 192.249 252.845 193.737C329.892 200.542 374.96 272.154 385.858 301.173C388.574 308.414 395.448 329.722 398.153 354.891C399.215 364.728 399.741 369.652 399.271 376.154C398.444 387.636 395.918 408.609 395.918 408.609C395.37 413.13 394.957 416.443 397.036 418.681C400.121 421.993 405.765 419.8 413.802 419.8C421.962 419.8 427.718 422.072 436.157 425.396C454.309 432.547 455.405 441.254 464.101 441.063C473.836 440.851 476.541 429.839 488.691 418.681C508.777 400.215 535.548 398.917 543.461 398.537C543.461 398.537 577.452 396.892 606.056 417.562C616.562 425.161 621.704 430.991 621.704 430.991C628.399 438.59 628.489 441.914 632.725 443.391C639.812 445.853 644.763 438.411 657.472 434.349C665.911 431.651 672.417 432.177 685.416 433.229C689.306 433.543 706.788 435.143 723.42 442.182C761.792 458.432 779.821 496.963 782.057 501.91C796.398 533.682 803.048 585.43 779.307 603.336C765.771 613.542 748.826 607.868 722.302 603.336C677.86 595.748 632.133 602.81 587.054 602.217C413.567 599.945 -48.3333 761.546 -234.495 613.408C-421.708 464.453 -288.159 35.6616 -252.39 26.9884Z" fill="#FFE3ED"/>
</g>
<defs>
<filter id="filter0_d_114_802" x="-332" y="0" width="1173" height="699" filterUnits="userSpaceOnUse" color-interpolation-filters="sRGB">
<feFlood flood-opacity="0" result="BackgroundImageFix"/>
<feColorMatrix in="SourceAlpha" type="matrix" values="0 0 0 0 0 0 0 0 0 0 0 0 0 0 0 0 0 0 127 0" result="hardAlpha"/>
<feOffset dx="23"/>
<feGaussianBlur stdDeviation="11.5"/>
<feColorMatrix type="matrix" values="0 0 0 0 0.027451 0 0 0 0 0.231373 0 0 0 0 0.392157 0 0 0 0.44 0"/>
<feBlend mode="normal" in2="BackgroundImageFix" result="effect1_dropShadow_114_802"/>
<feBlend mode="normal" in="SourceGraphic" in2="effect1_dropShadow_114_802" result="shape"/>
</filter>
</defs>
</svg>
