<svg width="802" height="389" viewBox="0 0 802 389" fill="none" xmlns="http://www.w3.org/2000/svg">
<g filter="url(#filter0_d_133_1203)">
<path d="M-291.39 26.9884C-260.865 19.591 -229.914 24.7502 -229.914 24.7502C-207.559 28.6783 -190.457 37.2284 -172.909 46.0135C-158.959 52.9968 -150.71 57.1263 -142.729 65.0385C-138.426 69.3136 -133.709 73.1633 -129.316 77.3489C-123.191 83.1795 -121 85.552 -117.021 86.3018C-112.047 87.2419 -109.007 84.7351 -103.608 82.9445C-94.7887 80.0236 -87.0762 81.4448 -79.0172 82.9445C-59.1435 86.6264 -40.8906 103.044 -33.1222 122.651C-28.0923 135.342 -28.5059 146.69 -28.7183 151.211C-29.1095 159.593 -29.5678 169.329 -35.4248 179.189C-39.6276 186.262 -44.6127 190.033 -43.2491 194.857C-42.176 198.662 -38.5322 198.18 -35.4248 202.69C-29.9702 210.591 -36.1849 219.276 -32.0715 222.835C-28.1594 226.226 -21.4641 219.265 -9.71646 219.477C0.220367 219.656 7.5752 224.849 12.6386 228.43C24.4533 236.779 22.8549 242.688 36.1114 256.408C44.1481 264.723 52.956 273.844 63.3958 273.128C72.0584 272.535 78.016 265.428 81.1904 261.735C81.1904 261.735 96.1236 244.299 130.014 212.763C155.957 188.623 196.945 192.249 213.845 193.737C290.892 200.542 335.96 272.154 346.858 301.173C349.574 308.414 356.448 329.722 359.153 354.891C360.215 364.728 360.741 369.652 360.271 376.154C359.444 387.636 356.918 408.609 356.918 408.609C356.37 413.13 355.957 416.443 358.036 418.681C361.121 421.993 366.765 419.8 374.802 419.8C382.962 419.8 388.718 422.072 397.157 425.396C415.309 432.547 416.405 441.254 425.101 441.063C434.836 440.851 437.541 429.839 449.691 418.681C469.777 400.215 496.548 398.917 504.461 398.537C504.461 398.537 538.452 396.892 567.056 417.562C577.562 425.161 582.704 430.991 582.704 430.991C589.399 438.59 589.489 441.914 593.725 443.391C600.812 445.853 605.763 438.411 618.472 434.349C626.911 431.651 633.417 432.177 646.416 433.229C650.306 433.543 667.787 435.143 684.42 442.182C722.792 458.432 740.822 496.963 743.057 501.91C757.398 533.682 764.048 585.43 740.307 603.336C726.771 613.542 709.826 607.868 683.302 603.336C638.86 595.748 593.133 602.81 548.054 602.217C374.567 599.945 -87.3333 761.546 -273.495 613.408C-460.708 464.453 -327.159 35.6616 -291.39 26.9884Z" fill="#FFE3ED"/>
</g>
<defs>
<filter id="filter0_d_133_1203" x="-371" y="0" width="1173" height="699" filterUnits="userSpaceOnUse" color-interpolation-filters="sRGB">
<feFlood flood-opacity="0" result="BackgroundImageFix"/>
<feColorMatrix in="SourceAlpha" type="matrix" values="0 0 0 0 0 0 0 0 0 0 0 0 0 0 0 0 0 0 127 0" result="hardAlpha"/>
<feOffset dx="23"/>
<feGaussianBlur stdDeviation="11.5"/>
<feColorMatrix type="matrix" values="0 0 0 0 0.027451 0 0 0 0 0.231373 0 0 0 0 0.392157 0 0 0 0.44 0"/>
<feBlend mode="normal" in2="BackgroundImageFix" result="effect1_dropShadow_133_1203"/>
<feBlend mode="normal" in="SourceGraphic" in2="effect1_dropShadow_133_1203" result="shape"/>
</filter>
</defs>
</svg>
