<svg width="574" height="460" viewBox="0 0 574 460" fill="none" xmlns="http://www.w3.org/2000/svg">
<g filter="url(#filter0_d_114_803)">
<path d="M31.2499 287.28C61.0399 255.08 109.8 241.93 151.74 254.78C163.49 214.74 197.84 182.18 238.45 172.59C265.39 166.23 296.68 170.77 315.47 191.09C314.28 157.59 332.85 126.54 354.48 100.93C392.68 55.72 448.16 18.95 507.08 24.49C518.84 25.6 530.67 28.47 540.62 34.84C567.95 52.32 573.36 89.48 574.17 121.91C576.15 201.26 566.69 280.4 557.25 359.21C556.3 367.11 555.32 375.15 552 382.39C545.47 396.64 530.66 405.67 515.41 409.3C500.16 412.93 484.25 411.98 468.59 411.31C412.83 408.93 356.89 410.44 301.34 415.83C213.9 424.32 126.49 442.43 38.9598 434.92C0.99984 431.66 1.65986 404.31 0.479859 372.34C-0.660141 341.5 10.1999 310.02 31.2399 287.28H31.2499Z" fill="#ADC9FF"/>
</g>
<defs>
<filter id="filter0_d_114_803" x="0.398438" y="0.936035" width="620.036" height="458.767" filterUnits="userSpaceOnUse" color-interpolation-filters="sRGB">
<feFlood flood-opacity="0" result="BackgroundImageFix"/>
<feColorMatrix in="SourceAlpha" type="matrix" values="0 0 0 0 0 0 0 0 0 0 0 0 0 0 0 0 0 0 127 0" result="hardAlpha"/>
<feOffset dx="23"/>
<feGaussianBlur stdDeviation="11.5"/>
<feColorMatrix type="matrix" values="0 0 0 0 0.027451 0 0 0 0 0.231373 0 0 0 0 0.392157 0 0 0 0.44 0"/>
<feBlend mode="normal" in2="BackgroundImageFix" result="effect1_dropShadow_114_803"/>
<feBlend mode="normal" in="SourceGraphic" in2="effect1_dropShadow_114_803" result="shape"/>
</filter>
</defs>
</svg>
