<svg width="729" height="432" viewBox="0 0 729 432" fill="none" xmlns="http://www.w3.org/2000/svg">
<path d="M-209.773 3.56387C-182.463 -3.04613 -154.773 1.56387 -154.773 1.56387C-134.773 5.07387 -119.473 12.7139 -103.773 20.5639C-91.2928 26.8039 -83.9128 30.4939 -76.7728 37.5639C-72.9228 41.3839 -68.7028 44.8239 -64.7728 48.5639C-64.7728 48.5639 -64.7528 48.5839 -64.7428 48.5939C-53.2828 59.4839 -50.0028 54.0039 -35.6928 52.7639C-22.0028 51.5739 -7.6828 55.7839 3.13721 64.2639C17.8172 75.7639 25.9872 95.0539 24.0472 113.594C22.9772 123.774 18.2172 127.084 17.9972 140.424C17.8572 148.394 17.6872 158.934 24.2372 164.564C30.9772 170.364 37.7872 164.894 54.2372 168.564C60.7772 170.024 70.5372 172.204 78.2372 179.564C89.1872 190.034 84.2872 199.834 97.2372 212.564C100.357 215.634 106.537 221.544 113.387 220.514C119.217 219.634 122.527 213.884 124.037 212.354C138.257 197.874 152.377 183.384 167.237 169.564C190.447 147.994 227.117 151.234 242.237 152.564C311.167 158.644 351.487 222.634 361.237 248.564C363.667 255.034 369.817 274.074 372.237 296.564C373.187 305.354 373.657 309.754 373.237 315.564C372.497 325.824 370.237 344.564 370.237 344.564C369.747 348.604 369.377 351.564 371.237 353.564C373.997 356.524 379.047 354.564 386.237 354.564C393.537 354.564 398.687 356.594 406.237 359.564C422.477 365.954 423.457 373.734 431.237 373.564C439.947 373.374 442.367 363.534 453.237 353.564C471.207 337.064 495.157 335.904 502.237 335.564C502.237 335.564 532.647 334.094 558.237 352.564C567.637 359.354 572.237 364.564 572.237 364.564C578.227 371.354 578.307 374.324 582.097 375.644C588.437 377.844 592.867 371.194 604.237 367.564C611.787 365.154 617.607 365.624 629.237 366.564C662.327 369.244 691.317 387.724 709.257 415.744C724.627 439.744 741.727 497.104 713.237 518.564C701.127 527.684 685.967 522.614 662.237 518.564C622.477 511.784 581.567 518.094 541.237 517.564C386.027 515.534 -27.2128 659.934 -193.763 527.564C-361.263 394.454 -241.773 11.3139 -209.773 3.56387Z" fill="#ADC9FF"/>
</svg>
