<svg width="963" height="225" viewBox="0 0 963 225" fill="none" xmlns="http://www.w3.org/2000/svg">
<g filter="url(#filter0_d_114_807)">
<path d="M3.53444 -21.74C-0.265608 6.53003 16.5844 21.75 42.2544 34.17C67.9245 46.6 101.275 40.6701 121.094 20.1601C147.084 64.8101 203.344 89.5 253.804 78.42C277.834 149.18 349.734 200.78 424.464 200.87C499.194 200.96 571.234 149.55 595.434 78.8501C633.474 93.3301 672.524 107.64 713.214 108.63C753.904 109.62 797.194 94.9501 820.614 61.6501C855.624 103.23 909.334 131.41 963.454 126.35C1017.57 121.29 1068.46 77.7801 1072.96 23.6101C1101.86 37.3301 1134.11 47.7201 1165.56 41.8601C1197.01 36.0001 1226.37 9.35011 1225.81 -22.6399C906.904 -22.8499 589.364 -25.7899 270.444 -26L3.53444 -21.74Z" fill="#F0F8FF"/>
</g>
<defs>
<filter id="filter0_d_114_807" x="0" y="-49.9999" width="1270.82" height="274.87" filterUnits="userSpaceOnUse" color-interpolation-filters="sRGB">
<feFlood flood-opacity="0" result="BackgroundImageFix"/>
<feColorMatrix in="SourceAlpha" type="matrix" values="0 0 0 0 0 0 0 0 0 0 0 0 0 0 0 0 0 0 127 0" result="hardAlpha"/>
<feOffset dx="21"/>
<feGaussianBlur stdDeviation="12"/>
<feColorMatrix type="matrix" values="0 0 0 0 0.027451 0 0 0 0 0.231373 0 0 0 0 0.392157 0 0 0 0.44 0"/>
<feBlend mode="normal" in2="BackgroundImageFix" result="effect1_dropShadow_114_807"/>
<feBlend mode="normal" in="SourceGraphic" in2="effect1_dropShadow_114_807" result="shape"/>
</filter>
</defs>
</svg>
