<svg width="162" height="146" viewBox="0 0 162 146" fill="none" xmlns="http://www.w3.org/2000/svg">
<g filter="url(#filter0_d_114_808)">
<path d="M33.1002 32.78C36.5202 31.58 40.4503 31.74 43.1703 34.05C43.6503 34.45 44.2303 34.95 44.8103 34.74C45.0603 34.65 45.2403 34.44 45.4203 34.25C52.2403 26.58 63.4303 21.99 73.5303 21.14C83.3103 20.32 92.6202 23.55 98.8702 31.2C104.73 38.37 105.85 46.81 106.1 55.76C109.69 56.12 113.11 58 115.33 60.85C117.55 63.7 118.54 67.47 118 71.04C117.95 71.4 117.88 71.78 118.02 72.12C118.14 72.4 118.39 72.61 118.62 72.81C122.71 76.15 127 80.12 127 85.95C127 93 124.67 99.65 118.21 103.5C115.02 105.4 111.62 105.93 107.96 105.69C103.53 105.39 103.7 109.03 101.07 111.77C98.5602 114.39 95.5203 116.46 92.3803 118.27C86.1603 121.85 79.2802 124.54 72.1202 124.95C63.1202 125.47 54.6202 121.96 48.8502 115C42.9902 117.92 34.8702 113.74 33.8402 107.28C28.6402 111.6 20.3602 110.67 15.2002 106.31C10.0402 101.94 7.7003 94.94 7.5503 88.18C7.4003 81.6 9.89026 74.18 16.5003 71.62C14.9903 69.19 14.1003 66.22 14.7803 63.44C15.7203 59.63 19.8403 57.35 23.5603 58.68C21.5703 57.66 20.8003 55.25 20.2603 53.08C19.7703 51.09 19.3102 49 19.8302 47.02C21.1002 42.18 26.5302 36.41 30.7102 33.92C31.4602 33.47 32.2702 33.09 33.1102 32.8L33.1002 32.78Z" fill="white"/>
</g>
<defs>
<filter id="filter0_d_114_808" x="0.543945" y="0.0158691" width="161.456" height="145.985" filterUnits="userSpaceOnUse" color-interpolation-filters="sRGB">
<feFlood flood-opacity="0" result="BackgroundImageFix"/>
<feColorMatrix in="SourceAlpha" type="matrix" values="0 0 0 0 0 0 0 0 0 0 0 0 0 0 0 0 0 0 127 0" result="hardAlpha"/>
<feOffset dx="14"/>
<feGaussianBlur stdDeviation="10.5"/>
<feColorMatrix type="matrix" values="0 0 0 0 0.0627451 0 0 0 0 0.211765 0 0 0 0 0.427451 0 0 0 1 0"/>
<feBlend mode="normal" in2="BackgroundImageFix" result="effect1_dropShadow_114_808"/>
<feBlend mode="normal" in="SourceGraphic" in2="effect1_dropShadow_114_808" result="shape"/>
</filter>
</defs>
</svg>
