<svg width="1920" height="114" viewBox="0 0 1920 114" fill="none" xmlns="http://www.w3.org/2000/svg">
<g filter="url(#filter0_d_131_764)">
<path d="M292.035 120.033C393.845 96.6331 491.775 50.6031 596.215 48.5431C714.185 46.2131 825.365 100.173 941.465 121.253C1013.4 134.313 1086.97 134.663 1160.09 134.973C1214.13 135.203 1268.68 135.383 1321.52 124.033C1368.51 113.943 1413.06 94.9531 1458.95 80.6531C1548.69 52.6831 1642.94 42.7831 1736.53 34.0531C1802.18 27.9331 1870.84 22.7231 1931.82 47.8231C1936.89 112.953 1941.96 178.073 1947.03 243.203C1948.5 262.143 1948.38 284.693 1932.86 295.633C1924.17 301.763 1912.86 302.343 1902.24 302.703C1288.92 323.683 675.235 333.593 61.5547 332.423C36.8347 332.373 8.04472 330.263 -5.81528 309.793C-13.3753 298.623 -14.4753 284.453 -15.3353 270.993C-18.3853 223.393 -34.2053 159.403 -25.3253 112.753C-18.4653 76.6631 15.8547 82.7731 42.6247 94.8231C125.205 132.023 202.525 140.623 292.055 120.043L292.035 120.033Z" fill="white"/>
</g>
<defs>
<filter id="filter0_d_131_764" x="-51" y="0" width="2021.63" height="349.516" filterUnits="userSpaceOnUse" color-interpolation-filters="sRGB">
<feFlood flood-opacity="0" result="BackgroundImageFix"/>
<feColorMatrix in="SourceAlpha" type="matrix" values="0 0 0 0 0 0 0 0 0 0 0 0 0 0 0 0 0 0 127 0" result="hardAlpha"/>
<feOffset dy="-6"/>
<feGaussianBlur stdDeviation="11.5"/>
<feComposite in2="hardAlpha" operator="out"/>
<feColorMatrix type="matrix" values="0 0 0 0 0 0 0 0 0 0 0 0 0 0 0 0 0 0 0.25 0"/>
<feBlend mode="normal" in2="BackgroundImageFix" result="effect1_dropShadow_131_764"/>
<feBlend mode="normal" in="SourceGraphic" in2="effect1_dropShadow_131_764" result="shape"/>
</filter>
</defs>
</svg>
